<svg id="Layer_1" data-name="Layer 1" xmlns="http://www.w3.org/2000/svg" viewBox="0 0 225.17 225.16"><defs><style>.cls-1{fill:#fefefe;}.cls-2{fill:#175aa7;}.cls-3{fill:#185aa8;}.cls-4{fill:#fcfcfd;}.cls-5{fill:#185aa6;}.cls-6{fill:#1b5ca7;}.cls-7{fill:#1b5aab;}.cls-8{fill:#f8fbf9;}.cls-9{fill:#014c8d;}.cls-10{fill:#fafdfb;}.cls-11{fill:#fafcfa;}.cls-12{fill:#11579b;}.cls-13{fill:#fcfdf8;}.cls-14{fill:#e3edf2;}.cls-15{fill:#014e97;}.cls-16{fill:#044c90;}.cls-17{fill:#0e549b;}.cls-18{fill:#1758ab;}.cls-19{fill:#f0f6f5;}.cls-20{fill:#00529b;}.cls-21{fill:#094f9c;}.cls-22{fill:#12539d;}.cls-23{fill:#014d95;}.cls-24{fill:#b8cee2;}.cls-25{fill:#0150a5;}.cls-26{fill:#004c8a;}.cls-27{fill:#02519b;}.cls-28{fill:#dbe6ec;}.cls-29{fill:#004996;}.cls-30{fill:#00509d;}.cls-31{fill:#004097;}.cls-32{fill:#fafdf7;}.cls-33{fill:#00509b;}.cls-34{fill:#004684;}.cls-35{fill:#004d96;}.cls-36{fill:#185ca4;}.cls-37{fill:#004589;}.cls-38{fill:#fefeec;}.cls-39{fill:#eaeff3;}.cls-40{fill:#fefef8;}.cls-41{fill:#fefef7;}.cls-42{fill:#e1f6fd;}.cls-43{fill:#2d618d;}.cls-44{fill:#004e86;}.cls-45{fill:#08509a;}.cls-46{fill:#4075aa;}.cls-47{fill:#014d93;}.cls-48{fill:#3d76b0;}.cls-49{fill:#1c5ca8;}.cls-50{fill:#fcfef6;}.cls-51{fill:#004e9a;}.cls-52{fill:#135da2;}.cls-53{fill:#004ea2;}.cls-54{fill:#f6fefb;}.cls-55{fill:#f5faf5;}.cls-56{fill:#045091;}.cls-57{fill:#0150a3;}.cls-58{fill:#eaf1f3;}.cls-59{fill:#0455a7;}.cls-60{fill:#f6f9f7;}.cls-61{fill:#f2f6f4;}.cls-62{fill:#004785;}.cls-63{fill:#004d9c;}.cls-64{fill:#1f5c93;}.cls-65{fill:#3771a5;}.cls-66{fill:#fcfdfd;}.cls-67{fill:#0454a7;}.cls-68{fill:#004fa3;}.cls-69{fill:#1759ad;}.cls-70{fill:#145ca6;}.cls-71{fill:#004b91;}.cls-72{fill:#1e57a4;}.cls-73{fill:#004d99;}.cls-74{fill:#004d9a;}.cls-75{fill:#04518f;}.cls-76{fill:#1759ac;}.cls-77{fill:#135ca3;}.cls-78{fill:#004f97;}.cls-79{fill:#f3f7f8;}.cls-80{fill:#155ca3;}.cls-81{fill:#145ca4;}.cls-82{fill:#145ca3;}.cls-83{fill:#1857b1;}.cls-84{fill:#125ea2;}.cls-85{fill:#1758ad;}.cls-86{fill:#1c58a4;}.cls-87{fill:#185d9a;}.cls-88{fill:#004f9e;}.cls-89{fill:#135da7;}.cls-90{fill:#175aa6;}.cls-91{fill:#f7fbfb;}.cls-92{fill:#004da7;}.cls-93{fill:#eff5f6;}.cls-94{fill:#fefbfe;}.cls-95{fill:#004ea5;}</style></defs><title>adasda</title><path class="cls-1" d="M1074,541c0,36.17,0,72.33.08,108.5,0,3-.6,3.59-3.58,3.58q-109-.15-218,0c-3,0-3.59-.6-3.58-3.58q.15-109,0-218c0-3,.6-3.59,3.58-3.58q109,.15,218,0c3,0,3.59.6,3.58,3.58C1074,468,1074,504.5,1074,541Z" transform="translate(-848.92 -427.92)"/><path class="cls-2" d="M997,548.91a17.6,17.6,0,0,1-15-15.14c-1.11-7.48,3.08-13.9,9.89-18,7.1-4.28,14.51-2,21.77-2.56,3-.23,2,2.51,2,4.08.11,12.15.11,24.3.14,36.45-.6.52-1,.39-1.28-.36-.13-11.38,0-22.75-.08-32.28.54,10.48-1,22.81.77,35.12a2.33,2.33,0,0,1-.46,1.71,13.6,13.6,0,0,1-5.88,5.26l-.54-.26a5.7,5.7,0,0,0-1.12-.52c-1.81-.5-3.49.26-5.23.52a62,62,0,0,1-6.68,0,11.45,11.45,0,0,0-6.66,0c-1.59,0-3.22.4-4.7-.55a2.11,2.11,0,0,1-.16-2.31c1.76-2,3.08-4.58,6.18-4.89a17,17,0,0,0,1.79.82,53.87,53.87,0,0,0,11.14-.28c1-.41,2.27.34,3-.89,1.53-1.62,1-3.59.92-5.48-.65-.95-.46-2-.58-3.1-.16-.88-.69-1.79.2-2.64-1.49.47-1.45,1.84-1.87,2.92a3,3,0,0,1-1.93,1.94C1000.82,548.76,998.85,548,997,548.91Z" transform="translate(-848.92 -427.92)"/><path class="cls-2" d="M954,548.89c-4.62-3.06-5-7.65-4.8-12.62a57.75,57.75,0,0,0-.28-8.92,5.23,5.23,0,0,0-5-4.8c-2.53-.26-5.37,0-6,3.47a4.1,4.1,0,0,0-.79,1c-.38,1.28-.14,2.61-.39,3.9-.08.46-.19.91-.31,1.36-.26,4.11-.54,8.22.26,12.31.21,1,.39,2,.5,3.06-.57,1.2-1.67,1.28-2.78,1.35-1.93-.13-4,.47-5.73-.77-1.71-6.64-.1-13.46-1.08-20.13a11.86,11.86,0,0,0-.51-1.41L926,525c-.94-.36-1.33-1.28-2-1.93l-.05,0a6.23,6.23,0,0,0-3.89,0c-4.57.73-4.13,4.43-4.39,7.59-.49,6,.81,12.11-.68,18.1a2.57,2.57,0,0,1-.43-1.64c0-5.88,0-11.76,0-16.66-.41,5.24.54,11.53-.43,17.73a11,11,0,0,1-6.21,0c-1.09-6.66.43-13.41-.8-20.06.19-8.86,5.14-13,14-13.61,3.94-.26,6.91.05,9.8,2.55a2.69,2.69,0,0,0,3.93-.43,7.26,7.26,0,0,1,4.2-2.35,18.81,18.81,0,0,0,7.94,0c4.51,1.12,6.84,5.05,10,7.84a4.4,4.4,0,0,1,1.54,3.69,154.38,154.38,0,0,0,.12,19.83,8.61,8.61,0,0,1-.39,2.47C957.13,549.46,955.78,550.1,954,548.89Z" transform="translate(-848.92 -427.92)"/><path class="cls-2" d="M873,548.86c-3.89-.87-6.08-3.66-7.87-6.92a13,13,0,0,0-.09-6.92c.29-3,2.84-4.3,4.76-6.07,1.69-.81,3.46-.33,4.95-.35.91.1.34-1,.3-.33,0,.16-.16.21-.45.21a2.14,2.14,0,0,1-1.81-.56c5.14-1.6,10.43-.32,15.63-.78,1.15-.1,3,.83,3.29-1,.27-1.57-1-2.82-2.4-3.38a53.22,53.22,0,0,0-5.63-1.57c-4.83-1.79-10,.3-14.83-1.13-3.31-.16-4.11-3-4-5.16.12-3,3.1-1.53,4.78-1.61,4.63-.22,9.28.08,13.91-.09,9.76-.36,19,7.7,17.43,18-.81,5.37,1.67,11.34-3.13,16a5.63,5.63,0,0,1-2.93,1.64A145.41,145.41,0,0,0,873,548.86Z" transform="translate(-848.92 -427.92)"/><path class="cls-3" d="M1058.8,534c-1.59,7.84-5.82,13.34-13.94,15-8.69,1.78-15.24-1.5-19.81-9a2.31,2.31,0,0,1,1.24-1.47c2.87.45,1.19-1.89,1.73-2.87.26-.93.62-1.76,1.73-1.9,2.5,2,3.6,5.27,6.59,6.73,1.58,1.49,3.49,1.38,5.43,1.14,4.82-.8,7-4.48,9.1-8.26a3.78,3.78,0,0,0-.13-4.87c-1-3-5.43-4.35-3.9-8.47,2.14-4.66,3.23-4.7,6.67-1.52,2.91,2.7,4.84,5.64,5.27,9.56A12.18,12.18,0,0,0,1058.8,534Z" transform="translate(-848.92 -427.92)"/><path class="cls-4" d="M1036,541.26c-3.43-1.24-5.11-3.93-6-7.25-2.35-3.71-.92-7.19.8-10.53,1-1.86,2.25-3.56,3.18-5.45,2.9-.1,1.43,3,2.95,4,2.16,2,.89,4.7,1.52,7,.69,2.51,1.33,5.38,4.79,2.33,1.46-3.3-1-7.4,2.1-10.34l1.56-1c.28,3.53,4.17,4.82,5,8a5.76,5.76,0,0,1,0,5.89c-1.87,4.5-5,7.68-9.75,9C1040.24,541.71,1037.55,543.49,1036,541.26Z" transform="translate(-848.92 -427.92)"/><path class="cls-5" d="M967.21,518.06c3.1-3.95,4.75-4.82,7.63-4-.84,11.08-.09,22.18-.39,33.27-2.09,2.38-5,.39-7.38,1.46-1.27-9.66-.89-19.33-.2-29,1.46,7.9.13,15.87.69,23.8.53.15.25.07.21-.36C967,534.84,968,526.43,967.21,518.06Z" transform="translate(-848.92 -427.92)"/><path class="cls-6" d="M1044.06,533c-4.1,2.46-6.5,1.39-6.86-3.14-.21-2.62-.23-5.25-.33-7.88.09-2.65,0-5.32.29-8,.41-3.88,2.32-4.73,5.82-2.8,2,4.42.62,9.1,1,13.64.18,2.13-.08,4.29.17,6.42A2.12,2.12,0,0,1,1044.06,533Z" transform="translate(-848.92 -427.92)"/><path class="cls-7" d="M1033.92,518a2.72,2.72,0,0,1-.35,3.8c-3.27,3.5-4,7.65-3.63,12.18a2.06,2.06,0,0,0-.94,2,35.39,35.39,0,0,1-3,3l-1,1c-4.77-8.71-2.93-17.43,4.86-23,1.43-.84,1.89,1.21,3.09,1A1.91,1.91,0,0,1,1033.92,518Z" transform="translate(-848.92 -427.92)"/><path class="cls-8" d="M937.38,526.07A1.44,1.44,0,0,0,938,526c0,6.64-.2,13.28.08,19.91.16,4-1.94,4.41-4.93,4.07-2.61-.29-6.27,1.5-6.23-3.77,0-5.59.75-11.24-.69-16.81-.21-.79.6-1.84.94-2.76a4.46,4.46,0,0,1,.78.41c1.18,6.51.23,13.07.53,19.59,1.62,3.57,4.41,1.5,6.79,1.42.8,0,1.71.17,1.6-1.12-1.37-5.19-1-10.45-.52-15.71C937,529.6,935.57,527.5,937.38,526.07Z" transform="translate(-848.92 -427.92)"/><path class="cls-9" d="M972.24,579.11c-4,0-5.34-2-5.49-5.3-.16-3.62,1.66-5.62,5.13-5.83s5.4,2,5.53,5.1C977.56,576.56,975.37,578.62,972.24,579.11Z" transform="translate(-848.92 -427.92)"/><path class="cls-10" d="M868.91,571c-1.09.71-1.68,3-3.55,1.33-1.62-1.41-1.55-3.77-1.61-5.42s2.43-.89,3.8-.55,2.52,1,3.78.12c1-.73,1.19-3.6,3-1.76.9.91,2.69,2.52,1.43,4.7-.61,1,.79,2.61-1,4-.57-1.08-.68-3.1-2.68-2.38a2.25,2.25,0,0,1-.82-.8c-.61-.6-1.21-1.34-1.87,0A1.33,1.33,0,0,1,868.91,571Z" transform="translate(-848.92 -427.92)"/><path class="cls-11" d="M1015,577.18c.84,2.46,1.64,4.84-2.07,5.71s-7-.86-7.44-4.13c-.33-2.57-2.64-5.33.36-7.77a2.15,2.15,0,0,1,.88,1c.69,1.71.08,3.92,2,5.15C1010.82,578.79,1012.94,576.06,1015,577.18Z" transform="translate(-848.92 -427.92)"/><path class="cls-12" d="M1006.07,572l-.21-1c.76-.82,1.51-1.65,2.26-2.48,1.44-1.85,3.2-.9,4.89-.57,3.37,2.5,4.74,5.43,2,9.24-2.23,1.26-4.33,3.37-7.07,1a1.09,1.09,0,0,1-.31-.82c0-.31.06-.46.12-.46a3.46,3.46,0,0,1,.79-.57c1.53-.86,4.72-.53,3.55-3.51-1-2.5-3.15-.2-4.78-.26A2,2,0,0,1,1006.07,572Z" transform="translate(-848.92 -427.92)"/><path class="cls-13" d="M957.75,525.08,957,522c4.69,1.52,3.71,5.54,4,9v.74q0,6.25,0,12.52V545l-1.9,2c-2.12-4.09-.73-8.48-1.07-12.72-.2-2.47.08-5-.15-7.46A4.15,4.15,0,0,1,957.75,525.08Z" transform="translate(-848.92 -427.92)"/><path class="cls-14" d="M1036,570l1,3.14c-1.83.79-1.13,2.8-2,4.08-4.94,1.07-6.16.08-6.33-5.17C1030.36,568.63,1032.9,568.33,1036,570Z" transform="translate(-848.92 -427.92)"/><path class="cls-15" d="M974,548c0-9.75,0-19.49,0-29.24,0-1.59-.53-3.33.82-4.71q0,17,0,34Q974.4,548.56,974,548Z" transform="translate(-848.92 -427.92)"/><path class="cls-16" d="M932,569l1.16-.38c.68,2.84.17,5.72.31,8.57-.58,1.39-1.55,1.24-1.74,0-.5-3.36-2.25-3.33-4.67-2.1-.38,1.25.83,3.59-1,3.63-2.06,0-.89-2.28-1.09-3.54a18.82,18.82,0,0,1,0-3.9c0-.87-.33-2.32,1.08-2.18,1.68.16.76,1.79,1,2.76C930.37,573.83,931.43,571.85,932,569Z" transform="translate(-848.92 -427.92)"/><path class="cls-17" d="M886.06,578.81c0-2.62.17-5.25,0-7.85-.17-2.4.71-3.39,3.05-3,1,.17,2.6-.69,2.75,1.06.14,1.49-1.39.84-2.18,1.18-1.9.83-1.88.87,1,3-.06,1.43-3.28.72-2,3a3.33,3.33,0,0,1,.71,1c-.13,1.32-1.15,1.67-2.19,2A.86.86,0,0,1,886.06,578.81Z" transform="translate(-848.92 -427.92)"/><path class="cls-18" d="M974,508.67c-1.68,1.62-3.35,2.57-5.41.45-1.16-1.18-2.61-2.22-1.77-4.11,1-2.28,3-2.62,5.25-2.14,1.14,1.35-.77,3.85,1.77,4.66a.84.84,0,0,1,.32.74C974.1,508.54,974.05,508.67,974,508.67Z" transform="translate(-848.92 -427.92)"/><path class="cls-19" d="M983.84,560l.17,2a146.65,146.65,0,0,0,19.21.29c2-.14,3.95-.57,5.82.49l-.11.41c-7.91,1.87-15.93.58-23.89.69C982.39,563.92,982.57,561.85,983.84,560Z" transform="translate(-848.92 -427.92)"/><path class="cls-20" d="M967.21,518.06C969,527,967.5,536,966.87,545V519.77C967,519.2,967.1,518.63,967.21,518.06Z" transform="translate(-848.92 -427.92)"/><path class="cls-21" d="M989.09,578.67c0-2.72.12-5.45.11-8.18,0-1.19,0-2.27,1.55-2.45a.88.88,0,0,1,.48,1.09,18.37,18.37,0,0,0-.18,4.74c-.13,3.71,3.58,1.75,4.9,3.32l0,1.74-.65.49C993.21,579.11,991,580.38,989.09,578.67Z" transform="translate(-848.92 -427.92)"/><path class="cls-22" d="M1056.94,568.11c-2.38,3.23-4.48,6.59-4.41,11-2.22-1.83-1.13-4.08-1.6-6-.57-1.14.11-1.62,1-2l2.1-3A1.83,1.83,0,0,1,1056.94,568.11Z" transform="translate(-848.92 -427.92)"/><path class="cls-23" d="M1029.08,572c.55,4.49,2,5.43,6,4a1.38,1.38,0,0,1,1.69-1c.14,3.68-2.15,4.72-5.07,3.9-3.3-.93-5.28-3.13-3.64-6.93A.64.64,0,0,1,1029.08,572Z" transform="translate(-848.92 -427.92)"/><path class="cls-24" d="M958.13,526c1.94,6.95.27,14,1,21.06-.05.65-.1,1.3-.14,2-.9.33-1.21,0-.94-.88l-.16-2.15C957.47,539.27,956.94,532.6,958.13,526Z" transform="translate(-848.92 -427.92)"/><path class="cls-25" d="M873,548.86a60.1,60.1,0,0,1,21.89-.08A134.45,134.45,0,0,1,873,548.86Z" transform="translate(-848.92 -427.92)"/><path class="cls-26" d="M905.12,574c1.7,3.06,4.07,4.26,7.8,2-1.48,3.12-3.69,3.59-5.89,2.92s-3.55-2.31-2.91-4.9C904.43,573.53,904.76,573.49,905.12,574Z" transform="translate(-848.92 -427.92)"/><path class="cls-27" d="M1043.92,532c-2-6.84-.36-13.84-.94-20.74l1.24.76C1044.46,518.67,1045,525.34,1043.92,532Z" transform="translate(-848.92 -427.92)"/><path class="cls-28" d="M1043.92,532c.84-6.65.18-13.32.3-20,1.83,2.82.34,6,1.06,9-.82,4,1,8.19-1.22,12Z" transform="translate(-848.92 -427.92)"/><path class="cls-29" d="M948.05,568.86c.69,3.63,1.15,7.22-2,10.11-1.56-3.45-1.85-6.88.22-10.25A2,2,0,0,1,948.05,568.86Z" transform="translate(-848.92 -427.92)"/><path class="cls-30" d="M907.07,528c2.12,6.57.33,13.33.95,20a.64.64,0,0,1-1,0A130.65,130.65,0,0,1,907.07,528Z" transform="translate(-848.92 -427.92)"/><path class="cls-31" d="M868.85,570.08c-.51-.37-1.21-.63-1.48-1.12-.5-.94.74-1.08.89-.91,1,1.25,4.69-2.62,3.85,2-1.69,2.75.37,6-1.17,8.79l-.44.15-.41-.22C868.45,576.05,870.66,572.78,868.85,570.08Z" transform="translate(-848.92 -427.92)"/><path class="cls-32" d="M1028.08,570c-1.8-2.74-1.41-4.55,2.18-3.65,1.59.39,4.23-.32,4.74,2.46C1032.6,568.7,1030.5,570.27,1028.08,570Z" transform="translate(-848.92 -427.92)"/><path class="cls-33" d="M868.89,520c5,0,9.92-.17,14.86,0,2.5.1.67.74,0,1.1C878.77,521,873.66,522.75,868.89,520Z" transform="translate(-848.92 -427.92)"/><path class="cls-34" d="M905.12,574l-1,0c-.36-5,2.3-6.5,6.81-5.78a1.58,1.58,0,0,1,0,2.32C907.38,568.87,906.11,571.17,905.12,574Z" transform="translate(-848.92 -427.92)"/><path class="cls-35" d="M1006,554.78c-.57,1.41-1.83,1.18-3,1.24-4,.53-8,1.1-12,0l-1-.9Z" transform="translate(-848.92 -427.92)"/><path class="cls-36" d="M974,508c-6.5.48-2.46-3-1.91-5.13l1.94,1.21A3.63,3.63,0,0,1,974,508Z" transform="translate(-848.92 -427.92)"/><path class="cls-37" d="M1028.08,570c2.18-1.11,4.23-3,6.92-1.19l1,1.12c-2.53-.08-4.93.25-6.89,2.08l-1,0Z" transform="translate(-848.92 -427.92)"/><path class="cls-38" d="M990.88,569c0-.33-.09-.67-.13-1,.35.34,1,.67,1,1,0,3.47.09,6.83,4.21,8.15-2.37-.32-5.13.08-5.94-3.17C991.17,572.51,989.94,570.59,990.88,569Z" transform="translate(-848.92 -427.92)"/><path class="cls-39" d="M933,578l.12-9.38c2.06,3.18.78,6.65.65,10-.06,1.59-1.65,1.75-2.73.23C931.62,578.3,932.45,578.48,933,578Z" transform="translate(-848.92 -427.92)"/><path class="cls-40" d="M945,579a8.05,8.05,0,0,1-1.31,1.36c-.11.09-.66-.45-1-.7,3-3.08-.22-7.48,2.3-10.65A21,21,0,0,1,945,579Z" transform="translate(-848.92 -427.92)"/><path class="cls-41" d="M961,531a20.89,20.89,0,0,1,0,14h0a41.13,41.13,0,0,1,0-14Z" transform="translate(-848.92 -427.92)"/><path class="cls-30" d="M953,578c-.74-.81-1.47-1.64-2.23-2.42-.58-.6-1.31-1.25-.56-2,.92-1,1.74,0,2.56.4a1,1,0,0,1,1.47.15C954.14,575.47,955.71,577.4,953,578Z" transform="translate(-848.92 -427.92)"/><path class="cls-42" d="M945,579q0-5,0-10c0-.33,0-.66,0-1,.91-.56,1.73-.84,1.94.66-2,3.29-.53,6.87-.88,10.3Z" transform="translate(-848.92 -427.92)"/><path class="cls-43" d="M953,578c1.42-1.1.78-2.61.8-4a9.2,9.2,0,0,1,.17-5.82c2,3.29.64,6.86.74,10.29C954.76,579.14,953.44,578.92,953,578Z" transform="translate(-848.92 -427.92)"/><path class="cls-44" d="M1052,571.2l-1,2c-.6-.51-1.22-1-1.81-1.53-1-.94-1.87-2.42-.67-3.26,1.85-1.27,1.33,1.56,2.41,2A4.52,4.52,0,0,1,1052,571.2Z" transform="translate(-848.92 -427.92)"/><path class="cls-45" d="M888.24,576.9c-1.62-2.71-1.54-2.84,2.39-3.71.48-.26,1.11-.15,1.07.33-.14,1.67-1.85.89-2.67,1.55A17.4,17.4,0,0,0,888.24,576.9Z" transform="translate(-848.92 -427.92)"/><path class="cls-46" d="M933,578c-.3,1.13-1.2.8-2,.8.59-3.32-.72-4.59-4-3.71C930.92,573.26,930.92,573.26,933,578Z" transform="translate(-848.92 -427.92)"/><path class="cls-47" d="M1036.77,575l-1.69,1c-.17-1.19-2.57-.8-1.92-2.2.74-1.6,2.48-.61,3.8-.7Z" transform="translate(-848.92 -427.92)"/><path class="cls-48" d="M868.85,570.08c2.57,2.59.87,5.79,1.24,8.69-1.81-2.37,0-5.29-1.18-7.77A1.33,1.33,0,0,0,868.85,570.08Z" transform="translate(-848.92 -427.92)"/><path class="cls-46" d="M932,569c.34,4.38-1.41,5.17-5,2.87,2.34.54,4.45.72,4.11-2.76a.53.53,0,0,1,.21-.38A3.15,3.15,0,0,1,932,569Z" transform="translate(-848.92 -427.92)"/><path class="cls-49" d="M1033,518c-1,1.79-1,1.79-3.09-1C1031.53,515.54,1032.44,516.27,1033,518Z" transform="translate(-848.92 -427.92)"/><path class="cls-48" d="M870.94,578.84c.36-2.94-1.28-6.14,1.17-8.79a1.8,1.8,0,0,0,0,1C871,573.5,872.84,576.46,870.94,578.84Z" transform="translate(-848.92 -427.92)"/><path class="cls-50" d="M995.91,578.93l2.08-3.16c.55,4.26.55,4.26-2,4.23-.33-.22-.45-.46-.37-.72s.17-.4.27-.4Z" transform="translate(-848.92 -427.92)"/><path class="cls-51" d="M887,578.8l2-1.67c1.69-1.26,2.94-.64,4,.92a1.71,1.71,0,0,1,0,.87A6.33,6.33,0,0,1,887,578.8Z" transform="translate(-848.92 -427.92)"/><path class="cls-52" d="M1003,548l1-2a8,8,0,0,1,3,0,3,3,0,0,1-.13,3.3L1005,549C1004.5,548.31,1003.47,548.7,1003,548Z" transform="translate(-848.92 -427.92)"/><path class="cls-53" d="M907,548h7c.24-.46.49-.48.73,0a5.73,5.73,0,0,0,.23.7C912.24,549,909.46,550.27,907,548Z" transform="translate(-848.92 -427.92)"/><path class="cls-54" d="M1056.94,568.11l-2.87.08c1.16-1.7,2.87-2.52,5.89-4Z" transform="translate(-848.92 -427.92)"/><path class="cls-55" d="M947,568.67,945,568c-.71-.58-1.11-1.45,0-1.74,2-.53,2.78.84,3.07,2.59Z" transform="translate(-848.92 -427.92)"/><path class="cls-8" d="M924,523.08c1.11.18,2,.62,2,1.93-1,1.21-2.5,2-3.54.82S924.78,524.82,924,523.08Z" transform="translate(-848.92 -427.92)"/><path class="cls-56" d="M947,514.15a8.43,8.43,0,0,1-7.94,0A15.49,15.49,0,0,1,947,514.15Z" transform="translate(-848.92 -427.92)"/><path class="cls-57" d="M974,548h.87c-2.39,2.28-5.15,1-7.78.78C969.23,547.25,971.68,548.33,974,548Z" transform="translate(-848.92 -427.92)"/><path class="cls-25" d="M1003,548a2.08,2.08,0,0,1,2,1l-8-.07C998.8,547.22,1001,548.32,1003,548Z" transform="translate(-848.92 -427.92)"/><path class="cls-58" d="M893,578.05a4.42,4.42,0,0,0-4-.92.79.79,0,0,0-.76-.23c.08-.69-.45-1.64.79-1.83C889.88,576.68,893.09,575.16,893,578.05Z" transform="translate(-848.92 -427.92)"/><path class="cls-30" d="M865.08,535a6.46,6.46,0,0,1,.09,6.92A11.43,11.43,0,0,1,865.08,535Z" transform="translate(-848.92 -427.92)"/><path class="cls-59" d="M872.83,527.92l3.2.35L876,529h-6.12C870.46,527.52,871.75,528,872.83,527.92Z" transform="translate(-848.92 -427.92)"/><path class="cls-60" d="M1014.81,557.93a1.76,1.76,0,0,0,0-1c-.33-.93-.65-1.87.31-2.66l.72-.54C1018.06,555.78,1017.27,557.07,1014.81,557.93Z" transform="translate(-848.92 -427.92)"/><path class="cls-13" d="M958,548.09l.94.88c-1.67,1.82-3.31,1.39-4.93-.08A4,4,0,0,0,958,548.09Z" transform="translate(-848.92 -427.92)"/><path class="cls-58" d="M887,578.8l6,.12c-2.33,1.68-4.64,1.84-6.91-.11A1.38,1.38,0,0,0,887,578.8Z" transform="translate(-848.92 -427.92)"/><path class="cls-61" d="M995.91,578.88c0,.38.06.75.1,1.12-2.3-.5-5,1.21-6.92-1.33A19.07,19.07,0,0,0,995.91,578.88Z" transform="translate(-848.92 -427.92)"/><path class="cls-41" d="M976,582.88c-3,0-4.55.52-6.24-.45A7.87,7.87,0,0,1,976,582.88Z" transform="translate(-848.92 -427.92)"/><path class="cls-41" d="M1035.76,582.81h-6C1032.65,581.78,1034.26,581.91,1035.76,582.81Z" transform="translate(-848.92 -427.92)"/><path class="cls-62" d="M1058.8,534a5.25,5.25,0,0,1,0-5.91C1058.79,530,1058.8,532,1058.8,534Z" transform="translate(-848.92 -427.92)"/><path class="cls-8" d="M920,523a2.92,2.92,0,0,1,3.89,0A3.17,3.17,0,0,1,920,523Z" transform="translate(-848.92 -427.92)"/><path class="cls-63" d="M954,568.17c0,1.94-.11,3.88-.17,5.82l-1-.07C953.42,572.05,951.52,569.66,954,568.17Z" transform="translate(-848.92 -427.92)"/><path class="cls-64" d="M974,508l0-3.92c1.87,1.53,1.61,3.06,0,4.59A5,5,0,0,0,974,508Z" transform="translate(-848.92 -427.92)"/><path class="cls-65" d="M911,570.54l0-2.32c.87.24,2,.42,2,1.51C912.82,570.62,912.12,571.5,911,570.54Z" transform="translate(-848.92 -427.92)"/><path class="cls-60" d="M1013,567.94c-1.65,0-3.33-.23-4.89.57C1009.5,566.11,1011.22,566.73,1013,567.94Z" transform="translate(-848.92 -427.92)"/><path class="cls-8" d="M925.78,546v3.22C924.45,548.18,925.36,547.11,925.78,546Z" transform="translate(-848.92 -427.92)"/><path class="cls-66" d="M998.14,540.9c-3.42-1.33-6.39-3.19-7.12-7.14-.69-3.75-.23-7.33,2.9-9.91,3.54-2.93,7.86-2,11.91-1.79,1.9.11,1.14,2.11,1.15,3.28.07,5.15,0,10.3,0,15.45A13.28,13.28,0,0,1,998.14,540.9Z" transform="translate(-848.92 -427.92)"/><path class="cls-67" d="M1015.14,554.28c-.1.89-.2,1.78-.31,2.66-1.34-1.39-.8-3.14-.81-4.74,0-11.38,0-22.76,1.12-34.13Z" transform="translate(-848.92 -427.92)"/><path class="cls-68" d="M1009,562.78l-23.68.32A1.2,1.2,0,0,1,984,562h5a8.33,8.33,0,0,1,6,0h8a7.93,7.93,0,0,1,6,0A4.68,4.68,0,0,0,1009,562.78Z" transform="translate(-848.92 -427.92)"/><path class="cls-69" d="M991,556h12C999,556.94,995,558.5,991,556Z" transform="translate(-848.92 -427.92)"/><path class="cls-70" d="M1007,546a2.65,2.65,0,0,1-3,0c-1-3.36,1.84-2.46,3.38-3Z" transform="translate(-848.92 -427.92)"/><path class="cls-71" d="M998.14,540.9l8.82-.11c-2.75,2.27-5.89,1-8.89,1-.05,0-.16-.27-.15-.41A1.81,1.81,0,0,1,998.14,540.9Z" transform="translate(-848.92 -427.92)"/><path class="cls-72" d="M1009,562l-6,0A4.45,4.45,0,0,1,1009,562Z" transform="translate(-848.92 -427.92)"/><path class="cls-72" d="M995,562h-6A4.54,4.54,0,0,1,995,562Z" transform="translate(-848.92 -427.92)"/><path class="cls-73" d="M928.15,548q-.1-10.46-.2-20.92c2,.11,1,1.64,1,2.44.1,6.16.06,12.32.06,18.49C928.72,548.36,928.43,548.38,928.15,548Z" transform="translate(-848.92 -427.92)"/><path class="cls-30" d="M914.72,548H914V528.24h.73Z" transform="translate(-848.92 -427.92)"/><path class="cls-74" d="M958.13,526l-.27,20a55,55,0,0,1-.11-20.86A1.89,1.89,0,0,1,958.13,526Z" transform="translate(-848.92 -427.92)"/><path class="cls-75" d="M936.86,531v16a2.13,2.13,0,0,1-.9-2,43.43,43.43,0,0,1,0-14h0C936.3,530.56,936.58,530.55,936.86,531Z" transform="translate(-848.92 -427.92)"/><path class="cls-76" d="M936,531q0,7,0,14A21.27,21.27,0,0,1,936,531Z" transform="translate(-848.92 -427.92)"/><path class="cls-68" d="M928.15,548H929l6.26.08A5.36,5.36,0,0,1,928.15,548Z" transform="translate(-848.92 -427.92)"/><path class="cls-77" d="M920.23,516.21h6.13C923.32,517.19,921.71,517.13,920.23,516.21Z" transform="translate(-848.92 -427.92)"/><path class="cls-78" d="M936.86,531H936c.3-1.69-.92-3.8,1.36-4.94C937.21,527.71,937,529.36,936.86,531Z" transform="translate(-848.92 -427.92)"/><path class="cls-79" d="M891,535c1.92,1.67.68,3.86,1,5.8-5.6,3.07-11.51,1.08-17.3,1-1.2-2-2.52-4.07-.57-6.39C879.66,533,885.29,532.54,891,535Z" transform="translate(-848.92 -427.92)"/><path class="cls-80" d="M874.65,541.88c5.67-1.93,11.56-.19,17.3-1a3,3,0,0,1-2,2.17c-4,1.8-8.07.83-12.14.81-1-.24-1.36-1.06-1.86-1.79Z" transform="translate(-848.92 -427.92)"/><path class="cls-81" d="M876,542l1,1c3.91,1.41,8.08-.35,12,1-4.86,2.56-10.26-.36-15.31,1.86C873.29,543.54,876.61,544,876,542Z" transform="translate(-848.92 -427.92)"/><path class="cls-68" d="M891,535l-16.92.46c.4-1.61,1.71-1.46,2.92-1.51a16,16,0,0,1,14,0Z" transform="translate(-848.92 -427.92)"/><path class="cls-77" d="M878,529c4.52-2.1,9.24-.41,13.87-.77-1.49,1.2-3.24.57-4.87.77A17.82,17.82,0,0,1,878,529Z" transform="translate(-848.92 -427.92)"/><path class="cls-59" d="M881.72,514.76H869v-.48h12.72Z" transform="translate(-848.92 -427.92)"/><path class="cls-82" d="M891,534l-14,0v-1a21.53,21.53,0,0,1,14,0Z" transform="translate(-848.92 -427.92)"/><path class="cls-83" d="M891,533H877v-1a41.13,41.13,0,0,1,14,0Z" transform="translate(-848.92 -427.92)"/><path class="cls-84" d="M891,532H877A20.89,20.89,0,0,1,891,532Z" transform="translate(-848.92 -427.92)"/><path class="cls-85" d="M889,544c-4-.51-8.15,1.08-12-1h13Z" transform="translate(-848.92 -427.92)"/><path class="cls-86" d="M878,529h9A9,9,0,0,1,878,529Z" transform="translate(-848.92 -427.92)"/><path class="cls-77" d="M1026,539a2.81,2.81,0,0,1,3-3c.07,1.42.14,2.84.22,4.48Z" transform="translate(-848.92 -427.92)"/><path class="cls-87" d="M1036,541.26c1.89,1,4.37,0,6.08,1.71C1040,542.44,1037.29,544.42,1036,541.26Z" transform="translate(-848.92 -427.92)"/><path class="cls-88" d="M1051.82,534c0-2,0-3.93,0-5.89C1053.64,530,1053.61,532,1051.82,534Z" transform="translate(-848.92 -427.92)"/><path class="cls-89" d="M971.76,518.07v24.87h-1.1V518.06Z" transform="translate(-848.92 -427.92)"/><path class="cls-90" d="M1028,531.32c-.18,1.2.16,3.07-1.68,2.86-1.62-.18-1.3-2-1.3-3.26s-.17-2.65,1.41-2.62C1028.37,528.33,1027.84,530.1,1028,531.32Z" transform="translate(-848.92 -427.92)"/><path class="cls-91" d="M975,574.39c.39,2.25-1.1,2.55-2.93,2.58a3.75,3.75,0,0,1-4-3.41c-.34-2.08,1.4-2.54,3.23-2.59C973.7,570.9,975.17,571.63,975,574.39Z" transform="translate(-848.92 -427.92)"/><path class="cls-92" d="M1006.07,572l1,0c1.25,1.36,1.94,2.85,1,4.69l-.18,1.44C1005.36,576.72,1005.46,574.44,1006.07,572Z" transform="translate(-848.92 -427.92)"/><path class="cls-93" d="M1008.12,576.74c0-1.65-1.91-2.87-1-4.69,2-.78,3.63-3.45,6.09-1a3.32,3.32,0,0,1,.38,4.52C1012.18,577.74,1010,576.66,1008.12,576.74Z" transform="translate(-848.92 -427.92)"/><path class="cls-94" d="M961,531v14A20.89,20.89,0,0,1,961,531Z" transform="translate(-848.92 -427.92)"/><path class="cls-95" d="M990.88,569c.12,1.73,1.54,3.69-.87,5C990.25,572.35,989.4,570.49,990.88,569Z" transform="translate(-848.92 -427.92)"/></svg>