<svg id="Layer_1" data-name="Layer 1" xmlns="http://www.w3.org/2000/svg" viewBox="0 0 225.19 225.19"><defs><style>.cls-1{fill:#afceda;}.cls-2{fill:#f1f2f8;}.cls-3{fill:#adcfdb;}.cls-4{fill:#b3ccdd;}.cls-5{fill:#b0ced7;}.cls-6{fill:#aed0d9;}.cls-7{fill:#ecf5fa;}.cls-8{fill:#afcfd7;}.cls-9{fill:#b2cdd9;}.cls-10{fill:#b4cdd6;}.cls-11{fill:#ebf6f8;}.cls-12{fill:#b2cfd6;}.cls-13{fill:#e9f6f9;}.cls-14{fill:#b0cedb;}.cls-15{fill:#b7ced6;}.cls-16{fill:#b1cddb;}.cls-17{fill:#accfdb;}.cls-18{fill:#b0cddc;}.cls-19{fill:#accfde;}.cls-20{fill:#afcddc;}.cls-21{fill:#aecfda;}.cls-22{fill:#ecf8fa;}.cls-23{fill:#b3cad4;}.cls-24{fill:#eff9fd;}.cls-25{fill:#b0cdde;}.cls-26{fill:#aad1d8;}.cls-27{fill:#acd0d8;}.cls-28{fill:#afccdc;}.cls-29{fill:#b3cad2;}.cls-30{fill:#abd0d8;}.cls-31{fill:#aecfd7;}.cls-32{fill:#eff6fb;}.cls-33{fill:#bcccd1;}.cls-34{fill:#abd0d7;}.cls-35{fill:#abd0da;}.cls-36{fill:#b2ced4;}.cls-37{fill:#acd0d7;}.cls-38{fill:#b0cddd;}.cls-39{fill:#accfdc;}.cls-40{fill:#add1d8;}.cls-41{fill:#aecfd4;}.cls-42{fill:#a9ced0;}.cls-43{fill:#b2cdd8;}.cls-44{fill:#b3cdd9;}.cls-45{fill:#e4f0f6;}.cls-46{fill:#afcede;}.cls-47{fill:#b5cbd0;}.cls-48{fill:#baccd7;}.cls-49{fill:#aacfdc;}.cls-50{fill:#f7f7fe;}.cls-51{fill:#bad1d9;}.cls-52{fill:#b3c8cd;}.cls-53{fill:#b1d1db;}.cls-54{fill:#b1ced8;}.cls-55{fill:#b3c9d1;}.cls-56{fill:#bccdd8;}.cls-57{fill:#b2cfd5;}.cls-58{fill:#f0f8fa;}.cls-59{fill:#bcd0d8;}.cls-60{fill:#b0cadc;}.cls-61{fill:#b6d2db;}.cls-62{fill:#bfcdd9;}.cls-63{fill:#f2f5f4;}.cls-64{fill:#b3cdd5;}.cls-65{fill:#a9cfd6;}.cls-66{fill:#b0cdd4;}.cls-67{fill:#c1ccd3;}.cls-68{fill:#aecfe4;}.cls-69{fill:#c0cdd4;}.cls-70{fill:#a6d0d5;}.cls-71{fill:#bdcbcd;}.cls-72{fill:#b1c9d1;}.cls-73{fill:#adcacf;}.cls-74{fill:#eaf4f8;}.cls-75{fill:#b2cdd3;}.cls-76{fill:#aeccd1;}.cls-77{fill:#eff0f6;}.cls-78{fill:#bdd3dc;}.cls-79{fill:#b3cde0;}.cls-80{fill:#b3d0df;}.cls-81{fill:#faf7fd;}.cls-82{fill:#b4cce0;}.cls-83{fill:#b4d2de;}.cls-84{fill:#e0ecf3;}.cls-85{fill:#b4cddb;}.cls-86{fill:#b4cfdd;}.cls-87{fill:#b8d2d7;}.cls-88{fill:#b4d3df;}.cls-89{fill:#b6cfdd;}.cls-90{fill:#b2cad1;}.cls-91{fill:#a8cfd6;}.cls-92{fill:#ebf3f5;}.cls-93{fill:#a8d0de;}.cls-94{fill:#adc7d0;}.cls-95{fill:#b6d2dc;}.cls-96{fill:#aecad6;}.cls-97{fill:#abc1ca;}.cls-98{fill:#b3c8cf;}.cls-99{fill:#b0d3de;}.cls-100{fill:#bacce2;}.cls-101{fill:#b5d1e3;}.cls-102{fill:#a9c8d1;}.cls-103{fill:#b7cdd7;}.cls-104{fill:#eaf3f8;}.cls-105{fill:#b8d1d7;}.cls-106{fill:#b5cfda;}.cls-107{fill:#b7d0d9;}.cls-108{fill:#b6cad2;}.cls-109{fill:#ecfafe;}.cls-110{fill:#acc9d2;}.cls-111{fill:#b4d1dd;}.cls-112{fill:#b4d1df;}.cls-113{fill:#a8cad6;}.cls-114{fill:#c2cfd4;}.cls-115{fill:#e6f4f8;}.cls-116{fill:#b6cedb;}.cls-117{fill:#c5d1d4;}.cls-118{fill:#e9f1f6;}.cls-119{fill:#b8ccd2;}.cls-120{fill:#f1f4f8;}.cls-121{fill:#b7ccd4;}.cls-122{fill:#e7f7fb;}.cls-123{fill:#f4f8fd;}.cls-124{fill:#f8f8fe;}.cls-125{fill:#bbd2d7;}.cls-126{fill:#b4c9d0;}.cls-127{fill:#eaf5fa;}.cls-128{fill:#f1f2f9;}.cls-129{fill:#e5f5f5;}.cls-130{fill:#b5d2dc;}.cls-131{fill:#bbcfd4;}.cls-132{fill:#b7cbd5;}.cls-133{fill:#f4f1fa;}.cls-134{fill:#f0f3f8;}.cls-135{fill:#b6cbcf;}.cls-136{fill:#b8c5ca;}.cls-137{fill:#f2f1f4;}.cls-138{fill:#f4f7f4;}.cls-139{fill:#ecf3f1;}.cls-140{fill:#f2fbfd;}.cls-141{fill:#ecf0f1;}.cls-142{fill:#b8ced3;}.cls-143{fill:#accfd7;}.cls-144{fill:#a9d0de;}.cls-145{fill:#a8cbd0;}.cls-146{fill:#b6cdd6;}.cls-147{fill:#edf8f9;}.cls-148{fill:#b4cbd1;}.cls-149{fill:#b0d2d7;}.cls-150{fill:#ebf6f5;}.cls-151{fill:#b0d1e2;}.cls-152{fill:#bed2d9;}.cls-153{fill:#eaf0f2;}.cls-154{fill:#abcada;}.cls-155{fill:#e5f2f6;}.cls-156{fill:#f5f5f3;}.cls-157{fill:#e6f1f6;}.cls-158{fill:#b2c9d5;}.cls-159{fill:#c2d2ce;}.cls-160{fill:#f4e9f2;}.cls-161{fill:#bed8de;}.cls-162{fill:#e6e8ef;}.cls-163{fill:#f1fafc;}.cls-164{fill:#e6f3f8;}.cls-165{fill:#aacad8;}.cls-166{fill:#f6f4ee;}.cls-167{fill:#bdd8dd;}.cls-168{fill:#e9f2f6;}.cls-169{fill:#edf6f8;}.cls-170{fill:#b4cdd8;}.cls-171{fill:#e3f7fb;}.cls-172{fill:#b1d2dd;}.cls-173{fill:#bacdd5;}.cls-174{fill:#b7cdd6;}.cls-175{fill:#f2ecf2;}.cls-176{fill:#b9c6ce;}.cls-177{fill:#eef1f9;}.cls-178{fill:#c2d1d7;}.cls-179{fill:#b5cad1;}.cls-180{fill:#c5c9d0;}.cls-181{fill:#f9f5fd;}.cls-182{fill:#b1d2d9;}.cls-183{fill:#edfafc;}.cls-184{fill:#f4ebf0;}.cls-185{fill:#e5eef4;}.cls-186{fill:#b2c4c9;}.cls-187{fill:#fdfdfa;}.cls-188{fill:#f2fafc;}.cls-189{fill:#eefcfe;}.cls-190{fill:#aecfdb;}.cls-191{fill:#abcbd5;}.cls-192{fill:#b2cdd7;}.cls-193{fill:#f0f3f9;}.cls-194{fill:#acd4dd;}.cls-195{fill:#b5ccd4;}.cls-196{fill:#f8fcfe;}.cls-197{fill:#f0f4f9;}.cls-198{fill:#f4f9f8;}.cls-199{fill:#f0f0ec;}.cls-200{fill:#b1d1da;}.cls-201{fill:#abccd3;}.cls-202{fill:#afcfd9;}.cls-203{fill:#bacfcd;}.cls-204{fill:#ecf4f8;}.cls-205{fill:#e8e9f3;}.cls-206{fill:#d1d9d5;}.cls-207{fill:#eff0f0;}.cls-208{fill:#f6f1fa;}.cls-209{fill:#bcc9c1;}.cls-210{fill:#eef5fb;}.cls-211{fill:#b2cfd7;}.cls-212{fill:#edf1f3;}.cls-213{fill:#b7c9c6;}.cls-214{fill:#b0cdda;}.cls-215{fill:#edf2f2;}.cls-216{fill:#b6ced5;}.cls-217{fill:#eefaf9;}.cls-218{fill:#eef5f3;}.cls-219{fill:#c0ccc8;}.cls-220{fill:#fcf5fb;}.cls-221{fill:#e7f4fa;}.cls-222{fill:#ecf2f6;}.cls-223{fill:#aec7cd;}.cls-224{fill:#b6cdd9;}.cls-225{fill:#adc7ca;}.cls-226{fill:#eefcfd;}.cls-227{fill:#e5f0f3;}.cls-228{fill:#bcccd5;}.cls-229{fill:#a9c9da;}.cls-230{fill:#b8cfdc;}.cls-231{fill:#bcd0d6;}.cls-232{fill:#b4c3cb;}.cls-233{fill:#b1cfdf;}.cls-234{fill:#b0cad8;}.cls-235{fill:#aed0d1;}.cls-236{fill:#bdd1d7;}.cls-237{fill:#aed1d4;}.cls-238{fill:#b2cdda;}.cls-239{fill:#bcced5;}.cls-240{fill:#ecf6f7;}.cls-241{fill:#b1c4cb;}.cls-242{fill:#f9f1eb;}.cls-243{fill:#eff8f8;}.cls-244{fill:#d7dadf;}.cls-245{fill:#b3cbd5;}.cls-246{fill:#f1f8f9;}.cls-247{fill:#b2ced7;}.cls-248{fill:#e9f3f7;}.cls-249{fill:#abcbce;}.cls-250{fill:#afced7;}.cls-251{fill:#b9cdda;}.cls-252{fill:#f6fefe;}.cls-253{fill:#b4cdd0;}.cls-254{fill:#b1ccdd;}.cls-255{fill:#b4d3dd;}.cls-256{fill:#bcccd7;}.cls-257{fill:#a9d2da;}.cls-258{fill:#b7c9d9;}.cls-259{fill:#ddeff3;}.cls-260{fill:#dfecf1;}.cls-261{fill:#b4cbdd;}.cls-262{fill:#adcfdc;}.cls-263{fill:#abcfdc;}.cls-264{fill:#b3d4db;}.cls-265{fill:#b1ced6;}.cls-266{fill:#ebf4f9;}.cls-267{fill:#a6c6d1;}.cls-268{fill:#b3d1dd;}.cls-269{fill:#b0cadb;}.cls-270{fill:#b6d1d8;}.cls-271{fill:#e8eeee;}.cls-272{fill:#afd4de;}.cls-273{fill:#acccd0;}.cls-274{fill:#b1d4df;}.cls-275{fill:#b8cae0;}.cls-276{fill:#eaf5f8;}.cls-277{fill:#b4cdd4;}.cls-278{fill:#abcfdd;}.cls-279{fill:#b2cbd9;}.cls-280{fill:#b9cdd5;}.cls-281{fill:#b8cdd2;}.cls-282{fill:#b5ceda;}.cls-283{fill:#b4cfd4;}.cls-284{fill:#b2cee4;}.cls-285{fill:#e4f5f3;}.cls-286{fill:#b3d0e6;}.cls-287{fill:#b5cedd;}.cls-288{fill:#aec8d6;}.cls-289{fill:#adc9cf;}.cls-290{fill:#fcf6ef;}.cls-291{fill:#ebf6f7;}.cls-292{fill:#afcfdd;}.cls-293{fill:#b5cbda;}.cls-294{fill:#f5f3e8;}.cls-295{fill:#ecf3f3;}.cls-296{fill:#c1d3db;}.cls-297{fill:#aeccd2;}.cls-298{fill:#e9f0f1;}.cls-299{fill:#b9d0d9;}.cls-300{fill:#a3d0dd;}.cls-301{fill:#bbced9;}.cls-302{fill:#b7c8cf;}.cls-303{fill:#b0c8d4;}.cls-304{fill:#bacfdb;}.cls-305{fill:#fbf7fa;}.cls-306{fill:#a7cce5;}.cls-307{fill:#b7cadc;}.cls-308{fill:#aad1ec;}.cls-309{fill:#b5d3df;}.cls-310{fill:#f2f5f8;}.cls-311{fill:#b0ceda;}.cls-312{fill:#bdcad5;}.cls-313{fill:#eefbfd;}.cls-314{fill:#fdf3f3;}.cls-315{fill:#f0f8fc;}.cls-316{fill:#dbf0fa;}.cls-317{fill:#e4f3f6;}.cls-318{fill:#ecf5fb;}.cls-319{fill:#f4f7fc;}</style></defs><title>adsadssa</title><path class="cls-1" d="M849,428q110.5,0,221-.1c3.42,0,4.1.68,4.1,4.1q-.19,108.5,0,217c0,3.42-.68,4.1-4.1,4.1q-108.5-.2-217,0c-3.42,0-4.1-.68-4.1-4.1Q849.1,538.5,849,428Z" transform="translate(-848.9 -427.9)"/><path class="cls-2" d="M894.88,508c1.62-3.36,2.58-7,4.94-10,3.57-2.62,3.72.28,4.23,2.61-.17,1.76-1.31,3.16-1.76,4.82a10.31,10.31,0,0,0-1.77,5.17,8.81,8.81,0,0,1-.59,4.16c-1.14,2.76-2.32,5.5-.33,8.39a4.22,4.22,0,0,1,.54,1.42,3.71,3.71,0,0,1-2.84,4.28,4,4,0,0,1-3.13-1,9,9,0,0,1-2.62-4.38C890.83,517.86,889.87,512.27,894.88,508Z" transform="translate(-848.9 -427.9)"/><path class="cls-3" d="M891,546v3c-2.6,1.94-4.43,0-6.39-1.26a4,4,0,0,1-.86-1.35,7.7,7.7,0,0,1,.19-6.1c.6-1.37,3.67-2.12,1.06-4.29h0q-3.75-4,0-8h0a3.34,3.34,0,0,1,3.08-1.15,10.83,10.83,0,0,1,2.28.8c.79.06,1.54-.29,2.34-.28a3,3,0,0,1,1.26.44c2.3,1.5,6,2.26,3.25,6.35-1.25,1.07-3.07.34-4.33,1.37s-1.36,2.31-.73,3.74a5.78,5.78,0,0,1,.31,1.29C892.79,542.6,893.8,544.81,891,546Z" transform="translate(-848.9 -427.9)"/><path class="cls-4" d="M1025,558c.77,4.82-1.33,6.25-6.07,6.16-3.27-.06-7.27-2.07-9.93,1.84a1.35,1.35,0,0,1,0,1.42c-.78.88-1.61,1.28-2.63.35-.91-1.15-.77-2.52-.81-3.85a8.13,8.13,0,0,1,.49-3.31c1.08-1.35,1.75-3.13,3.74-3.5C1014.84,557.36,1020,556,1025,558Z" transform="translate(-848.9 -427.9)"/><path class="cls-5" d="M936,498c.29-.57.54-1.17.87-1.72.83-1.39-2.84-3.13,0-4,2.25-.69,5.14-1.11,7.16.47,1.77,1.38,1.21,3.63-.14,5.32-1.06,1.31-.21,2.82-.42,4-1.71.78-2.46-3-3.77-.62-.9,1.59,1.36,1.8,2.3,2.54,1.17,1.16,2.4,2.28,2.45,4.11-.7,2.09-2.15,1.36-3.52,1-1.87-.95-3-2.86-5-3.63a3.5,3.5,0,0,1-2.42-3.09A18.75,18.75,0,0,1,936,498Z" transform="translate(-848.9 -427.9)"/><path class="cls-6" d="M945,596c.18,2.53-.58,4.19-3.53,4-1.53-.09-3,.07-3.47,2-2.14,1-4.37,2.08-4-2,3.74,0,2.84-2.83,3-5-.24-2,1.29-2.13,2.65-2.43a11.06,11.06,0,0,0,5.51-1.69c5.31-.09,10.73-1.68,15.84,1.12v1c-2.07,3.07-5.46.82-8,2h0C950.46,596.35,947.54,594.65,945,596Z" transform="translate(-848.9 -427.9)"/><path class="cls-7" d="M932,588.11l-1-.11a3.25,3.25,0,0,1-.74-1.44c0-2.59,2.06-3,3.82-3.8,2-.5,3.88.51,5.82.76A40.05,40.05,0,0,0,956,584c1.81-.26,3.54-.73,5.12.6a2.79,2.79,0,0,1,.38,3.26,4.79,4.79,0,0,1-2.9,1.5c-5.47.3-11.09-1-16.39,1.36a7.18,7.18,0,0,1-2,1.12,4.13,4.13,0,0,1-3.55-.71C935.45,589.62,933.54,589.16,932,588.11Z" transform="translate(-848.9 -427.9)"/><path class="cls-8" d="M894.88,508A48.3,48.3,0,0,0,893,524a2.8,2.8,0,0,1-1.45,1.61c-1.2.85-2.37,1.21-3.46-.16a7.23,7.23,0,0,1-.73-2.45c0-4.73-1.91-9.7,1.67-14l2.58-5.57C892.21,505.63,891.91,507.89,894.88,508Z" transform="translate(-848.9 -427.9)"/><path class="cls-9" d="M985,530c2.07-2.75,4.93-2.83,7.22-1,1.44,1.13,1.46,3.66-.88,4.83-1.06.53-2.1.88-2.34,2.19,1.55,1.68,0,3.07-.42,4.56a15.68,15.68,0,0,1-1.21,3.34c-1.29,1.07-2.26.06-3.31-.48a4.93,4.93,0,0,1-1.93-3c-.33-1.72,1-3,1.22-4.59,0-.45.1-.9.13-1.36s0-.92,0-1.39A3.86,3.86,0,0,1,985,530Z" transform="translate(-848.9 -427.9)"/><path class="cls-10" d="M988,602c-4.89-1-6.91-4.59-8-9-1-1.28-.31-2.76-.5-4.13.16-1.73-2.12-3.5.08-5.2,1-.7,2.21-.57,3.34-.74,1.33.12,2.75,0,3.62,1.36a2.38,2.38,0,0,1-.95,2.87c-2,.88.35,1.86,0,2.77.43,1.41-.45,3.2,1.25,4.24a4.77,4.77,0,0,1,.66,1.19,23.46,23.46,0,0,1,1.14,2.56A3.69,3.69,0,0,1,988,602Z" transform="translate(-848.9 -427.9)"/><path class="cls-11" d="M901,559l-1.08-1.84c-.89-2.1-1.08-4.51-2.85-6.2l-1.29-3a1.89,1.89,0,0,1-.24-1.91c-.17-.33,1.14-.3.22-.73-.34-.16-.86,0-1.28-.27a15.5,15.5,0,0,1-2.49-5.37,3.61,3.61,0,0,1,.46-3.09,4,4,0,0,1,4.47-1.25c1.71,1,2,3.06,3.25,4.4,1.13,4.69,2.62,9.29,4,13.91a13.58,13.58,0,0,1-1.2,4.51A1.69,1.69,0,0,1,901,559Z" transform="translate(-848.9 -427.9)"/><path class="cls-12" d="M985,534v1c-1.17,1.07-2.36,2.08-4.1,1.94-2.61-1.1-5.25-1.94-8.12-1.05-4.06.34-7.55-1.68-11.3-2.67a3.44,3.44,0,0,1-2-2.21,2.66,2.66,0,0,1,.86-2.69L961,528c3-.64,5.37,1.17,8,2l.67.06a9.62,9.62,0,0,0,4.1.24c1.32-.29,2.43.56,3.68.65C980.3,531.16,983.64,530.13,985,534Z" transform="translate(-848.9 -427.9)"/><path class="cls-13" d="M1030,573.06a8.81,8.81,0,0,0,.89,0c2.06,1.23,2.78,2.88,1.63,5.13a5.81,5.81,0,0,1-2.74,2.07c-7.53,1.4-14.61-1.4-21.88-2.39l-.9-.2c-.91-.68-2.32-.76-2.64-2.16-.16-1.79.87-2.75,2.37-3.39a4,4,0,0,1,2.23,0,4.18,4.18,0,0,1,1.28.69c2.11,2,4.75,1.68,7.32,1.69,1.65.11,3.34-.25,4.91.54,1-.12.47,3.07,2.31,1a24.31,24.31,0,0,1,1.72-1.79C1027.52,573.49,1028.81,573.43,1030,573.06Z" transform="translate(-848.9 -427.9)"/><path class="cls-14" d="M993,550c2.87-2.12-1.48-6,2-8,2.07.93,2,3.28,3.23,4.8.27,1.87,1.86,3.17,2.15,5-.06,2.87.78,5.83-.9,8.52a4.68,4.68,0,0,1-4.29,1.09,4.41,4.41,0,0,1-2.49-.91c-1.52-1.62-1.26-3.54-.9-5.46C992.83,553.53,994.55,552.16,993,550Z" transform="translate(-848.9 -427.9)"/><path class="cls-15" d="M1007.88,577.89c1.48-1.18,3.16-1,4.75-.46,5.67,1.83,11.48,1.66,17.3,1.49,1.13.08,2.27.1,3.07,1.09-.51,2.31-2.38,1.91-4,2a2.86,2.86,0,0,1-4,0A34.87,34.87,0,0,1,1007.88,577.89Z" transform="translate(-848.9 -427.9)"/><path class="cls-16" d="M889,509v15c-1.34,1-2.67,1.29-4,0,0-4,.17-7.92,0-11.86C884.77,508.83,886,508,889,509Z" transform="translate(-848.9 -427.9)"/><path class="cls-17" d="M901,482h2c2.51-1.58,4-.3,5.14,1.87.41,3,.93,6-.57,8.84a1,1,0,0,1-1.56.08c-6.09-.41-5-4.9-5-8.79A1.39,1.39,0,0,1,901,482Z" transform="translate(-848.9 -427.9)"/><path class="cls-18" d="M921,478c1.41-3.27,4.37-2.34,6.35-1.59,3,1.14,1.18,4.33,1.65,6.59a3.8,3.8,0,0,1-4.09,2.29,6.8,6.8,0,0,1-4.78-3.33A3.6,3.6,0,0,1,921,478Z" transform="translate(-848.9 -427.9)"/><path class="cls-19" d="M905,564a5.42,5.42,0,0,0,.53,1.38c1.5,2,2.64,4.49.25,6.06-2.72,1.78-4.39-.2-5.48-2.88-.87-2.16-4.83-3.19-2.3-6.56,1.8,1.73,4.16-.14,6.06,1A2.71,2.71,0,0,1,905,564Z" transform="translate(-848.9 -427.9)"/><path class="cls-20" d="M885,547l6,2c1.17,1.89,3.21,4,1.31,6.07-2.08,2.25-4.85.28-7.31-.07C882.35,552.33,882.32,549.67,885,547Z" transform="translate(-848.9 -427.9)"/><path class="cls-21" d="M955,513h2a2.1,2.1,0,0,1,0,3v8c-1.16,1.52-2.93,1.55-4.57,1.89a3.8,3.8,0,0,1-1.42-.21,3,3,0,0,1-1.59-2.17c0-1.29.54-2.5.47-3.79a16.81,16.81,0,0,1,.49-3.23C951.48,514.74,952.3,512.62,955,513Z" transform="translate(-848.9 -427.9)"/><path class="cls-5" d="M921,482c1.65,0,2.67,1.32,4,2a3.08,3.08,0,0,1,.8,3.5c-2.08,2.53-4.43.94-6.72.45-2.83-1.28-3.92-4.41-6.41-6.07A2.35,2.35,0,0,1,912,480c.21-1.86,1-2.91,3-2C918.23,477.49,919.25,480.29,921,482Z" transform="translate(-848.9 -427.9)"/><path class="cls-22" d="M929.06,496.75c.65,1.4,1.31,2.81,2,4.22a2,2,0,0,1,.46,1.3,2.5,2.5,0,0,1-1.63,2.06c-.62.12-1.91,0-.73,1.11.94.91,1.76,1.72,1.5,3.13a39.87,39.87,0,0,1-3.57,4.73,2.58,2.58,0,0,1-2.6-.95,3.85,3.85,0,0,1-.82-2,8.54,8.54,0,0,1,0-1.43c.92-3.28,2.07-6.59-1-9.44a3.44,3.44,0,0,1-.36-1.37,4.06,4.06,0,0,1,1.85-3,3.8,3.8,0,0,1,2.67-.69C928.06,494.67,928.19,496.07,929.06,496.75Z" transform="translate(-848.9 -427.9)"/><path class="cls-23" d="M905,564h-1c-1-1.39-3.73.79-4-2l2.07-1a3,3,0,0,1,2.77-1.1c2.51,1.24,5.28,1.6,8,2.23a3.27,3.27,0,0,1,1.1,1.12,5.6,5.6,0,0,1,.08,4.57c-1.24,1.49-2.32,3.15-4,4.22-2.37-.55-1.29-2.2-1.09-3.53C909.37,565.41,908.39,563.67,905,564Z" transform="translate(-848.9 -427.9)"/><path class="cls-24" d="M905,561.11l-2.88-.15L901,559l1-1c1.75-1.91,4.06-1.41,6.24-1.47a13.82,13.82,0,0,1,1.58.1,16.9,16.9,0,0,0,6,.9,9.34,9.34,0,0,1,4.34,1.24,2.91,2.91,0,0,1,1.07,1.05c.24,3-2.41,3.5-4.22,4.72-1.68.45-2.93-.35-4.08-1.42l.1-.25a1.48,1.48,0,0,1-.45-1.73c-.45.53-.07-.86.34-.39s.48-.1.2,0c-1.23.32-2.4.91-3.73.73C907.92,561.42,906.5,560.45,905,561.11Z" transform="translate(-848.9 -427.9)"/><path class="cls-25" d="M955,513l-4,4c-1.63-1.28-3.54-2.45-2-5,0-2.1.11-4,3-4C955.7,508.11,954.83,510.85,955,513Z" transform="translate(-848.9 -427.9)"/><path class="cls-26" d="M977,532h-4c-1-1.36-3-.63-4-2h0v-4a7.78,7.78,0,0,1,8,0v4A1.35,1.35,0,0,1,977,532Z" transform="translate(-848.9 -427.9)"/><path class="cls-27" d="M1025,582h4a7.22,7.22,0,0,0,.34.92c.79,1.52,4.05,1.36,3.14,3.79-.8,2.15-3.17,1.23-4.87,1.18-3-.09-2.52-2.47-2.6-4.4C1025,583,1025,582.5,1025,582Z" transform="translate(-848.9 -427.9)"/><path class="cls-5" d="M885,547v8c-2.24,1.57-3.71,1.08-3.92-1.72-.19-2.41-.07-4.85-.08-7.28,1.76-1.37,2.88-.19,4,1Z" transform="translate(-848.9 -427.9)"/><path class="cls-28" d="M907,484c-1.11-1.11-2.22-2.22-4-2,.1-6.4.65-6.86,6-5-1.31,1.83,1.17,2,1.39,3.13a4.2,4.2,0,0,1-.2,2.9C909.4,484.27,908.48,485,907,484Z" transform="translate(-848.9 -427.9)"/><path class="cls-29" d="M983,584c-1,1.19-2,.4-3,0-1.33.66-2.3,2.06-4,2a17.3,17.3,0,0,1-9.85,2c-.62-.71-.22-1.3.22-1.89,1.74-1.61,4.21-1.91,6-3.36a12,12,0,0,1,3.84-1.36c1.53-.45,2.94-1.38,4.64-1.12a3.55,3.55,0,0,1,1.82,1.08C983.27,582.2,983.68,583,983,584Z" transform="translate(-848.9 -427.9)"/><path class="cls-30" d="M1005,588c0,2.16.27,4.42-.25,6.46-.59,2.29-2,4-3.75.54-2.35-2-1.57-4.42-.81-6.81a3.23,3.23,0,0,1,1.45-1.13A3,3,0,0,1,1005,588Z" transform="translate(-848.9 -427.9)"/><path class="cls-31" d="M957,516v-3a17.2,17.2,0,0,1,.3-3.46,1.59,1.59,0,0,1,2.72-.9c1.77,1.7,1.05,4.1.85,6.16C960.58,517.73,958.41,515.92,957,516Z" transform="translate(-848.9 -427.9)"/><path class="cls-32" d="M1009,573h-2a1.83,1.83,0,0,1-.64-1.74,3.18,3.18,0,0,1,.65-1.18,6.78,6.78,0,0,1,2.37-1.37,10.52,10.52,0,0,1,2.1-.19,15.42,15.42,0,0,0,5.64-.79,4.5,4.5,0,0,1,2.24.27c1.57,1.57,4.09.39,5.65,2a9.4,9.4,0,0,1,.2.92c-.87,1.7-2.72,1.69-4.15,2.39a25.12,25.12,0,0,1-4.06.21C1014.32,573.39,1011.62,573.8,1009,573Z" transform="translate(-848.9 -427.9)"/><path class="cls-31" d="M901,482v2c-1.41-.08-3.57,1.73-3.87-1.2-.2-2.06-.91-4.45.84-6.15a1.57,1.57,0,0,1,2.71.9A26.2,26.2,0,0,1,901,482Z" transform="translate(-848.9 -427.9)"/><path class="cls-33" d="M937,590l3.07.79c4.84-2.33,10-.8,15-1.34,2-.09,4.06-1.08,5.89.54,0,.68,0,1.35,0,2-5.33.52-10.78-1.1-16,1-2.24,1.22-4.45.1-6.63-.19C936.83,592.6,936.14,591.56,937,590Z" transform="translate(-848.9 -427.9)"/><path class="cls-9" d="M925,488v-4l4-1c0,3,0,6,0,9a3.1,3.1,0,0,1-4.26.27A3.15,3.15,0,0,1,925,488Z" transform="translate(-848.9 -427.9)"/><path class="cls-34" d="M881,524V509h2v15A1.39,1.39,0,0,1,881,524Z" transform="translate(-848.9 -427.9)"/><path class="cls-35" d="M1025,558h-16a1.45,1.45,0,0,1,0-2c4,0,8,0,12,0C1022.62,556,1024.42,555.81,1025,558Z" transform="translate(-848.9 -427.9)"/><path class="cls-36" d="M885,528v8c-3,.28-4.06-1-4.06-4S882.05,527.72,885,528Z" transform="translate(-848.9 -427.9)"/><path class="cls-37" d="M960,603a28,28,0,0,1-14,0A28,28,0,0,1,960,603Z" transform="translate(-848.9 -427.9)"/><path class="cls-38" d="M935,596c-.93,2.64-3,2.27-4.82,1.5-1.45-.6-1.24-2.19-1-3.47.4-2.26,2.28-1.94,3.87-2,.66,0,1.31,0,2,0a2.22,2.22,0,0,1,.75,1.13A2.24,2.24,0,0,1,935,595h0c-1.44,1.07-3.13.07-4.32.57C931.9,595.68,933.52,595,935,596Z" transform="translate(-848.9 -427.9)"/><path class="cls-39" d="M1041,576.05c-.23,1.21.44,3.27-1.32,3.21-2.13-.08-2.66-2.14-2.65-4.09,0-1.34.08-2.92,1.9-2.85C1041.44,572.41,1040.79,574.54,1041,576.05Z" transform="translate(-848.9 -427.9)"/><path class="cls-31" d="M934,600c.51,2.31,2.37,1.92,4,2-2,3.53-5.15,2-7.77,1.49-1.43-.27-1.51-2.23-.05-3C931.25,599.93,932.71,600.13,934,600Z" transform="translate(-848.9 -427.9)"/><path class="cls-40" d="M997,547c-2.12-1.09-2-3.06-2-5,.51-2.32,2.38-1.92,4-2,1.5,1.19,1.5,3,1.84,4.63a3.05,3.05,0,0,1-1.19,2.53A2.37,2.37,0,0,1,997,547Z" transform="translate(-848.9 -427.9)"/><path class="cls-41" d="M1001,588v7l-4,1c-2.85-3,0-5.46.79-8.11a2.77,2.77,0,0,1,1.89-1.35C1000.56,586.64,1001.2,586.94,1001,588Z" transform="translate(-848.9 -427.9)"/><path class="cls-42" d="M993,554v6c.61,1.08,0,1.81-.74,2.48a3.15,3.15,0,0,1-1.42.3,3,3,0,0,1-1.32-.59,3.44,3.44,0,0,1-.9-1.91,15.13,15.13,0,0,1,.23-4.79,5.27,5.27,0,0,1,2.07-3.35L992,551C993.31,551.67,994.1,552.52,993,554Z" transform="translate(-848.9 -427.9)"/><path class="cls-43" d="M949,512c.3,1.82,2.38,2.91,2,5a3,3,0,0,1,0,3,2.39,2.39,0,0,1-1.88.86,3,3,0,0,1-1.28-.51,37.05,37.05,0,0,0-3.42-6.47A1.9,1.9,0,0,1,945,512Z" transform="translate(-848.9 -427.9)"/><path class="cls-44" d="M885,547l-4-1v-6c1.33-1,2.67-1.25,4,0Z" transform="translate(-848.9 -427.9)"/><path class="cls-45" d="M903,501c-.45-1.66-.43-3.8-3.19-3l1.26-2.84h0l3.93-2c.54,1.08,1.82,1.44,2.41,2.47a3.29,3.29,0,0,1,.28,1.39,6.77,6.77,0,0,1-2.06,3.66,3,3,0,0,1-2,.65Z" transform="translate(-848.9 -427.9)"/><path class="cls-46" d="M885,540h-4c.14-2.53,3.86-1.48,4-4,1.51.18,3.7-.43,3.7,2S886.51,539.82,885,540Z" transform="translate(-848.9 -427.9)"/><path class="cls-12" d="M952,525.06c1.44-1.48,3.3-.94,5-1.06.71,2.82,2.42,1.64,4,1,.25.22.34.44.26.66s-.17.33-.25.33c0,.67,0,1.34,0,2h0a5.37,5.37,0,0,1-3.82,1.4C954.49,529.09,952.25,528.25,952,525.06Z" transform="translate(-848.9 -427.9)"/><path class="cls-46" d="M881,524h8v2a1.36,1.36,0,0,1,0,2h-4C884.86,525.48,881.14,526.53,881,524Z" transform="translate(-848.9 -427.9)"/><path class="cls-47" d="M1001,588l-1.16-1c-1.54-1.5-.32-3.13-.2-4.7.61-1.51,1-3.13,2.23-4.33a3.56,3.56,0,0,1,1.26-.63,2,2,0,0,1,1.88.69v2a2,2,0,0,1,.54,2c-2,1.53-1.13,4.74-3.56,6Z" transform="translate(-848.9 -427.9)"/><path class="cls-15" d="M1031.8,577.84c.4-1.73-.51-3.19-.93-4.76,1.29-.48,3-1.77,3.71.19s1.47,4.53-1.57,5.73A1.29,1.29,0,0,1,1031.8,577.84Z" transform="translate(-848.9 -427.9)"/><path class="cls-48" d="M1003,540l2,1a14.17,14.17,0,0,1,2.07,4.88,3.3,3.3,0,0,1-.61,2.17,2.46,2.46,0,0,1-2.1.63,3.45,3.45,0,0,1-1.3-.68c-.81-1.19-2.21-1.92-2.66-3.41C999.34,542,1001.22,541,1003,540Z" transform="translate(-848.9 -427.9)"/><path class="cls-49" d="M987,540c.66-1.34,1.33-2.67,2-4,4.75.82,4.92,1.33,2,6C989.88,540.91,987.94,541.47,987,540Z" transform="translate(-848.9 -427.9)"/><path class="cls-50" d="M987.9,547c.37,1,.73,2,1.09,3l-.21.67c-.57,1.39-1.31,2.6-3,2.84a2.28,2.28,0,0,1-1.4-.5,7.53,7.53,0,0,1-1.61-5,4,4,0,0,1,.63-1.47C985.11,544.92,986.66,544.64,987.9,547Z" transform="translate(-848.9 -427.9)"/><path class="cls-51" d="M935,593v-1c-.13-2-2.29-2.36-3-3.89a9.71,9.71,0,0,1,5,1.87c1.78,3.32,5.13,2.53,8,3-1.45,1.42-3.28.87-5,1C938.54,592.66,936.42,594.58,935,593Z" transform="translate(-848.9 -427.9)"/><path class="cls-52" d="M1018.92,569h-1.83c-1.89,1.18-4.19-.27-6.07.93l-2,.24a1.81,1.81,0,0,1-.24-2.3c1.4-1.2,3.11-.82,4.73-.91,2.49.33,5.29-1.56,7.49,1,1.41,0,2.88-.2,4,1A8.44,8.44,0,0,1,1018.92,569Z" transform="translate(-848.9 -427.9)"/><path class="cls-53" d="M921,482c-2.75-.21-3.79-3-6-4,2-3.77,4,1.32,6,0Z" transform="translate(-848.9 -427.9)"/><path class="cls-54" d="M977,532v-2h8v4C982.68,531.92,979.87,531.83,977,532Z" transform="translate(-848.9 -427.9)"/><path class="cls-55" d="M930.94,587.13q0,.43.06.87c-3.63.09-7.55.81-9-4a2.49,2.49,0,0,1,1.11-.87c2.11-.54,3.69.63,5.34,1.61A10.32,10.32,0,0,1,930.94,587.13Z" transform="translate(-848.9 -427.9)"/><path class="cls-56" d="M988,602l-1-4.09a3.72,3.72,0,0,1,1.71-1.4c1.46-.77,2.9-1,4.29.14a1,1,0,0,1,0,1.37C992.42,600.69,989.79,600.8,988,602Z" transform="translate(-848.9 -427.9)"/><path class="cls-57" d="M1021,568c-2.33-1-4.67-.21-7,0-1.4-1-3-.22-4.49-.57L1009,567v-1c3.25,0,6.51,0,9.76,0C1020.06,566,1021.6,565.82,1021,568Z" transform="translate(-848.9 -427.9)"/><path class="cls-58" d="M1021,572c1.17-1.24,2.75-.92,4.2-1.1a6.12,6.12,0,0,1,4.78,2.16c-.29,1.72-1.55,2-3,1.94a10.06,10.06,0,0,1-2.93-1C1023,573.38,1021.52,573.43,1021,572Z" transform="translate(-848.9 -427.9)"/><path class="cls-59" d="M993,598l-.1-1.21a2,2,0,0,1-.34-1.35c2-2.58,1.57-7.31,6.43-7.44.21,2.88-2.71,5-2,8Z" transform="translate(-848.9 -427.9)"/><path class="cls-60" d="M918,585c-.67,1.33-1.21,2.79-3,3-1-.78-1.18-2.09-2-3l2-2a2.73,2.73,0,0,1,2-1.84C920.94,581.48,918.34,583.54,918,585Z" transform="translate(-848.9 -427.9)"/><path class="cls-61" d="M917,582l-2,1-2-7,.55-.44a3.05,3.05,0,0,1,1.41,0,5,5,0,0,1,3.12,3.77A3.05,3.05,0,0,1,917,582Z" transform="translate(-848.9 -427.9)"/><path class="cls-62" d="M917,582v-2.87a1.62,1.62,0,0,1,1.17-.47,8.08,8.08,0,0,1,2.92,1.45c1.25,1,2.58,1.89,2.06,3.81L922,584l-4,1C916.05,584.53,919.55,582.26,917,582Z" transform="translate(-848.9 -427.9)"/><path class="cls-63" d="M967,587l-.88,1-2,0A2.82,2.82,0,0,1,961,588l0-2.91c.07-.22.15-.43.22-.65a3.28,3.28,0,0,1,3-1.34,3.85,3.85,0,0,1,1.31.45C966.47,584.54,967.84,585.33,967,587Z" transform="translate(-848.9 -427.9)"/><path class="cls-64" d="M977,526h-8C970.62,523.14,974,523.14,977,526Z" transform="translate(-848.9 -427.9)"/><path class="cls-65" d="M953,595c2.47-1.44,5.29-1.49,8-2,0,2.28-1.15,3.2-3.32,2.89C956.11,595.66,954.56,595.3,953,595Z" transform="translate(-848.9 -427.9)"/><path class="cls-66" d="M1002,588c1-2,.07-5,3-6a1.34,1.34,0,0,1,0,2c-.08,1.33,1.39,2.67,0,4Z" transform="translate(-848.9 -427.9)"/><path class="cls-67" d="M925,492l4,0c0,1.58,0,3.16.07,4.74A3.22,3.22,0,0,1,927,495c-1.57-.47-3.38-.09-4.75-1.31a1.68,1.68,0,0,1-.43-1.37C922.72,491,923.81,491.06,925,492Z" transform="translate(-848.9 -427.9)"/><path class="cls-68" d="M976,586c.85-1.64,2.31-2,4-2-1.35,1.33,1.72,2.65,0,4-.33.67-.67.67-1,0A3.43,3.43,0,0,1,976,586Z" transform="translate(-848.9 -427.9)"/><path class="cls-69" d="M945,512l0,2-.63.31c-2.53-.37-3.42-2.22-4-4.38a2.82,2.82,0,0,1,.14-1.38l.5-.5c1-.09,1.94.82,2.9,0,.34-.5.67-.49,1,0Z" transform="translate(-848.9 -427.9)"/><path class="cls-70" d="M987,540c1.62.08,3.49-.31,4,2a4.64,4.64,0,0,0-3,3.09c-.91.16-1.26-.18-1-1.09Z" transform="translate(-848.9 -427.9)"/><path class="cls-71" d="M895.9,546c0,.66-.07,1.32-.11,2H895c-1.88.39-1.86-1.28-2.46-2.27.06-1.54-.41-3-.36-4.58a2.16,2.16,0,0,1,.86-1.23c1.55,1.31,1.77,3.18,2.09,5A1.46,1.46,0,0,1,895.9,546Z" transform="translate(-848.9 -427.9)"/><path class="cls-72" d="M1006,548v-2a1.75,1.75,0,0,1,1.18-.51c1.52.18,1,1.8,1.82,2.51v6a1.18,1.18,0,0,1-1.39.2C1005.49,552.54,1005.27,550.4,1006,548Z" transform="translate(-848.9 -427.9)"/><path class="cls-73" d="M931.06,502c0-.34,0-.68,0-1l5-3c.64,2,.07,3.38-2,4A2,2,0,0,1,931.06,502Z" transform="translate(-848.9 -427.9)"/><path class="cls-74" d="M897.08,551c.69-.38,1.36-1.74,2.08,0a13.39,13.39,0,0,1,.77,6.17L898.1,555c-1-.42-.56-1.52-1.05-2.17Z" transform="translate(-848.9 -427.9)"/><path class="cls-75" d="M1008,554h1c0,.67,0,1.33,0,2s0,1.34,0,2a3.42,3.42,0,0,1-2,3c-2.12-2-1.73-4.34-.65-6.7A1.22,1.22,0,0,1,1008,554Z" transform="translate(-848.9 -427.9)"/><path class="cls-76" d="M1003,540c-1,1.55-2.23,3-2,5a.64.64,0,0,1-1,0c-1.41-1.45-.88-3.29-1-5Z" transform="translate(-848.9 -427.9)"/><path class="cls-77" d="M961,588l3.15.07c-1,.64-2.11,1.27-3.17,1.9l-5,.7a1.33,1.33,0,0,1-.46-1.09c.29-1.35,1.81-.79,2.46-1.58Z" transform="translate(-848.9 -427.9)"/><path class="cls-78" d="M910,572c0-2.1.62-3.68,2.92-4.1l.44.51a3.59,3.59,0,0,1,0,2c-.5,1.32.25,2.49.44,3.74a2.63,2.63,0,0,1-.74,1.8l-.1.14C911.43,575.1,910.18,573.94,910,572Z" transform="translate(-848.9 -427.9)"/><path class="cls-79" d="M961,526c0-.33,0-.66,0-1,1.59-1.27,3.27-1.3,5.39-.27C964.8,526.78,962.71,525.65,961,526Z" transform="translate(-848.9 -427.9)"/><path class="cls-80" d="M910,480c-1.73-.18-2.89-1.22-4.43-2.83L909,477c.74.95,1.93,1.6,2,3A.66.66,0,0,1,910,480Z" transform="translate(-848.9 -427.9)"/><path class="cls-81" d="M907,496c-1.73-.23-2.93-.82-2-2.89l1-.33a2.64,2.64,0,0,0,1,.06,1.32,1.32,0,0,1,1.47.12C909.44,494.69,910.53,496.46,907,496Z" transform="translate(-848.9 -427.9)"/><path class="cls-82" d="M993,554l-1-3,1-1c2.48.65,2.28,2.7,1.8,4.33C994.4,555.67,993.63,554.16,993,554Z" transform="translate(-848.9 -427.9)"/><path class="cls-83" d="M963.4,595.1a3.87,3.87,0,0,1,4.47-.67C966.7,596,965.4,596.3,963.4,595.1Z" transform="translate(-848.9 -427.9)"/><path class="cls-84" d="M987,544l1,1.09c0,.65,0,1.29-.07,1.93a3.3,3.3,0,0,0-3.89,0c-1.58-2-.81-3.52.94-4.87Z" transform="translate(-848.9 -427.9)"/><path class="cls-85" d="M1007,546h-1c-1.41-1.46-.88-3.29-1-5l2,1a2.31,2.31,0,0,1,.91,2A2.76,2.76,0,0,1,1007,546Z" transform="translate(-848.9 -427.9)"/><path class="cls-86" d="M1005,584c0-.67,0-1.34,0-2l0-2c.71-.17,1.82-1.17,2.07-.1A3.63,3.63,0,0,1,1005,584Z" transform="translate(-848.9 -427.9)"/><path class="cls-50" d="M990.92,552.14c-.31,1.29-.61,2.57-.92,3.86a1.2,1.2,0,0,1-1.56-.25c-1.32-2-.74-3.88.5-5.68l0-.06Z" transform="translate(-848.9 -427.9)"/><path class="cls-87" d="M893,541v5a.6.6,0,0,1-1,0h-1c1.39-2-.18-4,0-6C892.1,539.46,892.47,540.38,893,541Z" transform="translate(-848.9 -427.9)"/><path class="cls-88" d="M900,562l4,2c-2.08-.44-4.85,1.21-6-2C898.67,561.25,899.33,561.77,900,562Z" transform="translate(-848.9 -427.9)"/><path class="cls-89" d="M945,508h-1c-.68-1.33-2-2.35-2-4C944.42,504.27,945.05,505.89,945,508Z" transform="translate(-848.9 -427.9)"/><path class="cls-90" d="M892,546h1c.67.67,1.33,1.35,2,2-.34.45-.78,1.33-1,1.28C892.33,548.87,892.32,547.32,892,546Z" transform="translate(-848.9 -427.9)"/><path class="cls-91" d="M945,596c2.48-1.82,5.33-.67,8-1C950.52,596.82,947.67,595.67,945,596Z" transform="translate(-848.9 -427.9)"/><path class="cls-92" d="M1005,578h-2c-.67-2-.15-2.8,2-2a2.08,2.08,0,0,1,2,1.69Z" transform="translate(-848.9 -427.9)"/><path class="cls-93" d="M1007,544v-2c.35-.43.88-1.28,1-1.21,1.52.65.75,2.09,1,3.21A1.35,1.35,0,0,1,1007,544Z" transform="translate(-848.9 -427.9)"/><path class="cls-94" d="M910,480h2l1,1c-.73,2.73-2.33,2-4,1Z" transform="translate(-848.9 -427.9)"/><path class="cls-95" d="M979,588h1v5c-.35.87-.83,1.2-1,0C978.91,591.32,979,589.66,979,588Z" transform="translate(-848.9 -427.9)"/><path class="cls-96" d="M935,593c1.71.12,3.55-.4,5,1a3.55,3.55,0,0,0-3,1h-2Z" transform="translate(-848.9 -427.9)"/><path class="cls-97" d="M897.05,552.85,898.1,555c-.18.61-.35,1.22-.53,1.83C896.24,555.67,896.51,554.27,897.05,552.85Z" transform="translate(-848.9 -427.9)"/><path class="cls-57" d="M1018.92,569l6.08,0c0,.33,0,.65,0,1C1023,569.84,1020.79,570.37,1018.92,569Z" transform="translate(-848.9 -427.9)"/><path class="cls-98" d="M1031.8,577.84,1033,579c0,.33,0,.67,0,1a3.54,3.54,0,0,1-3.06-1.09Z" transform="translate(-848.9 -427.9)"/><path class="cls-99" d="M1007,544h2v4l-2-2Z" transform="translate(-848.9 -427.9)"/><path class="cls-100" d="M913,585a3.33,3.33,0,0,1,2,3C913.24,587.72,913,586.45,913,585Z" transform="translate(-848.9 -427.9)"/><path class="cls-101" d="M935,596c-1.22-.16-2.54.38-3.72-.5,1.18-.89,2.5-.34,3.71-.5C935,595.34,935,595.67,935,596Z" transform="translate(-848.9 -427.9)"/><path class="cls-102" d="M901.08,495.09c-.68-.26-1.64-.29-1.34-1.41a.85.85,0,0,1,.73-.41c1.25.22.67,1.11.59,1.81Z" transform="translate(-848.9 -427.9)"/><path class="cls-103" d="M898.08,514c1.1-1.08.95-2.49,1-3.85.29-.6.51-1.26,1.23-1.52a4,4,0,0,1,3.64,1.81,5.86,5.86,0,0,1,.7,3.67c-.18.76-.27,1.55-.53,2.31a22.29,22.29,0,0,1-2.66,4.56c-1.51,1.76-3,1.88-3.93-.56C897.75,518.28,896.91,516.06,898.08,514Z" transform="translate(-848.9 -427.9)"/><path class="cls-104" d="M896.89,528a3.65,3.65,0,0,0,2.1-3.84c.81-.85,1.59-.4,2.39,0a9.76,9.76,0,0,1,1.71,1.92,8.53,8.53,0,0,0,2.37,2.15c1.52,1.22,2.83,2.52,1.87,4.72a3.71,3.71,0,0,1-3.33.73c-1.54-.47-3.17-.55-4.72-1A5.43,5.43,0,0,1,896.89,528Z" transform="translate(-848.9 -427.9)"/><path class="cls-105" d="M896.89,528c.87,1.45,1.46,3.12,3.16,3.89.92-.25,1.32.28,1.59,1a2.92,2.92,0,0,1-1.14,2.61,3.67,3.67,0,0,1-3.53.29L893,537c-.47-2.44.83-3.17,3-3,3.34-4.15-3.07-3.45-3-6,.66-.38,1.36-.69,2-1.09Z" transform="translate(-848.9 -427.9)"/><path class="cls-106" d="M900.91,525.15,899,524.2a2.79,2.79,0,0,0-.86-.22c-1-1-.75-2-.14-3,3.93.6,2.7-4,5-5,2.3,2.29,1.67,4.88.79,7.49C903.06,524.42,901.59,524.11,900.91,525.15Z" transform="translate(-848.9 -427.9)"/><path class="cls-107" d="M903,510c-1.39.89-2.08-.24-2.91-1-.5-1.5.48-2.68.86-4A7.58,7.58,0,0,1,903,501l0,.34a3.1,3.1,0,0,1,1.58,2.31C905.14,506,905.91,508.45,903,510Z" transform="translate(-848.9 -427.9)"/><path class="cls-108" d="M895,526.92c-.09,1.46-.88,1.61-2,1.09h-1a1,1,0,0,1-1.39-.19A4.07,4.07,0,0,1,891,524h2Z" transform="translate(-848.9 -427.9)"/><path class="cls-109" d="M898,521c0,1,.09,2,.13,3a10.38,10.38,0,0,1,0-10Z" transform="translate(-848.9 -427.9)"/><path class="cls-45" d="M900.94,505c-.28,1.33-.57,2.66-.86,4l-1,1.15A6,6,0,0,1,900.94,505Z" transform="translate(-848.9 -427.9)"/><path class="cls-110" d="M896,534a6.72,6.72,0,0,0-3,3c0,1,0,1.93,0,2.89,0,.35,0,.71,0,1.06l-2-1h0c-.76-2.18-.12-4.13,1-6C893.33,533.41,894.66,532.51,896,534Z" transform="translate(-848.9 -427.9)"/><path class="cls-111" d="M892,534l-1,6C889.83,537.75,888.82,535.52,892,534Z" transform="translate(-848.9 -427.9)"/><path class="cls-112" d="M891,524v4c0,.82-.12,1.61-1,2-.33-.67-.66-1.33-1-2,0-.67,0-1.33,0-2Z" transform="translate(-848.9 -427.9)"/><path class="cls-113" d="M890,530c.34-.67.67-1.34,1-2h1C891.63,529,892.63,531.32,890,530Z" transform="translate(-848.9 -427.9)"/><path class="cls-114" d="M1006.93,563.89c0,1.37.05,2.74.08,4.11a2.12,2.12,0,0,1,0,3l0,.24a2.23,2.23,0,0,1-2.22.13,3.21,3.21,0,0,1-1-1.22,7.5,7.5,0,0,1-.12-3.85,4.75,4.75,0,0,1,1.77-2.45A1.36,1.36,0,0,1,1006.93,563.89Z" transform="translate(-848.9 -427.9)"/><path class="cls-115" d="M1006.93,563.89l-.92.14c-2.41-3-1.66-6.31-.7-9.61a1.23,1.23,0,0,1,1.62-.39q0,3.48.11,7C1007,562,1007,562.93,1006.93,563.89Z" transform="translate(-848.9 -427.9)"/><path class="cls-116" d="M1007,571c0-1,0-2,0-3l2-1h0c.66.33.66.67,0,1,0,.73,0,1.46,0,2.19Z" transform="translate(-848.9 -427.9)"/><path class="cls-117" d="M931.06,502H934a3.56,3.56,0,0,0,3,2,1.91,1.91,0,0,1-.85,2.07,7.34,7.34,0,0,1-3.89,1.13c-1.62-.46-3.5-.75-2.27-3.23Z" transform="translate(-848.9 -427.9)"/><path class="cls-118" d="M936,505l1-.94a12.89,12.89,0,0,1,4.07,4l-.36-.06C937.73,509.24,936.15,508.24,936,505Z" transform="translate(-848.9 -427.9)"/><path class="cls-119" d="M961,585.09c-7.34.7-14.68,2-22-.17-.21-1.52.87-1.91,2-2.25a31.44,31.44,0,0,1,4.23-.17c2.55,0,5.1,0,7.65,0,2.61-.31,5.25-1.08,7.65.74a1.26,1.26,0,0,1,.39,1.57Z" transform="translate(-848.9 -427.9)"/><path class="cls-120" d="M958,588l-2,2c-.87.83-1.92.44-2.91.41a18.31,18.31,0,0,0-8.33.05c-1.25-.08-2.58.44-3.72-.48a2.28,2.28,0,0,1,2.47-1.9C948.32,588.34,953.16,587.1,958,588Z" transform="translate(-848.9 -427.9)"/><path class="cls-121" d="M941,584l-2,.92-5-.93a2.16,2.16,0,0,1-2.1.38c-1.62-.26-3.06-.74-3.35-2.67a1.91,1.91,0,0,1,.71-1.38c2.7-1.69,5.26-.36,7.85.35C938.5,581.67,941.12,581.23,941,584Z" transform="translate(-848.9 -427.9)"/><path class="cls-122" d="M953,590h3l0,.69a95.09,95.09,0,0,1-15.92.09l.93-.8,4,0A13.63,13.63,0,0,1,953,590Z" transform="translate(-848.9 -427.9)"/><path class="cls-123" d="M932.14,583.94,934,584c-1,1.1-3,1.19-3.06,3.13-1.1-.1-2.25-.07-3-1.08C928.21,583.13,929.94,583.06,932.14,583.94Z" transform="translate(-848.9 -427.9)"/><path class="cls-124" d="M985,542.12c-.32,1.63-.63,3.25-.94,4.87,0,.39,0,.78-.08,1.17-1.49.38-2.38-.44-3.1-1.58a20.56,20.56,0,0,1-1.18-3.58,4,4,0,0,1,.71-2.9,2.07,2.07,0,0,1,1.31-.68A1.72,1.72,0,0,1,983,540Z" transform="translate(-848.9 -427.9)"/><path class="cls-125" d="M982,539.85l-1,0a2,2,0,0,1-1.63-2.69A1.91,1.91,0,0,1,981,536l4-1v1C984.08,537.34,982.84,538.43,982,539.85Z" transform="translate(-848.9 -427.9)"/><path class="cls-126" d="M982,539.85c-.21-2.22,1.29-3.1,3-3.85,0,1.66-1.34,2.68-2,4A4,4,0,0,1,982,539.85Z" transform="translate(-848.9 -427.9)"/><path class="cls-127" d="M985.78,595.13c-2.5-1-1.54-3.26-1.75-5.07.71-.65.15-1.93,1.2-2.41,2.4-.45,3.66.85,4.45,2.9a4.47,4.47,0,0,1,.05,1.46C989,593.8,988.42,595.76,985.78,595.13Z" transform="translate(-848.9 -427.9)"/><path class="cls-128" d="M985.78,595.13c1.88-.2,1.2-3,3.15-3.13a6.67,6.67,0,0,1,2.09-.22,3.3,3.3,0,0,1,2.59,2.24,2.38,2.38,0,0,1-.61,2,7.43,7.43,0,0,0-.09.81l-3.9,1.1c-.82-.94-2.09-1.16-3-1.9C985.9,595.71,985.84,595.42,985.78,595.13Z" transform="translate(-848.9 -427.9)"/><path class="cls-129" d="M988.89,591a9.88,9.88,0,0,0-3.85-3,.61.61,0,0,1-.32-.66c.07-.24.14-.36.22-.36l1.17-3a1.62,1.62,0,0,1,1.2-.39c1,.4,2,.93,3,1.32a3.73,3.73,0,0,1,.95,1,4.11,4.11,0,0,1-.24,3.41A3,3,0,0,1,988.89,591Z" transform="translate(-848.9 -427.9)"/><path class="cls-130" d="M987,584h-.45l-.46,0a3.23,3.23,0,0,1-3.09,0c-.34-.66-.68-1.32-1-2,.83-1.62,2.45-2.17,4-2.88a3.27,3.27,0,0,1,3.28,1.27,2.81,2.81,0,0,1,.34,1.42A2.59,2.59,0,0,1,987,584Z" transform="translate(-848.9 -427.9)"/><path class="cls-127" d="M986,596c1.43,0,4-2,3,1.9h-2C986.68,597.27,986.32,596.64,986,596Z" transform="translate(-848.9 -427.9)"/><path class="cls-131" d="M984.94,587c0,.34.06.68.1,1-.34.69-.68,1.37-1,2C985.1,589.26,981.12,587,984.94,587Z" transform="translate(-848.9 -427.9)"/><path class="cls-132" d="M903.11,553.85c-2-4.45-4-8.88-4.13-13.85a2.32,2.32,0,0,1,2.09-1.82,3.4,3.4,0,0,1,1.48.28,4.05,4.05,0,0,1,1.61,1.57c1.25,5,3.58,9.76,2,15.09a3.23,3.23,0,0,1-1,1.07C903.25,556.51,903.55,554.85,903.11,553.85Z" transform="translate(-848.9 -427.9)"/><path class="cls-133" d="M901,539l-2,1c-2.37-.55-1.86-2.5-2-4.13a3.65,3.65,0,0,1,3-.94,2.74,2.74,0,0,1,1.18.79A2.38,2.38,0,0,1,901,539Z" transform="translate(-848.9 -427.9)"/><path class="cls-74" d="M903.11,553.85,905,556c1.83-.34,3.76-.89,4,2l-7,0A7.68,7.68,0,0,1,903.11,553.85Z" transform="translate(-848.9 -427.9)"/><path class="cls-74" d="M895.9,546c-.26-.36-.52-.73-.79-1.09.85-.45.76-2.34,1.85-1.86,1.35.58,1.94,2.07,1.69,3.77Z" transform="translate(-848.9 -427.9)"/><path class="cls-32" d="M961.06,531.79,973,534c1.51,1.6,5.12.07,5.34,3.59-1.43,2.51-4,2.44-6.38,2.86-4-.5-8-.91-11.25-3.58C961.51,535.24,959.89,533.41,961.06,531.79Z" transform="translate(-848.9 -427.9)"/><path class="cls-134" d="M961.06,531.79c-.12,1.42,2,2.86-.07,4.25s-3.61.39-5-1.1c-2.85-5-2.59-5.8,2-5.91a2.45,2.45,0,0,1,2,1Z" transform="translate(-848.9 -427.9)"/><path class="cls-135" d="M978,537.05c-1.55-1.22-4-.95-5-3,2.83,0,5.81-.49,8,2l-1.17,1.09A1.28,1.28,0,0,1,978,537.05Z" transform="translate(-848.9 -427.9)"/><path class="cls-54" d="M969,530c1.63.08,3.48-.31,4,2C971.38,531.92,969.52,532.32,969,530Z" transform="translate(-848.9 -427.9)"/><path class="cls-136" d="M960,530.05,958,530c-.61-.51-1.54-.81-1.25-1.91L961,528Z" transform="translate(-848.9 -427.9)"/><path class="cls-137" d="M1005,571l2.06.21c0,.59,0,1.17,0,1.76-.74,1-1.93,1.6-2,3a2.12,2.12,0,0,0-2,2h0c-2,1.34-3.87,1.64-5.28-.82.36-2.29-.09-4.93,2.64-6.22A8,8,0,0,1,1005,571Z" transform="translate(-848.9 -427.9)"/><path class="cls-138" d="M1023,576h-6c-.74-1.16-3.37.47-3.15-2.13a2.4,2.4,0,0,1,1.32-.76c3.17,0,6.36-.55,9.5.37,1.19.82,2.31,1.66.57,3A2.16,2.16,0,0,1,1023,576Z" transform="translate(-848.9 -427.9)"/><path class="cls-138" d="M1009,573c2.48-1.82,5.34-.68,8-1,.31,2.64-2.4.73-3,2h0c-1.67,1.37-3.33.74-5,0C1009,573.67,1009,573.33,1009,573Z" transform="translate(-848.9 -427.9)"/><path class="cls-139" d="M1009,574h5l3,2C1014.19,575.93,1011.21,576.49,1009,574Z" transform="translate(-848.9 -427.9)"/><path class="cls-140" d="M1023,576h2c.4.27,1,.39,1,1a3.6,3.6,0,0,1-3,1,8,8,0,0,1-1.62-.46Z" transform="translate(-848.9 -427.9)"/><path class="cls-141" d="M1026,577l-1-1c.76-.67.24-1.33,0-2-.26-.22-.34-.45-.25-.67s.17-.33.26-.33a2.13,2.13,0,0,1,2,2Z" transform="translate(-848.9 -427.9)"/><path class="cls-142" d="M999,560v-9a.74.74,0,0,1-.33-.79c.09-.27.17-.41.27-.41a2.54,2.54,0,0,1,2.73.68,7.46,7.46,0,0,1,1.54,3.35,5.11,5.11,0,0,1-.06,1.46,12.33,12.33,0,0,0-.65,4.9c0,1,0,2-.08,3a4.07,4.07,0,0,1-.79,2.22,2.4,2.4,0,0,1-3,.66,3.43,3.43,0,0,1-1-2.25A4,4,0,0,1,999,560Z" transform="translate(-848.9 -427.9)"/><path class="cls-143" d="M999,564v2a3.47,3.47,0,0,1-3.63,1.25,6.3,6.3,0,0,1-2.76-1.57A3.72,3.72,0,0,1,992,562l1-2h2Z" transform="translate(-848.9 -427.9)"/><path class="cls-144" d="M999,564c-3,.32-4.32-1-4-4h4Z" transform="translate(-848.9 -427.9)"/><path class="cls-145" d="M999,550c0,.34,0,.67,0,1-1.67-.83-2-2.31-2-4,.66-.75,1.33-.23,2,0A2.06,2.06,0,0,1,999,550Z" transform="translate(-848.9 -427.9)"/><path class="cls-146" d="M909,482c1.4-.05,2.88.19,4-1,3.16.84,4.49,3.51,6,6v.65a8.4,8.4,0,0,1-2.56,3.78,2.64,2.64,0,0,1-2,.22,2.12,2.12,0,0,1-1-.87c-.48-1.06,0-2.16-.14-3.23-.34-.91-.9-1.67-1.57-.4s-.79,2.52-1.32,3.75a3.83,3.83,0,0,1-.61,1.23,2.22,2.22,0,0,1-1.87.76h-.5l-.5,0c0-3,0-5.9,0-8.85A2.11,2.11,0,0,0,909,482Z" transform="translate(-848.9 -427.9)"/><path class="cls-147" d="M948,519.94a2.69,2.69,0,0,0,.74.14c1.08.65,1.77,1.49,1.4,2.85l.84,2a1.1,1.1,0,0,1,.43,1,4.34,4.34,0,0,1-.88,1.62,4.16,4.16,0,0,1-1.15,1.54,2.5,2.5,0,0,1-1.31.32,4.58,4.58,0,0,1-3.35-3.21,5.68,5.68,0,0,1-.25-1.28c.14-1.17-.65-1.79-1.45-2.41a2.81,2.81,0,0,1-.78-3.13c1.13-1.77,2.78-1.54,4.47-1.14A2.88,2.88,0,0,1,948,519.94Z" transform="translate(-848.9 -427.9)"/><path class="cls-127" d="M951,526c0-.35,0-.71,0-1.06.32,0,.63.08,1,.11,1.44,1.26,2.86,2.57,4.81,3L958,530c-6.85-.29.67,3.14-1.08,4.17-3.41,1.62-5.11-.29-6.38-3.09a26.58,26.58,0,0,1,0-2.68C950.46,527.56,950.27,526.69,951,526Z" transform="translate(-848.9 -427.9)"/><path class="cls-148" d="M950.18,522.93l-1.4-2.85L951,520C951.63,521.23,951.55,522.26,950.18,522.93Z" transform="translate(-848.9 -427.9)"/><path class="cls-149" d="M925,492a3.94,3.94,0,0,0-3,.88c-1.39,1.26-2.51.55-3.58-.5a3.72,3.72,0,0,1-.64-1.52A6.15,6.15,0,0,1,919,487h0c2.24-1.11,4.09.15,6,1Z" transform="translate(-848.9 -427.9)"/><path class="cls-150" d="M930,504c.31,1.7,1.43,2.11,3,1.88a4.81,4.81,0,0,1,1.81,4.72,6.52,6.52,0,0,1-4.64,3.48,3,3,0,0,1-2.15-.75c-.54-2,0-3.53,2-4.35-2.45-2.65-4.22-5.44-2.25-9.34C929.64,500.8,928.54,503,930,504Z" transform="translate(-848.9 -427.9)"/><path class="cls-151" d="M924.87,510l.24,2.06c-.08.23-.16.46-.23.7-.88,1.52-1.37,3.7-3.64,3.43s-2.87-2.44-3.37-4.36a11.43,11.43,0,0,1-.27-4.4c1-2.37.35-5.2,2-7.4,1.57-.79,2.4.26,3.24,1.29C924.38,504,922.31,507.53,924.87,510Z" transform="translate(-848.9 -427.9)"/><path class="cls-152" d="M923,499c5.31,2.46,2.53,6.44,1.88,10-2.06.22-2.34-1.15-2.41-2.7-.08-1.74.18-3.51-.34-5.23a2.84,2.84,0,0,1,.29-1.54Z" transform="translate(-848.9 -427.9)"/><path class="cls-153" d="M922.91,493.09A5.25,5.25,0,0,1,927,495l-2,1c-1.56.67-3.11,1.45-4.83.48C918.11,493,921.65,493.94,922.91,493.09Z" transform="translate(-848.9 -427.9)"/><path class="cls-154" d="M923,500c.51,3-1.35,6.56,1.92,9a3,3,0,0,1,0,1c-1.7,0-3.42.21-3-2.52A38.34,38.34,0,0,0,922,502C921.26,500.8,921.32,500,923,500Z" transform="translate(-848.9 -427.9)"/><path class="cls-155" d="M928,513l2.19.07a2,2,0,0,1,.23,1.58,2.79,2.79,0,0,1-1.87,1.56,4,4,0,0,1-4-1,2.79,2.79,0,0,1,.23-3.23l.29.09,1.9,1C927.34,512.52,927.67,512.49,928,513Z" transform="translate(-848.9 -427.9)"/><path class="cls-156" d="M928,513h-1c.64-1.6-1.76-5.48,3-4Z" transform="translate(-848.9 -427.9)"/><path class="cls-157" d="M920,496l5,0c-.68.7-1.36,1.41-2,2.11-1.39,1.22-2.88.39-4.34.23a2.23,2.23,0,0,1-1.84-2.14,1.89,1.89,0,0,1,1.91-.93A3,3,0,0,1,920,496Z" transform="translate(-848.9 -427.9)"/><path class="cls-158" d="M919,497.09l4,1c0,.3.06.59.1.87l-.1,0c-.86,1.28-2.54.06-3.46,1.14a2.54,2.54,0,0,1-1.05.78,2.61,2.61,0,0,1-2.52-.58,1.86,1.86,0,0,1-.28-1.28C916.24,497.56,918,498,919,497.09Z" transform="translate(-848.9 -427.9)"/><path class="cls-109" d="M905,561.11c.91-2,2.33-2.1,4-1.11,1.14,1.12,2.87-.12,4,1,0,.62,0,1.24,0,1.86C910.19,563,907.3,563.33,905,561.11Z" transform="translate(-848.9 -427.9)"/><path class="cls-159" d="M913,563.12a5.8,5.8,0,0,1,4,.93l.3.72c-.42,2.38-1.5,3.91-4.24,3.22l-.09-.09C912.93,566.31,912.94,564.71,913,563.12Z" transform="translate(-848.9 -427.9)"/><path class="cls-160" d="M916.94,564.05c.3-2.41,2.93-2.48,4.07-4a1.39,1.39,0,0,1,1.34-.13,7.21,7.21,0,0,1,2.4,5.1,3.06,3.06,0,0,1-1.46,2.43,3.61,3.61,0,0,1-1.42.3,5.72,5.72,0,0,1-4.94-3.68Z" transform="translate(-848.9 -427.9)"/><path class="cls-161" d="M909,558l-4-2,0-.13a5.23,5.23,0,0,1,5.76-1.42c1.55.55,3.19,1.29,1.69,3.44a1.9,1.9,0,0,1-2.47.14C909.69,558,909.37,558,909,558Z" transform="translate(-848.9 -427.9)"/><path class="cls-161" d="M919.93,559.94l-3.84-1a1.07,1.07,0,0,1,.15-1.53c2.48-1.15,4.89-1.75,6.92.84C923,560.54,920.73,558.84,919.93,559.94Z" transform="translate(-848.9 -427.9)"/><path class="cls-162" d="M919.93,559.94a4.43,4.43,0,0,1,3.07-1c2.16-1.48,3.83-1.62,4.3,1.56-2,2.1-3.66.93-5.31-.5h-1Z" transform="translate(-848.9 -427.9)"/><path class="cls-74" d="M913,561c-1.4-.06-2.88.19-4-1h6.81C914.93,561.48,913.84,560.78,913,561Z" transform="translate(-848.9 -427.9)"/><path class="cls-74" d="M915.94,558c0,.31.09.61.15.92-2.05-.12-4.23.6-6.07-.91l2-.11a3.71,3.71,0,0,1,2.76-.78A2.36,2.36,0,0,1,915.94,558Z" transform="translate(-848.9 -427.9)"/><path class="cls-7" d="M967,587c-.73-1-1.94-1.62-2-3,.4-1.57,1.93-2.2,2.8-3.39a4.31,4.31,0,0,1,2.35-1.17,2.69,2.69,0,0,1,1.29.38,5.16,5.16,0,0,1,1.66,4.22A11.08,11.08,0,0,1,967,587Z" transform="translate(-848.9 -427.9)"/><path class="cls-163" d="M973.1,584.05c-2.29-.46-2.07-2.26-2.09-3.92.8-1.93,2.3-2.43,4.22-2.07,2.13,1,3.07,2.51,1.74,4.81Z" transform="translate(-848.9 -427.9)"/><path class="cls-164" d="M977,582.87a5.7,5.7,0,0,0-2.14-4,1.46,1.46,0,0,1-.05-1.29,2.12,2.12,0,0,1,2.32-1c1.18.53,1.87,1.78,3.16,2.15a3,3,0,0,1,.9.92,1.16,1.16,0,0,1-.24,1.19Z" transform="translate(-848.9 -427.9)"/><path class="cls-165" d="M980.92,580.89c0-.3,0-.61,0-.91a2.82,2.82,0,0,1,1.27-1.07c1.47-.36,2.82-.29,3.79,1.09-.84,1.68-2.32,2-4,2Z" transform="translate(-848.9 -427.9)"/><path class="cls-166" d="M1025,573c0,.33,0,.67,0,1h-11l3-2h4C1022.41,572.05,1023.89,571.8,1025,573Z" transform="translate(-848.9 -427.9)"/><path class="cls-57" d="M1011,570c1.83-1.54,4-.81,6.07-.93C1015.22,570.35,1013.08,569.89,1011,570Z" transform="translate(-848.9 -427.9)"/><path class="cls-167" d="M999,550l0-3c.34-.66.67-1.33,1-2h1c1.39,0,2.67.18,3.06,1.84-1.54,1-1.4,3.3-3.12,4.19Z" transform="translate(-848.9 -427.9)"/><path class="cls-168" d="M993,596v-2a7.11,7.11,0,0,1-1.47-4.52,9.66,9.66,0,0,1,.47-3c.58-1.86,2.33-3,3-4.74,1.51-1.57,3.24-1.51,5.07-.68a2.39,2.39,0,0,1,.92,1l-1.2,4.94L999,588C996.38,590.2,995.9,594,993,596Z" transform="translate(-848.9 -427.9)"/><path class="cls-169" d="M989,556h1c.83,1.35-.26,2.66-.1,4-1.19,1.36-1,3.3-2,4.75a9.62,9.62,0,0,1-3.09,2.54,4.92,4.92,0,0,1-2.49.31c-3.72-.24-7.44,0-11.16-.13-2.11-.07-4-.45-4.44-3,.93-2.51,3.15-1.77,5-2,3.68-.37,7.43-.38,10.75-2.35,1.57-1.62,1.6-4.28,3.74-5.5C987.5,554.25,988.12,555.39,989,556Z" transform="translate(-848.9 -427.9)"/><path class="cls-170" d="M993,565l2,1c-4.37,2.26-5.45,1.91-6.86-2.21.23-.94.49-1.84,1.73-1.82l1.14,0C992,562.79,992.21,564.08,993,565Z" transform="translate(-848.9 -427.9)"/><path class="cls-171" d="M989.87,562l-.93.91c-.45.72-.78,1.68-2,1,.37-1.76.81-3.45,2.91-3.92Z" transform="translate(-848.9 -427.9)"/><path class="cls-172" d="M993,565a3.36,3.36,0,0,1-2-3h1A3.58,3.58,0,0,1,993,565Z" transform="translate(-848.9 -427.9)"/><path class="cls-173" d="M948,519.94,947,519c-1.89-1.17-3.6-2.41-2-5l.1-.06C947.63,515.17,949.85,516.54,948,519.94Z" transform="translate(-848.9 -427.9)"/><path class="cls-174" d="M903,504c0-.91,0-1.81,0-2.72l1.92-1.36c2-1,3.84-1.2,5.28.93a9.56,9.56,0,0,1-.5,7.05,2.46,2.46,0,0,1-2.18.72C905.06,508,905.5,504.58,903,504Z" transform="translate(-848.9 -427.9)"/><path class="cls-175" d="M908,492.89l.94-1c3.66,1.5,3.88,4,1.92,7a2.13,2.13,0,0,1-1.39.58c-1.33-.32-2.36-1-2.45-2.49,0-.32,0-.64,0-1C909.21,495.57,907.83,494,908,492.89Z" transform="translate(-848.9 -427.9)"/><path class="cls-176" d="M907,497l2,2c.31.42.2.75-.25,1-1.33,2.21-2.62,1.37-3.91-.05A3.92,3.92,0,0,1,907,497Z" transform="translate(-848.9 -427.9)"/><path class="cls-92" d="M1001,582h-1c-2.2-3.19-4.57-.06-6.86-.18a3.67,3.67,0,0,1-2.5-1.48,2.78,2.78,0,0,1-.34-1.46,3,3,0,0,1,1.12-1.91c1.8-.67,3.21-2.48,5.45-1.87A2.6,2.6,0,0,1,998,576c1.08,2.11,3,2,5,2Z" transform="translate(-848.9 -427.9)"/><path class="cls-177" d="M1000.93,551c-.9-2.84.13-4.24,3.11-4.19l.18,1.14a6.7,6.7,0,0,1,.77,1.32,5.59,5.59,0,0,1-1.63,4.87A1.11,1.11,0,0,1,1002,554Z" transform="translate(-848.9 -427.9)"/><path class="cls-178" d="M1004,548.93a3.15,3.15,0,0,1,.19-1l1.78,0c1.37,1.77,1.34,4,2,6l-1.08,0-.88-.13C1003.65,553,1005.14,550.41,1004,548.93Z" transform="translate(-848.9 -427.9)"/><path class="cls-179" d="M981.92,546.11l2,2,1.11,4.76c1,2.25,1.15,3.88-2.18,2.85-2.17-2-2.42-5-4-7.3-.42-1.44-1.23-2.87-.18-4.37C980.8,543.05,981.07,545.05,981.92,546.11Z" transform="translate(-848.9 -427.9)"/><path class="cls-180" d="M983,555c2.23.81,1.86-.89,2-2.09a4,4,0,0,0,1,0c1.62.07,1.57.91.92,2l-3,6a1.13,1.13,0,0,1-1.47-.14c-1.23-1.42-1-3-.57-4.65A2.67,2.67,0,0,1,983,555Z" transform="translate(-848.9 -427.9)"/><path class="cls-181" d="M986.94,554.93l-.92-2c.69-1.25,1.15-2.72,2.92-2.85L989,556C987.68,556.86,987.45,555.63,986.94,554.93Z" transform="translate(-848.9 -427.9)"/><path class="cls-182" d="M1009,568c0-.34,0-.67,0-1,1.71.12,3.55-.41,5,1Z" transform="translate(-848.9 -427.9)"/><path class="cls-183" d="M932.14,583.94c-1.84-.16-3,1-4.23,2.11l-4.77-2.14-3.22-2.83a2.43,2.43,0,0,1,.55-2.7,4.25,4.25,0,0,1,2.64-1.11c2.71.49,4.46,2.27,5.89,4.47Z" transform="translate(-848.9 -427.9)"/><path class="cls-184" d="M913.08,575.9l-.12-1.72a3.7,3.7,0,0,1-.35-3.95c2.52-2,3.41.45,4.75,1.71a4,4,0,0,1,.65,1.61c-.1,2.81-1.45,3.6-4,2.45C913.7,576,913.39,576,913.08,575.9Z" transform="translate(-848.9 -427.9)"/><path class="cls-185" d="M914,576c2.1.08,3.07-1,3-3,1.64-.84,2.79.1,3.92,1.08a2.89,2.89,0,0,1,.58,1.3,2.53,2.53,0,0,1-.44,1.31c-.81.78-1.73,1.45-2.56,2.21l-.61.27-.9,0Z" transform="translate(-848.9 -427.9)"/><path class="cls-185" d="M921,579c-.37.69-.73,1.38-1.09,2.07l-2-1.94L918,579C919,577.26,920,577.22,921,579Z" transform="translate(-848.9 -427.9)"/><path class="cls-186" d="M961,584.76a6.33,6.33,0,0,0,0-.76c-1-1.78,0-2.42,1.53-2.75a2,2,0,0,1,1.84,1.31,1.17,1.17,0,0,1-.61,1.33C962.9,584.39,962.07,585,961,584.76Z" transform="translate(-848.9 -427.9)"/><path class="cls-164" d="M963.77,583.89q.13-.43.24-.9c1.32-1.85,2.84-2.79,5-1.1a5.46,5.46,0,0,1-4,2.12Z" transform="translate(-848.9 -427.9)"/><path class="cls-187" d="M920,496h-.92a3,3,0,0,1-1.14-1.67,2.69,2.69,0,0,1,.52-2L919,492l3,.92.92.22C922,494.13,920.09,494.15,920,496Z" transform="translate(-848.9 -427.9)"/><path class="cls-118" d="M945,514l2,5a3.93,3.93,0,0,1-4.09,0,2.07,2.07,0,0,1-1.33.5c-3.12-1.85-4.63-4.75-5.33-8.19.6-2.83,2.45-3.13,4.83-2.38C942.73,510.37,942.9,512.93,945,514Z" transform="translate(-848.9 -427.9)"/><path class="cls-188" d="M941,509c-1.45.52-3.07.71-4.11,2.06-1.31.69-2.18,0-2.92-1,0-1.49-2-2.47-1-4.19.81-1,1.92-.92,3-.91,1.4,1.28,2.77,2.61,4.74,3Z" transform="translate(-848.9 -427.9)"/><path class="cls-169" d="M916.27,572.88c-1.38-.63-1.4-2.8-3.27-2.87a.54.54,0,0,1-.93,0l.93-2a8.86,8.86,0,0,0,3.93-4c1.71.92,3.86,1,5.07,2.85a4,4,0,0,1-1.27,3.09C919.61,571.49,917.52,571.54,916.27,572.88Z" transform="translate(-848.9 -427.9)"/><path class="cls-189" d="M912.07,570H913c0,1.38,0,2.77,0,4.16C911.53,573,910.3,571.85,912.07,570Z" transform="translate(-848.9 -427.9)"/><path class="cls-190" d="M903,504c3-.34,4.3,1,4,4a6.4,6.4,0,0,1,.13,8.29,2.88,2.88,0,0,1-2.48.41c-1.35-.41-.89-1.93-1.65-2.7,0-1.34,0-2.67,0-4A10.62,10.62,0,0,0,903,504Z" transform="translate(-848.9 -427.9)"/><path class="cls-191" d="M903,514l1,2a5.54,5.54,0,0,1,1.29,2c.09,2.11.84,4.16.58,6.31a2.87,2.87,0,0,1-3,2.29c-1.21-.54-1.7-1.32-.86-2.55,1.82-2.48.68-5.33,1-8C903,515.33,903,514.66,903,514Z" transform="translate(-848.9 -427.9)"/><path class="cls-192" d="M907.11,533c-.16-2-2.1-2.69-3-4.12-.93-4.23,3.92-3.15,5-5.51a3.23,3.23,0,0,1,2.21,0c2.27,1.5,3.8,3.39,3.36,6.33a22.92,22.92,0,0,0-2.91,5.57,3,3,0,0,1-2.59,1.19A2.79,2.79,0,0,1,907.11,533Z" transform="translate(-848.9 -427.9)"/><path class="cls-193" d="M907.11,533l2.14,2.93a2.14,2.14,0,0,1-.78,2.92,6,6,0,0,1-4.64.26c-1.74-.47-2-2.81-3.83-3.11,0-.35,0-.7,0-1.06.38-.65.75-1.3,1.12-1.95.72-1.06,2.14,0,2.89-1Z" transform="translate(-848.9 -427.9)"/><path class="cls-194" d="M909,524c-.11,1.91.48,4.37-3.06,3-1.06-.43-1.38,1.11-1.87,1.92l-2-1.9a1.42,1.42,0,0,1,.93-1l2-2A2.6,2.6,0,0,1,909,524Z" transform="translate(-848.9 -427.9)"/><path class="cls-195" d="M903,526l-.93,1-1.17-1.82c.28-.64-.36-1.62.72-1.93a6,6,0,0,1,.37.78Z" transform="translate(-848.9 -427.9)"/><path class="cls-196" d="M904,532a3.33,3.33,0,0,1-2.89,1l-1.05-1.05C901.39,530.63,902.67,532.09,904,532Z" transform="translate(-848.9 -427.9)"/><path class="cls-197" d="M1004,548.93a6.62,6.62,0,0,1,2,5c0,3.37,0,6.75,0,10.12l-1,2a1.7,1.7,0,0,1-1.94.37,2.24,2.24,0,0,1-.78-1.15,9,9,0,0,1,.19-2.07c.49-2.15,1.46-4.27.44-6.52a16.73,16.73,0,0,1,0-2.65Z" transform="translate(-848.9 -427.9)"/><path class="cls-198" d="M1003,566l2,0c0,1.32-.07,2.64-.1,4a3.27,3.27,0,0,1-3.26.87,2.73,2.73,0,0,1-1.14-.87l-.24-.7c0-.24,0-.48,0-.73C1000.82,567.32,1000.76,565.44,1003,566Z" transform="translate(-848.9 -427.9)"/><path class="cls-199" d="M1001,570H1005l0,1c-1.17,1-2.39,1.7-4,1A1.38,1.38,0,0,1,1001,570Z" transform="translate(-848.9 -427.9)"/><path class="cls-200" d="M963,582a2.11,2.11,0,0,0-2,2h-8a2.9,2.9,0,0,1-.72-1,4.78,4.78,0,0,1,0-2.6,3.21,3.21,0,0,1,1.45-1.63c2.31-1.15,4.71-.8,7.1-.44,1.38,0,2.79-.06,3.91,1C965.93,581.37,964.25,581.53,963,582Z" transform="translate(-848.9 -427.9)"/><path class="cls-15" d="M941,584l-4-2a2.84,2.84,0,0,1,1.92-1.34,5.89,5.89,0,0,1,5.93,1.81A1.58,1.58,0,0,1,945,584Z" transform="translate(-848.9 -427.9)"/><path class="cls-201" d="M945,584c0-.33,0-.66,0-1l.56-.69c2.6-1.11,5.12-1.33,7.44.69,0,.33,0,.66,0,1Z" transform="translate(-848.9 -427.9)"/><path class="cls-77" d="M953,590h-8A7.72,7.72,0,0,1,953,590Z" transform="translate(-848.9 -427.9)"/><path class="cls-202" d="M939,582h-2l-8-1c-1.44-1.19-3.09-2.26-2.55-4.56a3.2,3.2,0,0,1,2.57-1.88,9.58,9.58,0,0,1,5.85-.1,5.5,5.5,0,0,1,2.38.85C938.53,577.36,940.75,579.17,939,582Z" transform="translate(-848.9 -427.9)"/><path class="cls-203" d="M927,577c1.11,1.12,2.2,2.24,2,4,0,.25,0,.49,0,.74-2.62-.24-4.11-2.32-6-3.7-1.62.27-2.33-.44-2.17-2l.36.06C923.49,574.06,925.46,574.22,927,577Z" transform="translate(-848.9 -427.9)"/><path class="cls-204" d="M978,537.05l1.88,0c.38.94.77,1.88,1.16,2.81,0,1,0,2.07,0,3.1-.48.62-1.15.58-1.83.56a3.58,3.58,0,0,1-2.59-.3,26.17,26.17,0,0,0-4-2.08,3,3,0,0,1-.89-.93,1.24,1.24,0,0,1,.2-1.2Z" transform="translate(-848.9 -427.9)"/><path class="cls-205" d="M979,543h2c.3,1,.61,2.07.92,3.11L979,543.92a.54.54,0,0,1-.26-.59C978.84,543.12,978.91,543,979,543Z" transform="translate(-848.9 -427.9)"/><path class="cls-206" d="M988.89,591l1.08-2a2.24,2.24,0,0,1,1.56,2c0,1.07-.84,1.5-1.6,2l-1-1A6.56,6.56,0,0,0,988.89,591Z" transform="translate(-848.9 -427.9)"/><path class="cls-207" d="M989.93,593l1-2c-.25-1.53.46-2.19,2-2.13,0,1.73.06,3.47.1,5.2Z" transform="translate(-848.9 -427.9)"/><path class="cls-208" d="M991,580l2,1a2,2,0,0,1,1.45,1.33c0,2-1.48,2.7-2.82,3.58L991,586l-1,0c-1.15-1.1-2.32-2.2-1-3.93a8,8,0,0,0,.12-1C989.39,580.11,989.86,579.5,991,580Z" transform="translate(-848.9 -427.9)"/><path class="cls-209" d="M992.9,588.79c-.66.71-1.31,1.42-2,2.14-.32-.66-.65-1.31-1-2l1-3,.08.06a1.52,1.52,0,0,1,2.17,0Z" transform="translate(-848.9 -427.9)"/><path class="cls-210" d="M989,582.06l1,3.93c-1.44,0-2.72-.21-3-2Z" transform="translate(-848.9 -427.9)"/><path class="cls-211" d="M991,580l-1.84,1.1L986,580l-4.1,0c-.67-3.44,3.22-3.62,4.21-5.88a5.36,5.36,0,0,1,3.86-1.65c1.86.71,3.75,0,5.63.15,1.73.63,3.85,1.11,1.4,3.44l-5,2c-.45-.42-.85-.28-1.19.14s-.14.57.17.83Z" transform="translate(-848.9 -427.9)"/><path class="cls-1" d="M915,558l-3,0c-1.29-4.25-4.85-.73-7-2.05.55-5.45-2.18-10.48-2-15.88.84-1.21,2.13-.93,3.31-1l1.36,0c1.68,0,2.92-.57,3.2-2.42,1-2.25,1.46-4.92,4.17-6,3.48.26,4.7,2.84,5.73,5.6.34,1,.3,2.08,1.27,2.76a5,5,0,0,1,.87,1c1.23,2.44,1.67,6,5.89,4.29a3.4,3.4,0,0,1,1.33.3c1.56,1,1.37,2.72,1.57,4.27a16.61,16.61,0,0,1,0,2.64,11.09,11.09,0,0,1-1.27,3.21,4,4,0,0,1-1.84,2.38c-2.62,1.15-5.24,0-7.86,0C918.81,557.08,916.74,556.51,915,558Z" transform="translate(-848.9 -427.9)"/><path class="cls-212" d="M900,536c2.06-.92,2.79.15,3,2a.87.87,0,0,1,.35.72q0,.42-.12.42a1,1,0,0,1-1.17,0L901,539Z" transform="translate(-848.9 -427.9)"/><path class="cls-213" d="M902.07,539.18a7.6,7.6,0,0,1,.92-.3c1.52-.22,3.31-1.48,4.08,1.08L903,540Z" transform="translate(-848.9 -427.9)"/><path class="cls-214" d="M971.89,539.05a7.08,7.08,0,0,1,.16.9,2.94,2.94,0,0,1-1.2,1.22c-3,1.33-6.11,1.05-9.22.46a16,16,0,0,1-2.29-.33c-1.82-.54-3.22-3-5.51-1.24,1,1.1,2.19,2.08,2,3.76-.77,2.1.7,4.54-.93,6.53-3.85,2-6.8-1.43-10.27-1.7-1-2.85-3.87-2.93-6.1-3.94-1.2-1.17-2.62-2.18-3-4s-.28-3.46-1.54-4.84a3.49,3.49,0,0,0-2.67-1.41c-1.48,0-2.6-.91-3.81-1.58a4.09,4.09,0,0,1-1.22-1.74,5,5,0,0,1-.19-1.33,2.45,2.45,0,0,0-.5-2.19,4.13,4.13,0,0,0-2-1.12,19.07,19.07,0,0,1-2.59-.6,9.29,9.29,0,0,1-3.44-2.71c-2.93-4.71-3.94-10-5-15.36-.11-1.64-.32-3.29.73-4.75.9-1,2-.8,3.14-.62a3.08,3.08,0,0,1,2.79,1.54c.16,1.35.56,2.71-.31,4a18.8,18.8,0,0,0,2,7.4c2-.53.87-4.3,3.79-3.44L925,515c1.34.62,2.67,1.32,4,0l1.15-1c5.38-2.52,8.16-1.1,9.64,4.91-.3,2-2.28,1.68-3.83,2.5,2.1.37,2.91-1.06,4.08-1.77a1.65,1.65,0,0,1,1.69.88c1.37,2.27-.55,6,3.27,7.2,1.33.54,2.22,2.22,4,1.56l-.06-.39c1.14-.42,1.64.16,1.84,1.19a10.11,10.11,0,0,0,6.14,4.07,7.25,7.25,0,0,0,4,1.88C964.42,537.77,968.16,538.42,971.89,539.05Z" transform="translate(-848.9 -427.9)"/><path class="cls-215" d="M997,576c.82-2.23-.84-1.89-2.06-2-.56-.78-1.71-.24-2.27-1-.65-1.74-1.15-3.47.25-5.12,1.13-.72,2.35-.31,3.54-.3A9.09,9.09,0,0,1,1001,570h0c0,.66,0,1.33,0,2-2.53.19,0,4.18-3,4Z" transform="translate(-848.9 -427.9)"/><path class="cls-216" d="M996,569l-3-1-.59.14a6.65,6.65,0,0,1-2.43.33,6.28,6.28,0,0,1-2.61-.41c-1-.56-2.22-.86-2.58-2.17l2.2-2,2-1c.26,4.46,3.7,2.73,6.06,3.12h4l2-1a3.71,3.71,0,0,1,0,4l0,0A5.23,5.23,0,0,1,996,569Z" transform="translate(-848.9 -427.9)"/><path class="cls-217" d="M1004,564l-1,1c-2,.63-1.17-1.33-1.82-1.93l-.15-3c1-1.52,0-3.34.73-4.91L1002,554h1l1,2C1004.38,558.67,1003.32,561.33,1004,564Z" transform="translate(-848.9 -427.9)"/><path class="cls-218" d="M1001.18,563.07,1003,565v1l-2,3,0-4C1001.07,564.36,1001.13,563.71,1001.18,563.07Z" transform="translate(-848.9 -427.9)"/><path class="cls-219" d="M1001.76,555.14c.24,1.71.67,3.44-.73,4.91C1001.1,558.39,1000.64,556.64,1001.76,555.14Z" transform="translate(-848.9 -427.9)"/><path class="cls-220" d="M910,499c1.16-2.59.34-4.88-1.07-7.08.06-.29.11-.57.16-.86a4.44,4.44,0,0,1,2.2-.92,2.65,2.65,0,0,1,2.81.82v0L915,492a4.18,4.18,0,0,1,.47,2.08,6.5,6.5,0,0,1-.32,2.19,8.42,8.42,0,0,1-1.67,2.5C912.33,499.64,911.2,500.07,910,499Z" transform="translate(-848.9 -427.9)"/><path class="cls-221" d="M911,492l-1.91-.95c.29-1.27.49-2.58.9-3.82.52-1.56.23-4.1,3-3.57,2.43.48,2.11,2.56,1.86,4.4C914,489.84,911.45,489.88,911,492Z" transform="translate(-848.9 -427.9)"/><path class="cls-222" d="M911,492a6.41,6.41,0,0,0,0-1c-.5-3.29.33-4.84,3.83-3-.25,1-.49,1.93-.73,2.89Z" transform="translate(-848.9 -427.9)"/><path class="cls-223" d="M919,487l0,4.07c-1.05.7-2,.83-2.94-.24C916.24,489,917.47,487.86,919,487Z" transform="translate(-848.9 -427.9)"/><path class="cls-153" d="M916,490.83l2.94.24c0,.29,0,.59,0,.88l0,.07a3.36,3.36,0,0,1-5,0c0-.36,0-.72.08-1.08Z" transform="translate(-848.9 -427.9)"/><path class="cls-224" d="M945,529c-6.21-.22-4.48-4.42-4-8,.54-.52.17-1.51,1-1.87l.87-.09c.06,1.1,0,2.21,1,3,1.22.6,1.34,2,2.13,2.93l-.09,1C945.52,527,946.23,528.31,945,529Z" transform="translate(-848.9 -427.9)"/><path class="cls-225" d="M945,529a3.72,3.72,0,0,1,.89-2.94c1.05,1.08,2.09,2.16,3.14,3.23C947.48,532,946.28,529.93,945,529Z" transform="translate(-848.9 -427.9)"/><path class="cls-226" d="M950.81,530.09c-.61-.4-1.22-.8-1.84-1.19l0-1.91c1.31-.58,2,.51,3,1C952.57,529.24,952.2,530,950.81,530.09Z" transform="translate(-848.9 -427.9)"/><path class="cls-118" d="M946,525a4,4,0,0,1-2.13-2.93C947.53,520.89,946.34,523.25,946,525Z" transform="translate(-848.9 -427.9)"/><path class="cls-227" d="M952,528l-3-1c.09-1.5.94-1.46,2-1Z" transform="translate(-848.9 -427.9)"/><path class="cls-228" d="M942,519.14c-.34.62-.67,1.24-1,1.87l-1-1c-.34.45-.67.47-1,0-.13-6.17-4.55-6-8.85-6a4.21,4.21,0,0,1,0-.94l3.82-3,2.92,1Z" transform="translate(-848.9 -427.9)"/><path class="cls-229" d="M919,508v-4a2.86,2.86,0,0,1,0-4h0c.33-.41.66-.39,1,0C919.68,502.68,920.82,505.52,919,508Z" transform="translate(-848.9 -427.9)"/><path class="cls-230" d="M920,500h-1c1.1-1.19,2.55-1,3.94-1,0,.33,0,.67.06,1l-1,2Z" transform="translate(-848.9 -427.9)"/><path class="cls-231" d="M929,515c-1.34,5.21-2.67.29-4,0Z" transform="translate(-848.9 -427.9)"/><path class="cls-232" d="M913,498l1-2a1.92,1.92,0,0,1,2.83.16l2.15,1a3.43,3.43,0,0,1-3,1.92,1.8,1.8,0,0,1-2.31,0l-.44-.45Z" transform="translate(-848.9 -427.9)"/><path class="cls-153" d="M916.81,496.09l-2.83-.16c0-.64,0-1.29,0-1.93a3.83,3.83,0,0,1,5,0l.06,2Z" transform="translate(-848.9 -427.9)"/><path class="cls-233" d="M919,500v4h-3c-.85-1.33-1.3-2.67,0-4Z" transform="translate(-848.9 -427.9)"/><path class="cls-234" d="M916,500v4l-2-1c-1.8-1.6-1.38-3.27-.15-5l2.11,1Z" transform="translate(-848.9 -427.9)"/><path class="cls-235" d="M923,566.89l1.15-1.82c.4-2.09,1.76-2.89,3.78-2.82,2.17.68,2.66,2.33,2.26,4.3s-1.74,2.7-3.56,2.89c-1,.1-2,.37-3,.38C921.62,569.26,921.36,568.3,923,566.89Z" transform="translate(-848.9 -427.9)"/><path class="cls-24" d="M927.21,563l-3.1,2A6.17,6.17,0,0,1,922,560a8.38,8.38,0,0,1,5,1l.45.36A1.51,1.51,0,0,1,927.21,563Z" transform="translate(-848.9 -427.9)"/><path class="cls-236" d="M923,566.89c-.14.71-.71,1.42,0,2.11a2.28,2.28,0,0,1,.43,2.89,2,2,0,0,1-1.39.67c-2.15-.36-2.18-2-2.13-3.63l2.09-2A4.4,4.4,0,0,0,923,566.89Z" transform="translate(-848.9 -427.9)"/><path class="cls-237" d="M915,558c1-2.92,3.56-1.81,5.54-1.92,2.81-.16,5.63,0,8.45,0l.51.49c.92,4,.63,4.52-2.31,4.44l-.26.11c-.39-2.45-2.38-1.88-3.94-2.1-2.19-1.59-4.69-.74-7.06-.9A5.84,5.84,0,0,1,915,558Z" transform="translate(-848.9 -427.9)"/><path class="cls-238" d="M937,576h-2c-1-1.92.16-2.68,1.67-3.28a59.34,59.34,0,0,1,7.42-.22c3,.07,6.06-.16,9.09.17a.35.35,0,0,0,.27-.24,1,1,0,0,0-.21-.43,3.65,3.65,0,0,1-.64-1.65c.29-3.92-2.68-5.25-5.34-6.9-4-2.48-4.31-3.87-1.77-7.8,4.26-1.16,6.77,2.45,10.14,3.71a10.26,10.26,0,0,1,1.19.61,8,8,0,0,0,4.77,1.8,3.64,3.64,0,0,1,1.84,1,3.92,3.92,0,0,1,.65,1.25,5.45,5.45,0,0,1,.07,2.09c-.39,1.74.2,2.6,2,2a14.75,14.75,0,0,1,3.24-1,41.82,41.82,0,0,1,4.88,0c1.86.13,4.41-1,4.75,2.31,2.31-1.11,4.62-1.53,6.9.09a2.22,2.22,0,0,1-.05,2.76,4.64,4.64,0,0,1-2.46,1.58,4.11,4.11,0,0,1-1.4.05c-.77-.11-1.27-.87-2-.87a.45.45,0,0,0,.11.65,2,2,0,0,1,.33,1,2.66,2.66,0,0,1-1.45,2.06,3,3,0,0,1-2.07-.06c-1.37.08-2.63.7-4,.88a4,4,0,0,0-2.12,1,3,3,0,0,0-.73,1.52c-.38.61-.76,1.22-1.13,1.83l-5,1.1c-.34-.33-.67-.67-1-1l2-2a5,5,0,0,0-5.53-2.11c-4.88.17-9.74.21-14.61-.06C942.05,578.05,939.16,578.56,937,576Z" transform="translate(-848.9 -427.9)"/><path class="cls-239" d="M970.09,580.06,969,578a3.89,3.89,0,0,1,3-1c1.08,0,2.18,0,3,1a7,7,0,0,1-.12.92L971,580.13A3.54,3.54,0,0,0,970.09,580.06Z" transform="translate(-848.9 -427.9)"/><path class="cls-240" d="M978.94,575.84l1.15-1.8a1.53,1.53,0,0,1,1.23-.38c1.42,1,2.56-.12,3.8-.52a2.55,2.55,0,0,1,2,.59A.92.92,0,0,1,987,575c-1,2.36-3.78,2.92-5.09,5l-1,0h-1C978.14,579,977.68,577.62,978.94,575.84Z" transform="translate(-848.9 -427.9)"/><path class="cls-241" d="M975,578H972a1.31,1.31,0,0,1,0-2h5c.23.21.29.41.19.59s-.2.26-.29.26Z" transform="translate(-848.9 -427.9)"/><path class="cls-242" d="M976.94,576.87a7.89,7.89,0,0,1,.1-.85l1.9-.18c.35,1.38.69,2.76,1,4.14C977.74,580.13,976.93,578.9,976.94,576.87Z" transform="translate(-848.9 -427.9)"/><path class="cls-243" d="M994.09,582,993,581a37.09,37.09,0,0,1,4.6-1.64c2.11-.47,3.24.28,2.39,2.65-1.31,1.74-2.61-1.38-3.93,0A2,2,0,0,1,994.09,582Z" transform="translate(-848.9 -427.9)"/><path class="cls-244" d="M994.09,582c.65-.25,1.3-.74,2,0-.44,1.7-.77,3.49-2.87,4L991,586Z" transform="translate(-848.9 -427.9)"/><path class="cls-245" d="M985.9,570H975.83c0-1.11,1.33-.72,2-2H969c-2.54.94-4.71.8-6-2l0-2a2.78,2.78,0,0,1,2.72-.83,2.4,2.4,0,0,1,1.12.94c.93,1.6,2.48,1.84,4.12,1.9a30.34,30.34,0,0,0,12,.11l1.84-.18c1.2.12,2.43.18,3.26,1.27C988.39,568.91,987.42,569.67,985.9,570Z" transform="translate(-848.9 -427.9)"/><path class="cls-246" d="M966.86,564.06A3.45,3.45,0,0,1,966,564a8.69,8.69,0,0,0-2.5-1.89c-1.17-.63-2.07.25-3.08.53-1.67,0-2.91-1.2-4.43-1.62l.09-.22c-1.53-2.95,1.24-3.42,2.67-4.66,2.37-.58,4.4.41,6.43,1.4a10.33,10.33,0,0,0,5.19,2.41,7.27,7.27,0,0,1,1.07.65c2,.52,4-.18,5.93-.54,1.91.06,3.93-.7,5.62.83.31,0,.62.06.94.07,1.09,1.78-.25,1.95-1.44,2C977.28,563.2,972.13,564.48,966.86,564.06Z" transform="translate(-848.9 -427.9)"/><path class="cls-238" d="M983,566.07a16.33,16.33,0,0,1-12-.1Z" transform="translate(-848.9 -427.9)"/><path class="cls-247" d="M909,524h-4c-1.58-1.79-.8-4-1-6,2.18.84.79-1.88,2-2,1.82-2.48.67-5.33,1-8h2a3,3,0,0,1,1.95,2.64c-.17,1.7-.45,3.42.81,4.88a4.15,4.15,0,0,1,.31,1.21A5.58,5.58,0,0,1,912,518a1.8,1.8,0,0,0,.44,1.5,4.21,4.21,0,0,1,1.5,2,3.62,3.62,0,0,1,0,1.43c-.6,1.34-1.41,2.15-2.91,1.13Z" transform="translate(-848.9 -427.9)"/><path class="cls-248" d="M909.81,511.12c-.28-1-.56-2.08-.85-3.12q-.08-4-.17-8c.08-.33.17-.65.25-1l1,0,3-1,0,0c.94,2.33.24,4.76.44,7.13.27,1-2.76.67-.91,2.57a4.09,4.09,0,0,1,.36,4.65,2.45,2.45,0,0,1-1.92,1.2C909.65,513.19,909.33,512.36,909.81,511.12Z" transform="translate(-848.9 -427.9)"/><path class="cls-249" d="M991,579c-.61-.61-1.21-1.48-.43-2.06,1.08-.81,1.21.37,1.45,1.09Z" transform="translate(-848.9 -427.9)"/><path class="cls-1" d="M961,540l10,0c1.53,2.2,5.08.9,6.31,3.62-.26.81-.88,1-1.67,1.1-.63.09-.83.66-.3.25s.08.88.35.26c1.41,1,2.93,1.77,4.31,2.75,1.93,1.94,3.32,4.11,3,7l0,1a5.32,5.32,0,0,1-1.8,1.24,4,4,0,0,1-2.67-.29,1.11,1.11,0,0,0-1.78,0,4.29,4.29,0,0,1-1.84.53c-2.19-.06-4,1-6,1.79-3.28.69-4.83-3.59-8.15-2.85-1.57-1-2.94-2.2-2.66-4.36,1.33-2.68.61-5.67,1.27-8.45A4.2,4.2,0,0,1,961,540Z" transform="translate(-848.9 -427.9)"/><path class="cls-250" d="M980,548c-1,.42-2.24,2.82-2.84.39-.4-1.62-4.86-.32-2.16-3.39.46-.73,1.48-.34,2-1-1.67-1.81-5.7-.09-6-4l1-.07h0c1.58,1,3.44,1.22,5.09,2l1.89,1c0,.3,0,.61,0,.91C979.35,545.28,979.68,546.64,980,548Z" transform="translate(-848.9 -427.9)"/><path class="cls-251" d="M981,556h2v4.88L977.09,562c-1.88-1.35-4.27.63-6.12-.93v0c-.57-.75-1.87-.22-2.26-1.28.15-1.41,1.44-1.64,2.34-2.28,2.89-.94,5.91,0,8.82-.65A3.85,3.85,0,0,0,981,556Z" transform="translate(-848.9 -427.9)"/><path class="cls-252" d="M920.81,576l2.17,2-2,1a3,3,0,0,0-3,0C916.88,576,919,576.19,920.81,576Z" transform="translate(-848.9 -427.9)"/><path class="cls-253" d="M919.91,568.93,922,572a2.15,2.15,0,0,1-1,3.14L917,573c-.24,0-.48-.07-.73-.09C916.07,570.26,918.49,570.05,919.91,568.93Z" transform="translate(-848.9 -427.9)"/><path class="cls-254" d="M921,575.14l1-3.14h1c3.34-4.09,4.63-4.12,7.32-.17A4.27,4.27,0,0,1,929,576l-2,1a10.17,10.17,0,0,0-5.84-.94A3.27,3.27,0,0,1,921,575.14Z" transform="translate(-848.9 -427.9)"/><path class="cls-175" d="M919,494h-5v-2l5,0Z" transform="translate(-848.9 -427.9)"/><path class="cls-255" d="M906,516c-.2,1.22.44,2.53-.42,3.68L904,518v-2Z" transform="translate(-848.9 -427.9)"/><path class="cls-256" d="M911,524a2.22,2.22,0,0,0,2-2.1c3.4-.3,3.32,3,4.81,4.69,1.18,1.31,1.63,3.15,2.56,4.67.74,1.81,2.18,3.51.94,5.65a1,1,0,0,1-1.34.1c-1.55-2.11-2.72-4.53-5-6a1.08,1.08,0,0,1-1-1Z" transform="translate(-848.9 -427.9)"/><path class="cls-257" d="M914,530l1,1c.38,2.69-3.13,3.43-3,6-1.73,0-1.67-.82-1-2C911.15,532.82,910.28,530,914,530Z" transform="translate(-848.9 -427.9)"/><path class="cls-258" d="M911,535c.33.66.66,1.33,1,2,1.72,3,1.72,3-4,3a1.2,1.2,0,0,1,.17-1.91l1.12-2.15Z" transform="translate(-848.9 -427.9)"/><path class="cls-259" d="M908.13,538.07c-.06.64-.11,1.27-.17,1.91l-.89,0c-1.11-1.3-2.67-.9-4.08-1.08,0-.3,0-.59,0-.89Z" transform="translate(-848.9 -427.9)"/><path class="cls-218" d="M1004,564a7.72,7.72,0,0,1,0-8C1006.09,558.67,1004.44,561.33,1004,564Z" transform="translate(-848.9 -427.9)"/><path class="cls-260" d="M996,569l5,0,.06,1C999.28,569.89,997.44,570.41,996,569Z" transform="translate(-848.9 -427.9)"/><path class="cls-261" d="M945,576h16a2.86,2.86,0,0,1,0,4h-8a6.26,6.26,0,0,1-7.8.38C943.61,579.31,943.84,577.53,945,576Z" transform="translate(-848.9 -427.9)"/><path class="cls-262" d="M945,576c0,6.63,5.14,3,8,4v2c-2.54,1.35-5.46-.36-8,1h0l-6-1c-.64-2-2.55-3.59-2-6Z" transform="translate(-848.9 -427.9)"/><path class="cls-263" d="M961,580v-4c3-.32,4.32,1,4,4Z" transform="translate(-848.9 -427.9)"/><path class="cls-264" d="M945,583c2.48-1.82,5.33-.67,8-1a3.7,3.7,0,0,1,.26.7c0,.08-.17.2-.26.3Z" transform="translate(-848.9 -427.9)"/><path class="cls-265" d="M929,576v-4c2.46-2.35,5.08-2.59,7.87-.6A1.91,1.91,0,0,1,937,574a2.11,2.11,0,0,0-2,2Z" transform="translate(-848.9 -427.9)"/><path class="cls-1" d="M977.1,542a5.87,5.87,0,0,1-5.09-2A7.3,7.3,0,0,1,977.1,542Z" transform="translate(-848.9 -427.9)"/><path class="cls-266" d="M985.9,570c.71-1,1.43-1.89,2.15-2.84l2.94-.11c1,1.11,0,2.26.07,3.4a5.11,5.11,0,0,1-.54,2.33l-.43.42L987,575v-1c-.58-.84-1.87-1-2.16-2.09C985.19,571.28,985.54,570.64,985.9,570Z" transform="translate(-848.9 -427.9)"/><path class="cls-267" d="M993,573l2,1c-1.62-.26-3.74,2.46-4.86-.81l-.15-.3A2,2,0,0,1,993,573Z" transform="translate(-848.9 -427.9)"/><path class="cls-268" d="M929.06,544.86c-4.24,2.75-5.83,1.65-7.06-4.86a1.81,1.81,0,0,1,1.84-.5c.78.7,1.58,1.11,2.48.13a3.42,3.42,0,0,1,3.44,2.3A2.82,2.82,0,0,1,929.06,544.86Z" transform="translate(-848.9 -427.9)"/><path class="cls-269" d="M929,553l2-2a3.34,3.34,0,0,1,.43-2c.26-1.18,1-1.53,2.11-1.21,1.64,1,2.7,2.32,2.5,4.37-.68,2.37-1.64,4.46-4.62,4.42C929.67,556,930.07,554,929,553Z" transform="translate(-848.9 -427.9)"/><path class="cls-270" d="M933,548l-1,2c-1,.35-1.25-.08-1-1-1.84-.92-.22-2.73-1-3.92a1.92,1.92,0,0,1,2-.65,2.49,2.49,0,0,1,1.66,2.28A2.15,2.15,0,0,1,933,548Z" transform="translate(-848.9 -427.9)"/><path class="cls-271" d="M932,545.09h-2a7.24,7.24,0,0,0-.92-.22c0-.92-.07-1.84-.11-2.76l.48-.64a2.81,2.81,0,0,1,3.7.27A2.36,2.36,0,0,1,932,545.09Z" transform="translate(-848.9 -427.9)"/><path class="cls-272" d="M920,537l1.2-.11a1,1,0,0,1,1.18.34c.58,1.44-.41,2.1-1.38,2.76-.76-.2-1.9-.17-2.19-.65C918.17,538.27,919.58,537.8,920,537Z" transform="translate(-848.9 -427.9)"/><path class="cls-273" d="M921,540l1-3a1.53,1.53,0,0,1,1.27-.34,2.31,2.31,0,0,1,1.37,1.46A1.88,1.88,0,0,1,924,540h-3Z" transform="translate(-848.9 -427.9)"/><path class="cls-274" d="M931,549l1,1-1,1c-.6-.14-1.33-.23-1.33-1S930.4,549.14,931,549Z" transform="translate(-848.9 -427.9)"/><path class="cls-275" d="M929,553a3.38,3.38,0,0,1,2,3,1.37,1.37,0,0,1-2,0h0Z" transform="translate(-848.9 -427.9)"/><path class="cls-276" d="M919,531.91l-6-10A4.68,4.68,0,0,0,913,521a9.38,9.38,0,0,1-1.91-4.07,3.74,3.74,0,0,0-.13-.94,2.21,2.21,0,0,1,0-3l1.11-1c1-1.22.07-2.81.77-4.1A1,1,0,0,1,914,508l5,14.94c.36,1.91,1.61,3.59,1.38,5.65C920.44,529.88,920.32,531.16,919,531.91Z" transform="translate(-848.9 -427.9)"/><path class="cls-277" d="M959,552l2,4c-.59.61-1.42.47-2.14.66-5.57.81-13.16-3.39-15.13-8.36A.79.79,0,0,1,945,548c3.63-.84,6.58,1.69,10,2l.67.08c1,.37,2.21.46,3,1.33C958.8,551.6,958.9,551.8,959,552Z" transform="translate(-848.9 -427.9)"/><path class="cls-3" d="M961,544c-.39,2.73,1.18,6-2,8h0c-1-1.38-3-.63-4-2l0,0c.09-2-4.45-4,0-6Q958,541.22,961,544Z" transform="translate(-848.9 -427.9)"/><path class="cls-278" d="M939,520h1c-.34.76-.66,1.53-1,2.28-1,2.22-3,2.06-4.64,1.29-1.91-.89-1.7-3-.89-4.34,1.25-2.09,2.8-.72,4.18.24A6,6,0,0,0,939,520Z" transform="translate(-848.9 -427.9)"/><path class="cls-5" d="M961,544h-6c-.06-2-2.94-2-3-4a6.25,6.25,0,0,1,7,0h2Z" transform="translate(-848.9 -427.9)"/><path class="cls-279" d="M935,535c4,.31,1.15,3.41,2,5-.8.79-1.54,1.65-2.78,1.73a3.54,3.54,0,0,1-1.31-.35,4.85,4.85,0,0,1-1.1-.82c-.87-1.11-1.85-2.18-1.68-3.76a3.31,3.31,0,0,1,1.54-2.34C932.91,533.81,934,534.3,935,535Z" transform="translate(-848.9 -427.9)"/><path class="cls-19" d="M959,540h-7c-.9-.16-2.36.18-2.19-1.24.1-.74,1.82-2,1.9-1.92C953.84,538.62,957.63,536.63,959,540Z" transform="translate(-848.9 -427.9)"/><path class="cls-280" d="M921.91,525l2.09-1a8.79,8.79,0,0,1,2.7,5.7,14.67,14.67,0,0,1-.31,2.18,2.19,2.19,0,0,1-1.26.71c-2.71-.08-3.66-2.23-4.84-4.11a3.78,3.78,0,0,1,0-2.16A2.66,2.66,0,0,1,921.91,525Z" transform="translate(-848.9 -427.9)"/><path class="cls-281" d="M945,548l-1,0a2.5,2.5,0,0,1-3.19.73,3.9,3.9,0,0,1-2.15-4.17l.39-.6C941.8,544.14,945.42,543.05,945,548Z" transform="translate(-848.9 -427.9)"/><path class="cls-282" d="M932,535l-1,2.08a2.48,2.48,0,0,1-2.57.1,4.05,4.05,0,0,1-1.1-.82,3.77,3.77,0,0,1-.84-3.22A1.8,1.8,0,0,1,928,532l4,1A1.36,1.36,0,0,1,932,535Z" transform="translate(-848.9 -427.9)"/><path class="cls-283" d="M934,541a3.54,3.54,0,0,1,3-1l2,4-.1.14a2.69,2.69,0,0,1-2.91.72A3.13,3.13,0,0,1,934,541Z" transform="translate(-848.9 -427.9)"/><path class="cls-284" d="M945.5,541.94c-2.58.25-4.16.34-5.88-1.31C941.74,539.84,943.28,539.6,945.5,541.94Z" transform="translate(-848.9 -427.9)"/><path class="cls-248" d="M914,508l-1,0a1.32,1.32,0,0,1,0-2l.06-8.08c.28.05.56.08.84.11l.15,5C914,504.66,914,506.32,914,508Z" transform="translate(-848.9 -427.9)"/><path class="cls-285" d="M921.91,525l-.82,1c-1,.36-.13,2.64-2.09,2-.29-1.69-1.18-3.4.07-5.07Z" transform="translate(-848.9 -427.9)"/><path class="cls-286" d="M927,527c.15-.6.27-1.37,1.06-1.27s.9.9.63,1.47A28.36,28.36,0,0,1,927,530,2.34,2.34,0,0,1,927,527Z" transform="translate(-848.9 -427.9)"/><path class="cls-287" d="M927,527v3c-.34.5-.67.47-1,0l-2-6C925.89,524.11,925.9,526.1,927,527Z" transform="translate(-848.9 -427.9)"/><path class="cls-288" d="M932,535c0-.67,0-1.33,0-2,1.45,0,2.72.25,3,2C934,535.82,933,534.92,932,535Z" transform="translate(-848.9 -427.9)"/><path class="cls-289" d="M926,530h1l1,2-1.08,1c-.82.14-1.18-.15-.95-1Z" transform="translate(-848.9 -427.9)"/><path class="cls-290" d="M993,573l-3-.06c-.31-1-.62-1.93-.94-2.9,1.41-.51,2.06-2.54,4-2h0C992.37,569.65,995.25,571.31,993,573Z" transform="translate(-848.9 -427.9)"/><path class="cls-215" d="M993,568c-1.32.68-2.35,2-4,2l2-3Z" transform="translate(-848.9 -427.9)"/><path class="cls-1" d="M929,556h2c2.24-.42,2.35-3,4-4,2-1.87,3.92-1.49,5.67.19a24.08,24.08,0,0,0,5,3.13l.41.65c-1.64,3-1.09,4.87,2.41,6,3.69,1.21,6.46,3.44,5.55,8-1.07,1.18-2.29.82-3.51.33-2.4-1-3.94.13-5.1,2.16A3.14,3.14,0,0,1,944,573c-2.34-.17-4.83.73-7-1h-8c-2-4.47-4,.09-6,0,0-1,0-2,0-3,1.1-.33,2.19-.7,3.3-1,3.78-1,3.75-2.74.91-5,0-.7,0-1.4,0-2.1C930,560.1,927.3,557.24,929,556Z" transform="translate(-848.9 -427.9)"/><path class="cls-291" d="M942.9,548.14,944,548a38.16,38.16,0,0,0,14.94,8c.74.19.79.49.13.9-.57,1.59-2.75,1.94-2.94,3.83-3.94-.37-6.72-3.17-10.05-4.82h0c-3.26-1.34-6.49-2.72-8.3-6.05C938.8,547.44,941.27,549,942.9,548.14Z" transform="translate(-848.9 -427.9)"/><path class="cls-35" d="M954,572c2,.27,4.19-.64,6.1,2H945a1.35,1.35,0,0,1,0-2h0C948,568.91,951,570.19,954,572Z" transform="translate(-848.9 -427.9)"/><path class="cls-5" d="M954,572h-9c-.27-4.35,2.3-4.47,5.42-3.56A28.94,28.94,0,0,1,954,570Z" transform="translate(-848.9 -427.9)"/><path class="cls-292" d="M963,566l6,2a6.32,6.32,0,0,1-5.4,2c-1-.06-2-.29-2.32-1.45C960.94,567.09,961.69,566.32,963,566Z" transform="translate(-848.9 -427.9)"/><path class="cls-293" d="M945,572v2h-8v-2Z" transform="translate(-848.9 -427.9)"/><path class="cls-294" d="M984.84,571.92A2.29,2.29,0,0,1,987,574h-2c-1.24.65-2.12.64-2.08-1.11Z" transform="translate(-848.9 -427.9)"/><path class="cls-295" d="M961,562.11c.45-1.9,1.37-2.53,3-1.11.45,1.11,0,1.73-1.06,2.1h-2a.65.65,0,0,1-.19-.67C960.82,562.22,960.89,562.11,961,562.11Z" transform="translate(-848.9 -427.9)"/><path class="cls-296" d="M961,562.11l0,1c-2.5,1.31-3.35-1.27-4.94-2.1Z" transform="translate(-848.9 -427.9)"/><path class="cls-169" d="M962.94,563.1,964,561c1.14.68,3,.91,2,3l-3,0C963,563.66,963,563.38,962.94,563.1Z" transform="translate(-848.9 -427.9)"/><path class="cls-297" d="M981,574h-.92L979,574a1.38,1.38,0,0,1,0-2c1.55-1.41,2.24-.11,3,.95C982.4,574,981.91,574.18,981,574Z" transform="translate(-848.9 -427.9)"/><path class="cls-298" d="M981,574l1-1.11c.31,0,.61,0,.91,0L985,574C983.68,576.2,982.35,576.2,981,574Z" transform="translate(-848.9 -427.9)"/><path class="cls-299" d="M972,576v2h-3C969.28,576.24,970.56,576,972,576Z" transform="translate(-848.9 -427.9)"/><path class="cls-300" d="M979,572c0,.67,0,1.34,0,2-1.06-.29-2.37-.12-2.8-1.55Z" transform="translate(-848.9 -427.9)"/><path class="cls-301" d="M959,557a8.47,8.47,0,0,0-.13-.9L961,556c3.17-1.33,5.11,2.26,8,2a1.33,1.33,0,0,1,2,0l-2,2c-1.68,1.24-2.7-.41-4-.92Z" transform="translate(-848.9 -427.9)"/><path class="cls-169" d="M971,561c2.06.19,4.24-.45,6.12.93-1.86.31-3.71.75-5.58.9C969,563.06,970.49,561.85,971,561Z" transform="translate(-848.9 -427.9)"/><path class="cls-295" d="M965,559.06l4,.92,2,1C968.82,560.9,966.41,561.53,965,559.06Z" transform="translate(-848.9 -427.9)"/><path class="cls-302" d="M910.89,513c0,1,0,2,0,3-2.73-1.09-2.11-2.93-1.1-4.86Z" transform="translate(-848.9 -427.9)"/><path class="cls-303" d="M911,520c-.16.59-.41,1.66-1.11,1-1.41-1.42,0-2.21,1.07-3A1.33,1.33,0,0,1,911,520Z" transform="translate(-848.9 -427.9)"/><path class="cls-304" d="M911,520c0-.67,0-1.33,0-2,0-.36,0-.73.07-1.09A6.45,6.45,0,0,1,913,521Z" transform="translate(-848.9 -427.9)"/><path class="cls-305" d="M913,506c0,.66,0,1.33,0,2,0,1.4.2,2.88-1,4-.31-1.95-1-3.92-.84-5.85C911.29,503.88,912.34,505.88,913,506Z" transform="translate(-848.9 -427.9)"/><path class="cls-306" d="M971,558l-2,0c1.6-1.83,3.74-2.05,6-2,1.84,1.21,4.13-.27,6,1C977.82,559.14,974.35,558,971,558Z" transform="translate(-848.9 -427.9)"/><path class="cls-307" d="M977,556c.21-1.13-.49-2.56,1.06-3.31,1.5,1.16.23,2.23-.06,3.31A.6.6,0,0,1,977,556Z" transform="translate(-848.9 -427.9)"/><path class="cls-308" d="M977,556h1l3,0c0,.33,0,.66,0,1-2-.19-4.18.58-6-1Z" transform="translate(-848.9 -427.9)"/><path class="cls-309" d="M977,544l-2,1c-.47-.06-1.26,0-1.37-.22-.53-1.13.57-.68.94-.73A16.14,16.14,0,0,1,977,544Z" transform="translate(-848.9 -427.9)"/><path class="cls-177" d="M919,528l2.09-2,0,1.79c.7,3.05,5.46,5.23,1.94,9.17l-1,0a7,7,0,0,0-.8-.13l-2.19-5C919,530.6,919,529.3,919,528Z" transform="translate(-848.9 -427.9)"/><path class="cls-310" d="M928.07,535.93a9.12,9.12,0,0,1,.9.23c1,1.24,2.14,2.42,1.34,4.22a7.15,7.15,0,0,1-1.29,1.56l-.07.16-3-1.93c-1.45.18-1.41-.87-1.51-1.81a3.34,3.34,0,0,1,0-2.05C925.52,534.92,926.77,535.18,928.07,535.93Z" transform="translate(-848.9 -427.9)"/><path class="cls-311" d="M925,538.12c.35.68.7,1.36,1,2,.37,1.05.74,2.11,1.24,3.57-2.84,0-3.2-1.72-3.23-3.73,0-.62,0-1.23,0-1.85C924.29,537.72,924.61,537.71,925,538.12Z" transform="translate(-848.9 -427.9)"/><path class="cls-312" d="M938.05,550l8,6c-2.16.08-4.29.24-5.73-2-1.23-1.91-3.25-2.09-5.3-2l-2-4v-.94l.48-.49.69-.1C935.9,547.15,937.74,547.73,938.05,550Z" transform="translate(-848.9 -427.9)"/><path class="cls-313" d="M934,547.06h-.49l-.48,0c-.35-.66-.7-1.32-1-2,.34-1,.69-2.06,1-3.08a.68.68,0,0,1-.22-.74c.09-.24.18-.36.26-.36a6,6,0,0,1,1,.13l2.15,2.91A3.37,3.37,0,0,1,934,547.06Z" transform="translate(-848.9 -427.9)"/><path class="cls-314" d="M933,540.91c0,.37,0,.73,0,1.1l-4-.07c0-.65,0-1.3,0-2a3,3,0,0,1,3.91.08A7.9,7.9,0,0,1,933,540.91Z" transform="translate(-848.9 -427.9)"/><path class="cls-315" d="M925,538.12l-.48,0-.48.06L923,537c.64-3.33-1.45-6.08-1.94-9.17l4,4.14c1,1.35,1.22,2.71,0,4Z" transform="translate(-848.9 -427.9)"/><path class="cls-1" d="M955,550c1.62.07,3.48-.32,4,2C957.38,551.92,955.51,552.32,955,550Z" transform="translate(-848.9 -427.9)"/><path class="cls-316" d="M932.92,540.06,929,540c.75-1.28.19-2.55,0-3.82l2,.92Z" transform="translate(-848.9 -427.9)"/><path class="cls-317" d="M925,536c-.79-1.36-.12-2.7,0-4,.32,0,.64,0,1,.09.32.33.64.66.95,1l1.14,2.89A3,3,0,0,1,925,536Z" transform="translate(-848.9 -427.9)"/><path class="cls-318" d="M934,547.06c0-1.52.36-2.83,2.17-3.11l2.78.17,2.25,3.8c-2.7,2.07-4.89.1-7.21-.89Z" transform="translate(-848.9 -427.9)"/><path class="cls-319" d="M934,547l7.21.89,1.74.22L938,550C936.5,549.25,934.85,548.66,934,547Z" transform="translate(-848.9 -427.9)"/></svg>