<svg id="Layer_1" data-name="Layer 1" xmlns="http://www.w3.org/2000/svg" viewBox="0 0 402.2 402.2"><defs><style>.cls-1{fill:#00205a;}.cls-2{fill:#fefefe;}.cls-3{fill:#7e8dab;}.cls-4{fill:#8190ad;}.cls-5{fill:#7b8ba9;}.cls-6{fill:#c4ccd9;}.cls-7{fill:#c1c9d7;}.cls-8{fill:#02225b;}.cls-9{fill:#02215b;}.cls-10{fill:#03225b;}.cls-11{fill:#10b48d;}.cls-12{fill:#04235c;}.cls-13{fill:#0fb48d;}.cls-14{fill:#03235c;}.cls-15{fill:#05245d;}.cls-16{fill:#07255e;}.cls-17{fill:#384c7d;}.cls-18{fill:#06245d;}.cls-19{fill:#06255d;}.cls-20{fill:#05235d;}.cls-21{fill:#08265f;}.cls-22{fill:#173268;}.cls-23{fill:#153067;}.cls-24{fill:#223b70;}.cls-25{fill:#1c356b;}.cls-26{fill:#183369;}.cls-27{fill:#132f66;}.cls-28{fill:#122e65;}.cls-29{fill:#102d64;}.cls-30{fill:#1f386d;}.cls-31{fill:#52628e;}.cls-32{fill:#88cfb8;}.cls-33{fill:#86ceb7;}.cls-34{fill:#16c0f2;}.cls-35{fill:#0eb38c;}.cls-36{fill:#587e9e;}.cls-37{fill:#1e386c;}.cls-38{fill:#539dc9;}.cls-39{fill:#5f6d98;}.cls-40{fill:#5f6e97;}.cls-41{fill:#52638e;}.cls-42{fill:#4b5988;}.cls-43{fill:#5e6d97;}.cls-44{fill:#557495;}.cls-45{fill:#5e6e97;}.cls-46{fill:#4f7291;}.cls-47{fill:#4f7f96;}.cls-48{fill:#617199;}.cls-49{fill:#567796;}.cls-50{fill:#4c608b;}.cls-51{fill:#5a6f96;}.cls-52{fill:#4e7692;}.cls-53{fill:#5d7398;}.cls-54{fill:#527092;}.cls-55{fill:#536e92;}.cls-56{fill:#567a97;}.cls-57{fill:#4e6e90;}.cls-58{fill:#5b6f96;}.cls-59{fill:#4e6c8f;}.cls-60{fill:#4e6d90;}.cls-61{fill:#4b608b;}.cls-62{fill:#293f73;}.cls-63{fill:#4f688e;}.cls-64{fill:#5f6f99;}.cls-65{fill:#527393;}.cls-66{fill:#517192;}.cls-67{fill:#4f6d90;}.cls-68{fill:#507a95;}.cls-69{fill:#51658f;}.cls-70{fill:#51668f;}.cls-71{fill:#537695;}.cls-72{fill:#626e99;}.cls-73{fill:#526790;}.cls-74{fill:#053168;}.cls-75{fill:#9199ba;}.cls-76{fill:#045a8f;}.cls-77{fill:#077eb2;}.cls-78{fill:#fcfcfd;}.cls-79{fill:#fafbfc;}.cls-80{fill:#f5f6f8;}.cls-81{fill:#fdfdfd;}.cls-82{fill:#dddfe9;}.cls-83{fill:#eeeff5;}.cls-84{fill:#e7e9f0;}.cls-85{fill:#043164;}.cls-86{fill:#f4f7fb;}.cls-87{fill:#033162;}.cls-88{fill:#079788;}.cls-89{fill:#0c83b8;}.cls-90{fill:#093369;}.cls-91{fill:#032d66;}.cls-92{fill:#0c9ed1;}.cls-93{fill:#14aad9;}.cls-94{fill:#0d93c7;}.cls-95{fill:#b6bbd2;}</style></defs><title>sunshine_beach_shs_logo_400</title><path class="cls-1" d="M972,340h1c5.9.87,11.88.66,17.8,1.14,14.59,1.2,28.5,5.34,42,10.56,45.91,17.73,80.87,48.24,105.09,91.06a192.75,192.75,0,0,1,21.45,58.39c1.77,9,2,18.17,2.14,27.31v25c.26,35.67-11.65,67.58-30.49,97.21-19.39,30.5-45.57,53.76-77.49,70.44a184.23,184.23,0,0,1-57.11,19.06,139.59,139.59,0,0,1-22.87,1.37H948.59c-33.17.53-63.22-10.09-91.25-26.69C823,694.45,797,666,779.15,630.18a196.19,196.19,0,0,1-17.09-51.49c-1.47-7.82-.85-15.84-2.06-23.69v-3c1.07-3.65.24-7.39.5-11.08V526.51c-.39-29.65,8.71-56.86,22.68-82.41,20.75-37.93,50.83-66.49,89.74-85.5a199,199,0,0,1,46.75-15.87c8.84-1.84,17.83-1.94,26.8-2.23h5C958.34,340.2,965.2,341.14,972,340Z" transform="translate(-759.9 -339.9)"/><path class="cls-2" d="M974,741.13c100.6-6.68,181-87,187.09-187.09.26-.66.55-.67.87,0q0,91.88.1,183.76c0,3.6-.74,4.35-4.34,4.34q-91.89-.21-183.76-.1C973.37,741.68,973.38,741.39,974,741.13Z" transform="translate(-759.9 -339.9)"/><path class="cls-2" d="M1161.14,528A200.65,200.65,0,0,0,995.29,343.26c-6.53-1.13-13.2-1.54-19.8-2.29-.91-.11-2.06.38-2.49-1q92.51,0,185-.1c3.42,0,4.1.68,4.1,4.1q-.21,92-.1,184C1161.68,528.63,1161.39,528.62,1161.14,528Z" transform="translate(-759.9 -339.9)"/><path class="cls-2" d="M760,555c2.32,5.55,1.89,11.56,2.78,17.33C776,658,844.82,726.59,930.62,739.16c5.75.84,11.56,1.33,17.34,2,.41.17.56.35.43.55s-.26.31-.39.31q-91.87,0-183.75.1c-3.61,0-4.36-.74-4.35-4.34Q760.11,646.38,760,555Z" transform="translate(-759.9 -339.9)"/><path class="cls-2" d="M946,340.88C847.61,347.74,767.69,427.66,760.88,526c-.27.66-.56.67-.88,0q0-90.88-.1-181.76c0-3.6.74-4.35,4.34-4.34q90.89.21,181.76.1C946.63,340.32,946.62,340.61,946,340.88Z" transform="translate(-759.9 -339.9)"/><path class="cls-3" d="M972,340c-7,2.19-14.06.59-21.09.81q-.45-.31-.27-.57A.48.48,0,0,1,951,340Z" transform="translate(-759.9 -339.9)"/><path class="cls-4" d="M953,741.11h16.11c.34.22.45.43.32.62s-.25.27-.38.27H953c-.37-.18-.5-.37-.4-.57S952.83,741.11,953,741.11Z" transform="translate(-759.9 -339.9)"/><path class="cls-4" d="M1161.11,549.06V533c.33-.48.62-.46.89,0v16C1161.74,549.5,1161.44,549.54,1161.11,549.06Z" transform="translate(-759.9 -339.9)"/><path class="cls-5" d="M760.74,541c0,3.68,1.32,7.45-.74,11V541C760.25,540.46,760.49,540.49,760.74,541Z" transform="translate(-759.9 -339.9)"/><path class="cls-3" d="M760.74,541H760V531c.22-.47.49-.52.81-.09Z" transform="translate(-759.9 -339.9)"/><path class="cls-6" d="M1161.11,549.06a4.44,4.44,0,0,1,.89-.06v5c-.29,0-.58,0-.87,0C1161.12,552.38,1161.12,550.72,1161.11,549.06Z" transform="translate(-759.9 -339.9)"/><path class="cls-7" d="M1162,533a3.77,3.77,0,0,1-.89,0l0-5a8.27,8.27,0,0,1,.86,0Z" transform="translate(-759.9 -339.9)"/><path class="cls-7" d="M760.81,530.91h-.41l-.4.1v-5l.88,0Z" transform="translate(-759.9 -339.9)"/><path class="cls-7" d="M953,741.11a2.22,2.22,0,0,1,0,.89h-5a3.55,3.55,0,0,0,0-.86Z" transform="translate(-759.9 -339.9)"/><path class="cls-7" d="M951,340l-.09.81-4.95.07a2.18,2.18,0,0,0,0-.88Z" transform="translate(-759.9 -339.9)"/><path class="cls-6" d="M969,742a2.24,2.24,0,0,1,.06-.89l5,0a2.55,2.55,0,0,0,0,.87Z" transform="translate(-759.9 -339.9)"/><path class="cls-2" d="M769.53,541.07C769.6,435.93,854,351.24,957.68,349.61c107.58-1.69,191.87,84.3,194.57,186,2.86,107.47-83.09,194-186.32,196.71C860.14,735,769.74,650,769.53,541.07Z" transform="translate(-759.9 -339.9)"/><path class="cls-1" d="M1046.1,420.94c24.41,16.86,41.64,39.44,52.37,66.9,33.09,84.64-19.21,179.9-108.38,197.72C910.72,701.42,833,650.09,816.53,570.9a147.69,147.69,0,0,1,69.85-157.11c1.56-.92,3-2,4.54-3,2.58,2.71,1.07,5.88,1,8.88-2.87,5.52-8.76,7.46-13.31,10.94A140.37,140.37,0,0,0,830.46,497a46.49,46.49,0,0,0-2,8.22c-1.71,9.29-4.16,18.46-4.21,28-1.26,4.54-1,9.15-.37,13.71a61,61,0,0,1,.61,9.34,66.92,66.92,0,0,0,2,11.67,27.62,27.62,0,0,1,.79,2.87,16.32,16.32,0,0,0,1,4.77,9.89,9.89,0,0,1,.46,2c.67,1.67.69,3.52,1.49,5.15a22.63,22.63,0,0,0,2.09,5.56,11.55,11.55,0,0,1,.35,1.28,42.8,42.8,0,0,0,1.85,4.92c1,2,1.73,4.1,2.94,6,1.94,3.82,4.6,7.27,6.07,11.35.41,1.71,1.62,2.93,2.66,4.25a11.34,11.34,0,0,1,1.37,2.15,11.37,11.37,0,0,0,2.22,3.06,6.3,6.3,0,0,1,.72,1.05,14.41,14.41,0,0,0,2.32,3,6.89,6.89,0,0,1,.73,1.06c.77,1.59,2.18,2.62,3.4,3.81a25.18,25.18,0,0,1,2.53,3.12,48.32,48.32,0,0,0,9.28,9.29,23.63,23.63,0,0,1,3.12,2.53,11.55,11.55,0,0,0,2.9,2.54,17.79,17.79,0,0,1,2,1.53,13.05,13.05,0,0,0,2.82,2.37,7.66,7.66,0,0,1,1.06.64,13,13,0,0,0,2.55,1.73,7.38,7.38,0,0,1,1,.73,8.55,8.55,0,0,0,4.27,2.51,4.22,4.22,0,0,1,1.08.69,6,6,0,0,1,.79,1c.68,1.13,1.86,1.31,3,1.53,3.18,2,7,2.52,10.17,4.59a10.54,10.54,0,0,0,4.4,2.63c2.13.58,4,2,6.27,2.1a22.84,22.84,0,0,1,3.23,1.12,45.82,45.82,0,0,0,7.06,2.56,10.21,10.21,0,0,1,2.06.44c2.24.81,4.61,1.07,6.9,1.7,1.78-.06,3.39.8,5.13,1a39.24,39.24,0,0,1,4.72.31c2.91,1,6,.58,9,1a44.14,44.14,0,0,0,17.44,0c4-.48,8.14,0,12.07-1.26.5-.13,1-.22,1.51-.3,2.37-.65,4.88-.54,7.21-1.42a7.43,7.43,0,0,1,1.4-.3c1.9.11,3.56-1,5.43-1.06,1.48-.52,3-.91,4.45-1.57a10.35,10.35,0,0,0,3.1-1.27,24,24,0,0,1,8.36-3.22,7.63,7.63,0,0,0,5.2-2.36,9,9,0,0,1,2.37-1.25,14.78,14.78,0,0,0,7.55-3.8c4.49-3,9-6,13.69-8.62a5.8,5.8,0,0,0,3.23-2.73,7.59,7.59,0,0,1,2.06-1.49c1.5-.49,2.29-1.73,3.09-3,5.15-4.11,9.41-9.1,13.86-13.9,1.5-.89,2.9-1.87,3.47-3.65a5.21,5.21,0,0,1,.72-1.08c1.48-1.22,3-2.39,3.38-4.46a43.6,43.6,0,0,1,5.55-8.71c3.24-2.36,4.12-6.16,5.82-9.48,8.71-16.76,13.19-34.55,14.47-53.44,1.8-26.67-4-51.44-16.6-74.74-12.35-22.81-30.11-40.42-52.61-53.24a138.26,138.26,0,0,0-50.32-16.77c-21.26-2.88-42,0-62.34,6.53a24.94,24.94,0,0,0-4.41,2.3,3.31,3.31,0,0,1-2.36,0,16.53,16.53,0,0,1-4.32-6.59c-.4-1.78.75-2.12,2.12-2.66a148.84,148.84,0,0,1,43.92-9.87,145.27,145.27,0,0,1,45.77,4C1014.49,402.75,1030.87,410.58,1046.1,420.94Z" transform="translate(-759.9 -339.9)"/><path class="cls-1" d="M891,419.92c-1.6-3,.23-6.08-.1-9.12,2.39-4.48,6.66-4.74,11-4.87,1.54-.57,2.73.4,4,.92,1.76,1.72,3.27,3.56,3.2,6.22A120.83,120.83,0,0,1,912,439.34a89.29,89.29,0,0,0,1.19,11.74,9.15,9.15,0,0,1,1,2.63,4.32,4.32,0,0,1,0,1.86,9.3,9.3,0,0,0-.16.92,6.28,6.28,0,0,0,.55-.68c8.46-4.36,15-2.83,21.77,4.1,1.67,1.69,2.61,2.33,4.9.83,5.66-3.69,8.9-2.32,11.17,4.31.9,2.62.72,6.29,5.33,5.06a1.55,1.55,0,0,1,1.6,1c.38,4.14,1.79,8.2,1.56,12.33-.12,2.05-2.45,3-4.66,3-31.18.09-62.34,0-93.51,0a18.51,18.51,0,0,1-4.46-.3c-5-2-8.43-5.86-11.25-10.18s-1.55-7,3.22-8.48a16.67,16.67,0,0,0,4.71-2.71c2.38-1.69,4.82-2.34,7.23-.13,2.1,1.92,3.13,1.06,3.76-1.25a5.93,5.93,0,0,1,3.7-4.39,4.7,4.7,0,0,0,3.11-4.1c.42-2.44,1.79-3.58,4.48-3.63,3.55-.07,6.5-1.09,8.19-5,1.56-3.63,4.38-3.66,7.23-.79a7.11,7.11,0,0,1,.86,4c.15.8.48,1.55.71,2.34-.2-.76-.5-1.48-.69-2.25a7.86,7.86,0,0,0-1.09-4.54c-2.75-4.44-.89-9.59-2.12-14.35-.6-2.33-.62-5.1-1-7.66A11.13,11.13,0,0,1,891,419.92Z" transform="translate(-759.9 -339.9)"/><path class="cls-8" d="M1107.33,433.76l6.6,8.62c-7,.87-18.67,10.24-19.31,15.6-3-2.38-4.5-5.75-7.63-9.13,3.7.41,5.84-1,8.11-2.45,3.22-2.1,3.52-4.09.76-6.58-1.43-1.29-1.93-5-4.5-3.34s-6.58,2.37-6.17,6.82a6.67,6.67,0,0,1-.37,1.64c-3.06-2.49-4.67-5.73-7-8.61,6.79-.85,19-10.83,18.93-15.62,3.5,2.21,4.76,5.88,8,9.1-4.72-.32-8.83.85-9.09,4.66-.15,2.2,2.57,6.69,5.7,6.52C1104.05,440.84,1107.41,438.44,1107.33,433.76Z" transform="translate(-759.9 -339.9)"/><path class="cls-8" d="M1115.61,512.6c-.69-3.6-1.38-7.21-2.13-11.1,6.28,2.75,21.22-.77,24.15-5.65,1.69,3.66,1.46,7.47,2.67,11.69-4-2-8.07-3.23-10,.69-1,2.12-.37,7.19,1.87,8.07,2.7,1.05,7.14.71,8.17-5.55,2,4.9,2.08,8.69,2.79,12.61-6.19-2.91-21.22.66-24.2,6.11-.83-4.26-1.55-7.89-2.52-12.87,3.94,4,7.33,1.59,10.71,1.36,1.13-.08,2.23-.86,1.72-1.87-1.35-2.66.82-7.49-3.14-8C1122.47,507.67,1117.61,507.18,1115.61,512.6Z" transform="translate(-759.9 -339.9)"/><path class="cls-8" d="M1059.06,418.43c3.74-.94,9-6.39,7.69-8.18-1.8-2.41-4.06-5.13-7.42-5-2.31.09-5.08,7-4.23,10.34-4-1.22-6.17-4.38-10.26-6.75,6-.71,7.81-5.06,10.12-8.54,2.17-3.25,7.17-5.56,4.37-11.33,4.17,1.19,6.44,4.36,10.26,6.62-4.33,1.15-8.13,3.1-7.12,7.08.62,2.42,4.4,5.71,7.13,4.75,2.47-.86,5.38-4.15,2.45-8.71,4.55,1.3,6.76,4.51,10.14,6.44-6.09,2.28-15.19,15-14.55,19.92A23.31,23.31,0,0,1,1059.06,418.43Z" transform="translate(-759.9 -339.9)"/><path class="cls-9" d="M828.93,416.54c.24-.61.3-1.17.61-1.46,2.29-2.1,4.62-4.15,7.52-6.72.27,4.27,1.7,8.26,5.4,8.25,2.55,0,6.44-3.26,6.1-6.17-.3-2.69-2.84-6.22-8.31-3.95,2.83-4.3,6-6.27,9.77-9.61-1.39,4.37.51,6.52,2.63,8.18,4.11,3.22,5.44,9.59,11.83,10.28,1.16.13,1.12,1.48.18,2.28-2.22,1.89-4.49,3.73-7.91,6.55,1.54-4,0-5.82-1.83-7.51-1.26-1.18-2.19-3.89-4-3a20.93,20.93,0,0,0-6.28,5.53c-1,1.25,4.55,6.81,7,7a14.3,14.3,0,0,0,2.47-.27c-2.11,3.73-5.46,5.5-8.75,8.91.61-6.12-3.55-8.55-6.46-11.61C836.1,420.43,834.56,415.51,828.93,416.54Z" transform="translate(-759.9 -339.9)"/><path class="cls-9" d="M792.36,604.16c-1.21,3.08-1.91,5.93,1,8.53-5-.28-7.53-3.18-6.92-7.61a59.06,59.06,0,0,1,1.35-5.82c1.36-5.63,1.2-5.92-4.3-8.17,5.47,1.16,7.66-3.3,11.14-5.67a13.39,13.39,0,0,1,18,2.76,11.91,11.91,0,0,1,.13,15.52,13.87,13.87,0,0,1-18.51,2C793.62,605.21,793,604.69,792.36,604.16Z" transform="translate(-759.9 -339.9)"/><path class="cls-10" d="M943.1,386c3.65-6.3,2.39-22.06-2.79-25.53,7.17.67,13.09-1.5,19.05.28,4.55,1.36,5.66,4.61,2.9,8.79-.85,1.3-1.26,1.71.34,2.4,3.66,1.59,3.86,4.82,3.22,8s-3.44,4.25-6.26,5C954.34,386.28,949,385.34,943.1,386Z" transform="translate(-759.9 -339.9)"/><path class="cls-11" d="M1135.14,549.1c.4,5.1,3.63-.24,5,1.62,0,1.56-2.07,2.18-2.37,3.81,1.06,1.58,3,1,4.43,1.88-.8,1.68-3,1.28-4.16,3l3.07,3.36c-2.27.77-5.87-1.28-4.9,3.78.38,2-2.08-1.79-4.09-.43-.29.88-.82,2.44-1.52,4.53l-2.24-4.44c-1.94-.1-2.37,2.27-4.39,2.52,1-4.16-.11-6.18-5.53-3.17,1.52-2.38,2.36-3.69,3.2-5-1.18-1.37-3-1.09-4.67-2.06,2.29-1.49,6.64-2.49.78-6.2l5.69-.42c-.34-1.6-.65-3-1.13-5.26,3,2.18,5.9,4.84,5.87-1.06,2.65.06,1.29,3.1,3.5,3.49L1134,547C1135.82,546.85,1135.56,547.93,1135.14,549.1Z" transform="translate(-759.9 -339.9)"/><path class="cls-12" d="M804,449l4.33-8c4,9.05,14,9.41,20.78,15.87l-25.74,7.31c5.72,2.2,9.37,9.81,17.9,5.44L816,479.1c-1-5.94-5.37-7.37-9.2-9.25s-7-6.35-12.81-2c4.22-13.6,16.9-9.27,24.83-14.71C814,451.92,810.79,445.65,804,449Z" transform="translate(-759.9 -339.9)"/><path class="cls-12" d="M897,387.38c-2.26-4.6-1.31-11.54-9.93-11.64l10.34-5c-2.93,5.31-.13,8.9,1.56,12.7s3.55,7.76,6,13.09l-25.66-9.47c1.24,8.2,5,13.65,10.22,14.45-2.27,2.57-5.49,2.93-7.92,4.51-.26-9.29-3.23-17-10.69-22.61,3.74-3.31,8-3.49,12.81-1.18C888,384.26,892.55,385.69,897,387.38Z" transform="translate(-759.9 -339.9)"/><path class="cls-13" d="M786.83,565.89c.17-4-3.3-.52-4.39-2.56l1.83-2.82c-1.22-1.49-3.18-1-4.76-2.11,2.25-1.38,6.86-2.14,1.41-5.78,1.61-1.45,6.06,1.16,4.8-4-.43-1.74,2.3,1.05,3.87.8l1.81-4.85,2.13,4.31c2,0,2.39-2.37,4.43-2.61-.8,3.94-.16,6.48,4.69,3.58,0,2.26-1.86,3-2.29,4.61,1,1.65,2.92,1.08,4.33,1.82-.55,2-3,1.26-4.13,3.06l2.79,3.06c-1.35,1.5-3.2-.12-4.69.93l.56,4.77c-3-2.29-5.58-4-5.44,1.34-2.57-.14-1.6-2.86-3.33-3.67l-2.4,2.25C786.18,568.16,786.47,567.05,786.83,565.89Z" transform="translate(-759.9 -339.9)"/><path class="cls-8" d="M1113.89,638.19c-3.19-5.17-17.17-12.06-22.56-10.79,2-3.89,3.56-7.45,5.5-10.82,3.88-6.75,9.64-8.67,15.93-5.54,6.91,3.44,9.66,10.19,6.63,17.06C1117.87,631.55,1115.79,634.75,1113.89,638.19Z" transform="translate(-759.9 -339.9)"/><path class="cls-14" d="M1132.29,596.17c.07,7.23-4.6,12.39-11.33,12.52A13.83,13.83,0,0,1,1106.85,595c0-6.94,5-12.17,11.76-12.18C1126.44,582.79,1132.22,588.44,1132.29,596.17Z" transform="translate(-759.9 -339.9)"/><path class="cls-12" d="M946.31,721.76h-8c3.72-8.19,5.25-16.25,1.74-24.72,4.41-1.29,6.23-.79,9,2.87,3.2,4.19,6.37,8.38,10.28,13.52.36-6,2.52-11-2.08-15.41h8.41c-6.26,7.61-2.31,16.72-5.3,25.23-6-6-10-13.22-16-19.14C945.24,709.94,940.49,716.14,946.31,721.76Z" transform="translate(-759.9 -339.9)"/><path class="cls-15" d="M902.52,369.46c5.47-1.58,10.29-2.78,15-4.38,4.22-1.43,5.28.44,5.28,4.5-2.1-.13-3.17-2.59-5.36-1.77-1.61.6-4.2.05-4.43,2.2s.63,4.24,1.42,6.21c.45,1.12,1.71.24,2.63,0,2.08-.5,2.22-2.73,3.63-4,1.52,2.52,1.79,5.26,2.37,8.47-2.66-1.51-5.65-4-7.17-.91-1.14,2.33,0,7.18,2.18,8,4.65,1.75,7.25-2.26,9.74-5.93,1.23,3,1.44,6.1-2.19,7.38-4.91,1.74-10.1,2.71-15.36,4.06C912.25,386.53,907.79,372.12,902.52,369.46Z" transform="translate(-759.9 -339.9)"/><path class="cls-12" d="M789.18,481.78c-.36-2.85,1.22-5.08,2-8.37,2.8,4.93,7.58,4.9,11.57,6.37,9.51,3.5,12.18,11.28,6.62,19.78-2.53,3.86-6.12,4.32-10.09,3.38-2.9-.68-5.7-1.77-8.55-2.68s-5.69-2.75-8.52.61L786,490.06c4.8,5.38,11.11,6.42,17.4,7.1,3,.33,4.82-2.07,5.55-4.85s.58-5.71-2.08-7.68c-4-2.94-8.85-3.68-13.41-5.13C791.53,478.88,791,481.5,789.18,481.78Z" transform="translate(-759.9 -339.9)"/><path class="cls-12" d="M971.48,360.28c6.51.67,12.1,1,17.62,1.88,4.93.78.69,4.22,1.57,6.44-2-4.05-5.34-5.92-9.08-4.24-1.67.75-2.28,5.16-1.07,6.77,2,2.72,4.63.09,7-1.41.92,3-.79,5.38-.38,7.93a1.7,1.7,0,0,1-1.88-1.1,3.75,3.75,0,0,0-4.5-2.28c-1.65.4-1.38,2.49-1.52,3.88-.2,1.9-1.36,4.48.45,5.6,2.09,1.28,4.87.85,7.18-.35a39,39,0,0,0,4-2.84c-.32,4.6-1.75,7.18-6.4,6.57s-9.45-1.18-14.3-1.78C974.41,379.55,975.65,364.43,971.48,360.28Z" transform="translate(-759.9 -339.9)"/><path class="cls-15" d="M819.07,605.89l4.84,8.79c-6.7-.12-11.27,3.93-16.18,7-2.45,1.54-3.08,4.28-1.79,7.1s3.61,4.58,6.75,3.93c5-1,9-4.07,13.3-6.62,1.55-.93.46-2.8,1.41-4.33,2,1.88,2.83,4.06,4.19,7.5-3-2.1-4.77-.79-6.59.18-2.78,1.48-5.47,3.19-8.35,4.45-6.31,2.75-11.41.75-14.47-5.44-2.79-5.64-1.41-9.32,5-13.06,2.44-1.42,4.91-2.81,7.43-4.09C816.78,610.21,818.59,608.93,819.07,605.89Z" transform="translate(-759.9 -339.9)"/><path class="cls-12" d="M1098.08,647.63c4.85,3.23,5.31,5.18,2.48,8.6-2.6,3.14-5.31,6.21-7.77,9.06-5.28-7.09-11.39-12.59-19.3-16,2.23-2.75,4.67-5.65,7-8.64,3.46-4.44,3.42-4.46,7.79.52-4.28-1.13-7.31.75-7.79,4.11-.27,1.92,3.11,4.42,5.26,4.42,3.2,0,1.93-3.47,2.38-5.67,2.56.87,3.9,3,6.76,4.85-3.11.65-7.19.22-6.25,3.43.71,2.42,4.36,5.87,6.59,5.23C1099.29,656.4,1099.71,652.1,1098.08,647.63Z" transform="translate(-759.9 -339.9)"/><path class="cls-15" d="M890.69,687.69c-1.07-1-.21-2.16-.43-3.19-.41-1.88-1.91-2.71-3.43-3.31-2.15-.83-2.35,1.28-3,2.43-1.68,2.85-3.1,5.87-4.88,8.65-1.93,3-3.55,5.94-1.23,9.9L866.56,696c4.12-.09,5.79-2.51,7.22-5.51s3.22-5.8,4.71-8.76c.68-1.36,2.63-2.75,1.09-4.37s-3.62-2.36-5.84-.82a4.22,4.22,0,0,1-1.38.3c1.43-5.41,1.86-5.58,6.38-3,3.59,2.07,7.18,4.15,10.84,6.08C894.7,682.63,894.73,682.57,890.69,687.69Z" transform="translate(-759.9 -339.9)"/><path class="cls-15" d="M998.91,381.81l13.75-15.18c2.89,9.9,1.73,19.64,5.62,29l-11-3.28c2.33-2.09,4.46-4.87,2.36-7a9,9,0,0,0-9.52-2.28C999.05,383.27,998.61,382.89,998.91,381.81Z" transform="translate(-759.9 -339.9)"/><path class="cls-16" d="M782.14,521c2.51,1.82,4.34.85,5.75-1.48,1.11-1.85,1.93-3.88,3.16-5.64a7.92,7.92,0,0,1,13.86,1.25c1.86,4,.34,7.62-1.54,10.91-1.54,2.71-4.64,1.48-7.15,2-.19-2.47,1.63-2.31,2.63-2.89,2.07-1.21,3.84-2.55,4.46-5.05.56-2.22.1-4-2-5s-3.56.06-4.62,1.81-2,3.81-3.24,5.6c-2.51,3.75-6.09,4.71-10,2.75-3.7-1.87-5.08-5.08-3.35-9.18C783.07,516.72,780.31,519.78,782.14,521Z" transform="translate(-759.9 -339.9)"/><path class="cls-17" d="M905.92,406.85a5.56,5.56,0,0,1-4-.92c13.22-6.55,27.38-10,41.88-11.61,34.47-3.82,66.58,3.44,96,21.89,2.21,1.38,4.73,2.43,6.27,4.73-3.61-.56-6.08-3.26-9-5-21.6-12.69-44.67-20.08-69.87-21.09a146.4,146.4,0,0,0-58.5,9.47C907.62,404.73,905.25,404.31,905.92,406.85Z" transform="translate(-759.9 -339.9)"/><path class="cls-18" d="M1039.59,380.17c-3.83,1.05-6.14,3.72-7.64,7.23-1.58,3.7-2.07,7.49.55,10.84s6.23,3.35,10,2.39c.79-.21,1.56-.64,2.35-.06-3.39,4-9.4,4.47-14.52,1.16a12.24,12.24,0,0,1-4.36-16.5c3.63-7,9.41-9.13,17-6.17C1042.5,381.41,1040.87,380.26,1039.59,380.17Z" transform="translate(-759.9 -339.9)"/><path class="cls-16" d="M1108.12,487c-2.86-5-2.68-10.08,1.16-14.28s9-5.48,14.58-3.63,8,6,9,11.43c.86,4.67,1.13,8.83-5.93,9.15,1.11-2,2.22-3.71,3-5.55a7.33,7.33,0,0,0-7.48-10.52c-7.53.67-12.87,5.15-13.52,11.34C1109.7,486.05,1109.71,486.87,1108.12,487Z" transform="translate(-759.9 -339.9)"/><path class="cls-19" d="M1030.1,681.19c-.12,8.11,5.06,13.69,7.89,20.17.63,1.45,2,.42,3-.11,2.86-1.5,3.78-4.31,4.41-7.51,3.38,3.69,3.07,6.54-.81,8.6s-7.77,3.59-11.73,5.4c.06-6.78-7-20-12.14-21.87Z" transform="translate(-759.9 -339.9)"/><path class="cls-18" d="M1011.5,689c-1.16,8,2.85,14.34,5.41,20.92,1.06,2.72,3.27-.21,4.86-.89.56-.23.86-1,1.39-1.39,1.31-.91.29-3.69,2.73-3.53.88,0,1,1.15,1.1,2,.15,2.18-.51,4.17-2.52,5-3.19,1.37-6.55,2.32-9.84,3.46-1.08.38-2.14.81-3.85,1.46,1-5-.71-9-2.47-13-1.63-3.64-.57-9-6.35-10.73Z" transform="translate(-759.9 -339.9)"/><path class="cls-15" d="M834.3,667.92c4.45-1.32,14.53-12.91,14.36-18.34l7.66,7c-7,2.72-10.4,9-15.22,13.72-2,1.92.35,4.73,4.21,5.63,1.54.36,3.35-1.4,4.49.4.63,1-.48,1.91-1.36,2.3-2.08.93-4.5,1.23-6.07-.51C839.38,674.82,836.79,671.13,834.3,667.92Z" transform="translate(-759.9 -339.9)"/><path class="cls-18" d="M834,445.1a7.23,7.23,0,0,0,3.38-2.79,3.67,3.67,0,0,0-.13-4.59,3.1,3.1,0,0,0-4-.77c-2.08,1-4,2.2-6.13,3.17-3.67,1.7-7.19,1.49-9.76-1.89-2.35-3.07-2.39-6.35.39-9.35,1.09-.36,1.39.15,1.26,1.14-.59,1.66-1.77,3.35.25,4.9,1.81,1.39,3.43.5,5-.39a58.89,58.89,0,0,1,5.2-2.88c3.4-1.45,6.55-.87,9,2a7.91,7.91,0,0,1,1.15,9.24c-2.73,5.4-7.07,6.7-12.47,3.85C828.94,444,832,446.52,834,445.1Z" transform="translate(-759.9 -339.9)"/><path class="cls-15" d="M822,644.08l18.89-5.46c-3.58,9.53-9.83,16.74-12.58,26.12l-6.28-7.83c6.87-2.06,7.15-3.94,1.89-10.76C823.67,645.12,821.41,645.92,822,644.08Z" transform="translate(-759.9 -339.9)"/><path class="cls-12" d="M984.91,709.8a84,84,0,0,1,3.59-15.36c6.32,7.27,9.82,15.91,16.57,22.8l-9.9,2.11c1-2.86,1.46-5.77-1-7.17s-5.44,0-8.09.85C983.46,712.74,984.72,711.08,984.91,709.8Z" transform="translate(-759.9 -339.9)"/><path class="cls-15" d="M1117,448.88c.42.25,1,.39,1.19.73,1.61,2.86,3.15,5.75,4.78,8.76-6.29-.73-19.83,7.34-21,12.44-2.34-.66-2.29-3-3.21-4.56s-2.38-2.76-2.6-4.69C1102.93,461.5,1115.7,453.78,1117,448.88Z" transform="translate(-759.9 -339.9)"/><path class="cls-15" d="M879.7,407c-3.32,3.56-6.71,5-10,7.17.26-6.25-8.92-19.39-13.9-19.94,1.45-3.25,5.08-3.54,7.19-5.67.77-.77,1.63,0,1.76.88.83,5.53,5.28,9.05,7.61,13.73C873.67,405.77,875.45,407.74,879.7,407Z" transform="translate(-759.9 -339.9)"/><path class="cls-12" d="M905.05,700.11c-2.26,3.78-5.78,7.29-1.52,13.28l-11.69-4.49c10.85-6.79,4-16.32,4.68-25l8.55,3c-3.74,3.24-1.52,7.15-2,10.69C903.23,698.88,905.82,698.17,905.05,700.11Z" transform="translate(-759.9 -339.9)"/><path class="cls-15" d="M1066,677c1.63-4.11-.37-6.85-3.44-9.21a12.54,12.54,0,0,0-6.75-2.53l7.29-6.29c2.35,5.56,6.89,7.67,12,9,.32-.39.36-1,1-1.16,3.32,2.74,2.9,7.11,4.65,10.83-4.66-.91-8-4.18-12-6.13-1.34,1.17.64,2.32.12,3.5-.14,1.23.33,2.8-1.39,3.26C1066.52,678.54,1065.83,678.09,1066,677Z" transform="translate(-759.9 -339.9)"/><path class="cls-12" d="M857.75,690l-7.07-5c6.31-5.79,11.74-11.87,14.35-20.68,2.4.62,4.21,3.68,7.12,4.85C865.78,675,860.4,681.1,857.75,690Z" transform="translate(-759.9 -339.9)"/><path class="cls-20" d="M932,720.18c-2.5.58-5.33-1.65-8.37-1.19,3.41-8.06,5.59-16,4.41-24.92,2.51-.57,5.29,2,8.74.89C932.91,703.32,930.94,711.31,932,720.18Z" transform="translate(-759.9 -339.9)"/><path class="cls-12" d="M1066,677c2.66,1.85,1.53-1.76,2.78-1.94l3.7,11c-9.37-4-16.09-10.34-24.64-13.69,1.54-2.58,4.25-3.84,6.45-6C1056,672.7,1062.51,673.12,1066,677Z" transform="translate(-759.9 -339.9)"/><path class="cls-21" d="M1108.12,487l.9-2.06c1.36,1.71,1.86,4.63,5,3.91,3-.68,5.58-1.89,6.25-5.78l4,10.31c-1.89,1.23-3.08-.71-4.82-.29C1112.25,494.8,1111.6,494.32,1108.12,487Z" transform="translate(-759.9 -339.9)"/><path class="cls-22" d="M1076.06,666.84l-1,1.16a25.94,25.94,0,0,1-2-4.87c-.77-3.76-2.11-6.65-8.17-5.69l7.67-6.26C1072.51,657.24,1075.67,661.67,1076.06,666.84Z" transform="translate(-759.9 -339.9)"/><path class="cls-23" d="M905.05,700.11l-1.93-2.46c5.14-1.52,7-4,6-9l7.18,2.7Z" transform="translate(-759.9 -339.9)"/><path class="cls-24" d="M822,644.08l1.92,2.07c-4.23-.65-5.67,1.44-5,5.78-3-1.38-4-4-6.18-6.27Z" transform="translate(-759.9 -339.9)"/><path class="cls-25" d="M984.91,709.8c.26,1.12,0,2.42,1.15,3.23-1.29,3.23-.43,5.62,4.38,7.16l-9.59,1.95C983.21,717.89,983.31,713.63,984.91,709.8Z" transform="translate(-759.9 -339.9)"/><path class="cls-26" d="M1047.16,381.93c5.35,2.24,5.4,5.57,1.77,9.91l-3-8.65C1045.65,382.09,1046.07,381.68,1047.16,381.93Z" transform="translate(-759.9 -339.9)"/><path class="cls-27" d="M998.91,381.81l1.19,1.24c-1.77,2.4-1.79,4.6,1.94,6.65-4.27.53-6.69-1.55-10.36-1.63Z" transform="translate(-759.9 -339.9)"/><path class="cls-28" d="M819,430l-1.26-1.14c6-6.06,6-6.06,11.51-1.27C825.6,428.37,821.74,427.24,819,430Z" transform="translate(-759.9 -339.9)"/><path class="cls-29" d="M782.14,521c-1.94-1.12-.52-3.63-2-4.93,2.19-6.83,2.19-6.83,9.2-5.4C784.92,513,780.21,515,782.14,521Z" transform="translate(-759.9 -339.9)"/><path class="cls-30" d="M1047.16,381.93l-1.25,1.26c-1.81-1.63-4.1-2.26-6.32-3,1.12-.39,2.49,0,3.39-1.11A6.12,6.12,0,0,1,1047.16,381.93Z" transform="translate(-759.9 -339.9)"/><path class="cls-31" d="M834,445.1c-1.92,2.09-4.89-.21-6.87,1.64-1.32-1-.65-1.69.54-1.75C829.8,444.89,831.92,445.05,834,445.1Z" transform="translate(-759.9 -339.9)"/><path class="cls-32" d="M786.83,565.89c.37.74.18,1.8,1.22,2.17-.31.83-1,1.63-1.7.93C785.47,568.05,786.17,566.86,786.83,565.89Z" transform="translate(-759.9 -339.9)"/><path class="cls-33" d="M1135.14,549.1c-.35-.75-.18-1.78-1.19-2.15.3-.83,1.06-1.63,1.69-.94C1136.49,547,1135.77,548.13,1135.14,549.1Z" transform="translate(-759.9 -339.9)"/><path class="cls-34" d="M911.82,451.71c-.42-5-.63-10.27-1.48-14.83-1.1-5.84,1.9-12.24-2.19-17.46-2.06-2.63.83-4.21,1-6.35l1.27-.25c9.12-4.66,19.05-6.72,29-8.21,25.07-3.76,49.61-1.4,73.18,8.31a144.08,144.08,0,0,1,38.85,23.81c15.76,13.42,27.39,29.74,35.79,48.38a132.31,132.31,0,0,1,11.42,48.59,138.39,138.39,0,0,1-8.21,55.17c-1.49,4-1.85,8.92-6.28,11.43-7.51.6-14.49-1.71-21.5-3.83-3.14-.76-5.45-3-8-4.73-1.1-.76-2.14-1.92-1.68-3.31s2.12-1.23,3.41-1.29a4.21,4.21,0,0,0,2-.34c-2.84-4,.79-8-.09-12a2.1,2.1,0,0,0-.06-2.26c-1.65-3,0-5.94.16-8.91a34.24,34.24,0,0,0,2-8.28c-.15-1.16-.08-2.38,1-3,2.44-1.32.68-2.47,0-3.69-.73-6.45-.1-12.93-.9-19.42-3.23-26.2-15.14-47.63-34.76-65a14.55,14.55,0,0,1-3.31-3.69,4.6,4.6,0,0,1,0-3.89c2.78-5.27,2-11.28,3.66-16.75.78-2.53-.22-4.94-.43-7.4-.14-1.69-.59-3.41-2.58-3.83a4.46,4.46,0,0,0-5.07,2.32c-2.06,3.45-3.87,6.91-3.57,11.2.32,4.59-1.39,8.13-6.26,9.45a11.76,11.76,0,0,1-4.74-1.42c-27.56-12.6-55.27-12.52-83.14-1C917.59,450.4,915,452.25,911.82,451.71Z" transform="translate(-759.9 -339.9)"/><path class="cls-35" d="M1062,595.14l22,4.06c2.91,2.06-.32,3.5-.53,5.25-1.65,3-2.5,6.48-5.37,8.73-.95,3.42-3.68,5.77-5.3,8.79-.63,2-2.65,2.84-3.73,4.47l-.07.25c-.67,2-2.55,3-3.81,4.51-4.16,5.19-8.37,10.32-14,14-1.22.85-1.73,2.55-3.4,2.88l-1.46,1c-1.33.79-1.78,2.65-3.56,2.88-4,3.87-9.09,6.19-13.71,9.17a45.71,45.71,0,0,1-8.13,3.75l-1.84,1.3c-1.76.8-3.43,1.76-5.12,2.66-3.3,0-5.77,2.29-8.73,3.21-1.48.32-3.07.24-4.33,1.3a6.53,6.53,0,0,0-3.14,1c-2.11-.13-3.93.85-5.84,1.51a2.51,2.51,0,0,1-.94.16c-2.13,1.28-5.15-.93-6.9,1.78l-.45,0-.46,0a173.15,173.15,0,0,0-18.33,1.55q-3.81.18-7.64,0a55.93,55.93,0,0,0-12.52-.95c-1.95-1.24-4.14-.94-6.27-1a13.08,13.08,0,0,0-5.42-1c-2.13-1.21-4.61-.67-6.85-1.36l-2-.34c-2.1-1.91-4.87-1.95-7.4-2.66L914,670.9c-2.47-.65-4.58-2.3-7.17-2.65-.73-.77-2.49-.72-2-2.48,4-3.19,8.7-2.33,13.25-2.41,5.5-.11,8.64-3,9.27-8.57a4.87,4.87,0,0,0-.93-2.51,19.64,19.64,0,0,1-4.42-11.5,25.82,25.82,0,0,0-3.23-10.33,14.72,14.72,0,0,1,0-14.8c1.79-3.38,3.61-6.75,5.37-10.15,2.11-4.08,4.88-6.63,9.74-6.08a3.42,3.42,0,0,1,1.41.29c2.47,1.89,2.9,4.7,3.39,7.51.75,4.33,2.08,8.39,5.68,11.31.51.42,1.17.91,1.25,1.52.7,5.75,5.25,8.58,9.08,11.86,2.32,2,2.39,4.57,2.54,7.1,1.63.63,2.35-.54,3.18-1.19,2.62-2.06,5-2,6.71.95,1.62,2.72,3.34,2.86,5.55.86a5.58,5.58,0,0,1,1.29-.77c2.81-1.39,5.8-3.61,8.68-.78,2.73,2.68-.15,5.19-1.1,7.68-.36.93-.77,1.84-1.13,2.77a8.78,8.78,0,0,0-.19,7.38c.55,4.86,4.6,10.31,8.32,11.15,5,1.13,12.61-1.53,15.36-5.26,1.82-2.47,1-5.07.69-7.67a11.9,11.9,0,0,0-1-5.42,11.41,11.41,0,0,1-.76-6.35c.77-4.19,1.82-4.84,6-3.92,3.2.7,6.51.63,9.63,1.54,1-2.14-.58-3.45-.84-5-.68-4.24,2.63-7,6.66-5.58,5.9,2.13,7.76,1.42,10.28-4,.21-.45.42-1.21.76-1.23,4.22-.17,5.56-3.66,8-6.18,1.66-1.72,2.41-4.51,4-5.26,5.77-2.72,4.75-6.5,3.47-11.33-.91-3.42,1.76-4.93,4.89-3.42C1061,600.57,1061,600.57,1062,595.14Z" transform="translate(-759.9 -339.9)"/><path class="cls-35" d="M889,658.24a3.65,3.65,0,0,0-.81-.17c-2.13-.35-3.5-2-5.23-3.06l0,0c-1.08-.64-1.87-1.77-3.24-1.91a2.07,2.07,0,0,1-.71-.32c-1.07-.94-1.58-2.58-3.32-2.68l-1.7-1.35c-1.06-1-1.61-2.54-3.31-2.73l-2.66-2.16a110.44,110.44,0,0,0-10-10.13l-2.14-2.49c-.55-2.09-2.49-3-3.78-4.48l-.15-.41c-.34-1.63-1.77-2.41-2.79-3.51l-.22-.45c-.3-1.67-1.77-2.43-2.76-3.57l-1-2c-.91-1.4-1.53-3-3-4L836,601.08c-.67-2-.86-4.06-2.17-5.76s-.85-4-2.73-5.26l-.13-1c-.15-2.77-1.49-5.2-2.29-7.79-.17-1.24-.34-2.5-1.5-3.3l-.31-2c-1.15-1.45.71-3.76-1.41-4.94l-.36-1.86c.35-4.32-1.42-8.36-1.62-12.61,1.07-4.93-2.12-9.7-.56-14.65,2.66-1.66,4.95-.29,7.27.87a2.72,2.72,0,0,1,.44,2.14c-2.27,3.89-.2,7.66.43,11.45.19,1.11,1.29,1.25,2.32,1.44,6,1.08,6,1.11,5.25,7.49,7.42-1.57,4.59,4.25,5.49,7.52.28,1.5.35,3.07,1.51,4.25,3.26,4.21,8.91,5.1,12.42,9,1.06,1.18,2.53.12,3.74-.3,2.54-.88,4,.13,4.13,2.63.28,4.13,2.83,6.76,5.92,8.76s4.85,4.32,5.33,7.91c.23,1.77.69,4.07,2.58,4.53,2.15.52,1.94-2.24,3-3.3,3.46-3.32,5.68-8.1,11.61-8.44,2.5-.14,3.6.32,3.68,2.5.26,6.73.19,13.44-5.86,18.13-3.37,2.61-4.59,6.81-7.59,9.78-2.06,2-.44,4.66,1.82,5.74,4.85,2.33,5.76,7,7.36,11.3,1,2.68-.23,4.84-2.17,6.67-.56.8-1.44,1.44-1.32,2.59C890.43,656,891.61,657.81,889,658.24Z" transform="translate(-759.9 -339.9)"/><path class="cls-36" d="M1083.21,604c.35-1.6,2.07-3,.79-4.82,2.69-.53,3-3.06,3.67-4.92,19-49.9,13.35-96.76-19.49-139C1046,426.66,1016,409.93,979.93,405A135.63,135.63,0,0,0,913.27,412c-.92.34-1.91.53-2.87.78.74-2.07,2.76-2.22,4.42-2.81,81-28.48,168.92,23,182.9,107.51,5,30.18,1,59.29-13.48,86.59C1083.84,604.73,1083.5,604.7,1083.21,604Z" transform="translate(-759.9 -339.9)"/><path class="cls-1" d="M889,658.24c2.77-2.1-1.38-2.65-.94-4.23a10.33,10.33,0,0,1,5.71-1.49q15,0,30,0c1.86,0,3.68.11,5.13,1.49.94,6.33-3.67,11.34-10.25,11a72,72,0,0,0-13.68,1,1.32,1.32,0,0,1-1.95,0c-2.12-.79-4.24-2.19-6.37-2.22-2.33,0-2.52-1.61-3.42-2.8-2.55,1.48-3.5-.14-4.22-2.19Z" transform="translate(-759.9 -339.9)"/><path class="cls-37" d="M891,419.92c-.32,1-.64,2.07-.95,3.1-.66,2.06-2.37,3.13-4,4.27-26,18-44.8,41.48-54.52,71.85-.61,1.88-1.14,3.87-3,5.05a1.8,1.8,0,0,1-1.42,0c4.2-18.47,13.11-34.62,24.61-49.45C862.64,440.69,876.37,429.77,891,419.92Z" transform="translate(-759.9 -339.9)"/><path class="cls-38" d="M827.12,504.19l1.07-.54c1.56,1.64,1.34,3.6,1,5.57-1.62,9.19-3.59,18.32-4.18,27.66-.49.82-1.07,1.48-2.17,1.14a8.3,8.3,0,0,1,.08-5.28C822.79,523,825.24,513.64,827.12,504.19Z" transform="translate(-759.9 -339.9)"/><path class="cls-39" d="M822.92,532.74l.08,5.14c1.32,1.08,2.26,2.27,1,4-2.36,5,1.07,10.08-.13,15.1-.25.53-.5.55-.75,0C822.82,548.91,820.73,540.85,822.92,532.74Z" transform="translate(-759.9 -339.9)"/><path class="cls-40" d="M964.93,679c6-1.05,12.07-2,18.21-1.08a53.52,53.52,0,0,1-13,1.25A6.67,6.67,0,0,1,964.93,679Z" transform="translate(-759.9 -339.9)"/><path class="cls-41" d="M858,633.75a24.12,24.12,0,0,1,10,10.13A43.53,43.53,0,0,1,858,633.75Z" transform="translate(-759.9 -339.9)"/><path class="cls-42" d="M964.93,679l5.22.16a41.58,41.58,0,0,1-18.34,0c1.72-1,3.48-.79,5.26-.18Z" transform="translate(-759.9 -339.9)"/><path class="cls-43" d="M823.17,557h.75c.6,4,2.75,7.91,1.2,12.15A63.32,63.32,0,0,1,823.17,557Z" transform="translate(-759.9 -339.9)"/><path class="cls-44" d="M1083.21,604l1,.09c-1.74,3.23-2.12,7.38-6.14,9.07Q1080.65,608.59,1083.21,604Z" transform="translate(-759.9 -339.9)"/><path class="cls-45" d="M957.07,679l-5.25.18c-3-.33-6.18.5-9.07-1,.36-.6.79-.65,1.29-.17C948.37,678.39,952.84,677.13,957.07,679Z" transform="translate(-759.9 -339.9)"/><path class="cls-46" d="M829,581c1.13,2.58,3.12,4.94,2,8.07a12.32,12.32,0,0,1-2-5.89A1.63,1.63,0,0,1,829,581Z" transform="translate(-759.9 -339.9)"/><path class="cls-47" d="M1020.89,664.91c2.5-1.71,5.06-3.3,8.13-3.75C1026.8,663.46,1024.3,665.18,1020.89,664.91Z" transform="translate(-759.9 -339.9)"/><path class="cls-48" d="M907,667.89a13.22,13.22,0,0,1,7,3c-2.66.38-4.68-1.37-7-2.13-.29-.2-.39-.39-.29-.59S906.93,667.89,907,667.89Z" transform="translate(-759.9 -339.9)"/><path class="cls-49" d="M916.74,672.11c2.79,0,5.68-.3,7.4,2.66C921.66,673.93,919,673.67,916.74,672.11Z" transform="translate(-759.9 -339.9)"/><path class="cls-50" d="M926.11,675.11c2.36-.21,4.72-.45,6.86.94.39.16.53.33.42.53s-.24.3-.36.3C930.71,676.33,928.23,676.44,926.11,675.11Z" transform="translate(-759.9 -339.9)"/><path class="cls-51" d="M883,655c2.23.19,3.66,1.75,5.23,3.06C885.52,658.64,884.22,656.86,883,655Z" transform="translate(-759.9 -339.9)"/><path class="cls-52" d="M834.1,595a7.34,7.34,0,0,1,1.92,6.11q-1.41-3-2.8-6.08C833.49,594.44,833.78,594.4,834.1,595Z" transform="translate(-759.9 -339.9)"/><path class="cls-53" d="M984.05,677.88c1.57-3.43,4.55-1.36,6.9-1.78C988.88,677.6,986.21,676.73,984.05,677.88Z" transform="translate(-759.9 -339.9)"/><path class="cls-54" d="M1065.19,631.2c.65-2,2.31-3.19,3.8-4.5C1068.74,629.05,1067.61,630.67,1065.19,631.2Z" transform="translate(-759.9 -339.9)"/><path class="cls-55" d="M991.89,675.94c1.62-1.84,3.86-1.94,6.06-2.11.29.19.39.4.3.61s-.18.31-.28.31Z" transform="translate(-759.9 -339.9)"/><path class="cls-56" d="M834.1,595l-.88,0-2.1-4.93C833.74,590.7,833.37,593.17,834.1,595Z" transform="translate(-759.9 -339.9)"/><path class="cls-57" d="M1013.93,668.87a6,6,0,0,1,5.12-2.66C1017.87,668.13,1016,668.6,1013.93,668.87Z" transform="translate(-759.9 -339.9)"/><path class="cls-58" d="M933,676.88l-.06-.83c1.73,0,3.55-.43,5,.9.39.18.52.37.39.54a.55.55,0,0,1-.41.27Z" transform="translate(-759.9 -339.9)"/><path class="cls-59" d="M852.09,626.78a4.49,4.49,0,0,1,3.78,4.48A11.88,11.88,0,0,1,852.09,626.78Z" transform="translate(-759.9 -339.9)"/><path class="cls-60" d="M1069.07,626.44a8.72,8.72,0,0,1,3.73-4.47A4.82,4.82,0,0,1,1069.07,626.44Z" transform="translate(-759.9 -339.9)"/><path class="cls-61" d="M842.19,612.85c2.33.34,2.86,2,3,4C843.6,616,842.93,614.38,842.19,612.85Z" transform="translate(-759.9 -339.9)"/><path class="cls-62" d="M889,658.79c1.09,1.33,2.25,2.55,4.22,2.19C890.42,662.88,889.05,662.08,889,658.79Z" transform="translate(-759.9 -339.9)"/><path class="cls-57" d="M907,667.89v.88c-1.55-.63-3.44-.75-4-2.77l1.95,0Z" transform="translate(-759.9 -339.9)"/><path class="cls-63" d="M829,581c0,.73,0,1.45-.07,2.18-1.25-1.51-1.14-3.48-1.75-5.2C828.93,578.26,829,579.58,829,581Z" transform="translate(-759.9 -339.9)"/><path class="cls-64" d="M938,677.76c0-.27,0-.54,0-.81,2,.25,4.21-.51,6,1l-1.29.17Z" transform="translate(-759.9 -339.9)"/><path class="cls-65" d="M870.72,646c2.46-.73,2.79,1.12,3.31,2.73A6.26,6.26,0,0,1,870.72,646Z" transform="translate(-759.9 -339.9)"/><path class="cls-54" d="M1047.75,648.07a6.42,6.42,0,0,1,3.4-2.88C1050.69,646.94,1050.13,648.58,1047.75,648.07Z" transform="translate(-759.9 -339.9)"/><path class="cls-66" d="M875.73,650.12c2.46-.78,2.85,1,3.32,2.68A6.79,6.79,0,0,1,875.73,650.12Z" transform="translate(-759.9 -339.9)"/><path class="cls-67" d="M1042.73,652a7.12,7.12,0,0,1,3.56-2.88C1045.75,650.87,1045.15,652.56,1042.73,652Z" transform="translate(-759.9 -339.9)"/><path class="cls-68" d="M1000.89,673c1.29-1.05,2.65-1.68,4.31-.87a3.77,3.77,0,0,1-3,1A.86.86,0,0,1,1000.89,673Z" transform="translate(-759.9 -339.9)"/><path class="cls-69" d="M1000.89,673l1.35.17L998,674.75c0-.31,0-.61,0-.92C998.75,672.94,999.84,673,1000.89,673Z" transform="translate(-759.9 -339.9)"/><path class="cls-70" d="M825.48,571c2.37,1.11,1.3,3.19,1.41,4.94C825.58,574.54,826.13,572.61,825.48,571Z" transform="translate(-759.9 -339.9)"/><path class="cls-71" d="M879.76,653.12c2.06-1,2.45.78,3.24,1.91A3.73,3.73,0,0,1,879.76,653.12Z" transform="translate(-759.9 -339.9)"/><path class="cls-72" d="M849.15,622.86a3.12,3.12,0,0,1,2.79,3.51A8.34,8.34,0,0,1,849.15,622.86Z" transform="translate(-759.9 -339.9)"/><path class="cls-73" d="M846.17,618.84a3,3,0,0,1,2.76,3.57A8,8,0,0,1,846.17,618.84Z" transform="translate(-759.9 -339.9)"/><path class="cls-2" d="M911.82,451.71c23.82-13.24,49-15.79,75.25-9.39a104.09,104.09,0,0,1,21.79,8.49,3.33,3.33,0,0,1,1.21,4.41c-1.92,3.88-.83,7.68-.57,11.63.41,6-2,11.74-2.17,17.73a8.63,8.63,0,0,1-.22,1.44,22.52,22.52,0,0,0-1.64,8.26c.06,5.22-3.1,9.42-5.15,13.88-1.48,3.21-4.83,3.25-7.51.86-3.13-2.8-8.65-2.83-11.59-.07-3.37,3.16-9.55,1.49-11.48-3.1s-4.53-8.3-10.26-8.48c-2.93-.09-2.4-2.42-1.66-4.07a7.33,7.33,0,0,0-.2-7.12.92.92,0,0,1,.68-1.05c1.87-2.51,4.2-5.1-1.22-6.15-1-.2-.68-.52-.32-1.22,1-2,4-4.41,1.56-6.38-2.22-1.83-4.21,1.62-7,2.88,1.4-4,.47-7.22-1.09-10.5-2-4.17-5.46-4.95-8.5-1.33a5.73,5.73,0,0,1-2.65,2.05c-1.37.43-2.85,2-2.86-1.54,0-1.05-1.61-7.27-6.77-5.21a1.44,1.44,0,0,1-1.3-.23c-4.16-6.31-8.79.19-13.14-.52-2.67.26-.73-2.35-1.89-3Z" transform="translate(-759.9 -339.9)"/><path class="cls-34" d="M824.06,537c-.48-9.84,1.47-19.4,3.51-28.94.31-1.45.42-2.94.62-4.41,9.63-33.11,28.91-59.12,57.56-78.21,1.37-.92,2.88-1.63,4.32-2.43,1.37,2.14,4.41,4,1.28,7a1.39,1.39,0,0,0,0,1.37c3.92,4.13-.24,9.25,1.71,13.6.17.26.29.53.19.7-.27.44-.66.31-1,.16-.81-1-1.52-2.39-3.16-1.33-2.77,1.8-3.92,4.28-2.58,8.12-1.79-.56-3.05-1.31-4.29-1.26-1.83.07-1.66,2.23-2.58,3.31-1.36-.85-2-3.18-3.91-2.57s-1.23,2.68-1.44,4.28c-.29,2.15.13,5.49-4.08,3.92a1.76,1.76,0,0,0-2.31,1.87c.9,3.28-2.26,4.67-2.46,7.33-.75-.28-1.13-.31-1.34-.51-5.07-4.83-5.09-4.85-10.89-.26-.83.66-1.44,1.24-2.59.73s-2.66-1.22-3.4.51a4.51,4.51,0,0,0,.53,4.28,42,42,0,0,0,9,9.85c.81.35.93,1.14,1.17,1.86-1.23,4.79-2.29,5.36-6.34,3.32a23.18,23.18,0,0,1-3-1.84,20.71,20.71,0,0,0-4-2.78c-1.86-.81-1.75.55-1.7,1.75a15.54,15.54,0,0,0,.46,4.94c.47,1.68-.13,2.62-1.81,3.48-4.52,2.31-5.42,6.18-2,9.73,4.58,4.67-1,5.56-2.53,8a7.63,7.63,0,0,1-1.5,1.45c-2.46,2.73-.86,5.28.64,7.55a9.8,9.8,0,0,1,1.68,5.09c.16,3.31-1.31,4.64-4.57,3.94a14.74,14.74,0,0,0-2.94-.52c-2,0-3.08.39-2.15,2.95C829.72,537.05,828.67,537.91,824.06,537Z" transform="translate(-759.9 -339.9)"/><path class="cls-74" d="M857.15,486l-.42-1.92c2.36,1,4.86.9,7.35.91q47.11,0,94.22.12a1.35,1.35,0,0,1,.05.69c-1.54,2.27-3.94,2.2-6.26,2.21q-44.54.09-89.07,0C860.85,488,858.66,488,857.15,486Z" transform="translate(-759.9 -339.9)"/><path class="cls-75" d="M913.09,453.94l1.89,3a1.64,1.64,0,0,1-1.2,1.91c-1,.11-.54-.9-.57-1.47Z" transform="translate(-759.9 -339.9)"/><path class="cls-76" d="M893.93,450a2.24,2.24,0,0,1,.7,3c-1.41-.65-1.39-1.9-1.45-3.11C893.49,449.47,893.74,449.47,893.93,450Z" transform="translate(-759.9 -339.9)"/><path class="cls-77" d="M893.93,450l-.75-.09-1-4.08L893,445C894.52,446.44,894,448.26,893.93,450Z" transform="translate(-759.9 -339.9)"/><path class="cls-78" d="M805.64,587.92c2.84.23,5.24.73,6.54,3.3s.09,4.92-1.69,6.75c-3.89,4-8.53,6.39-14.3,5.13-4.14-.9-5.61-4.4-3.27-7.94C796,590.58,800.5,588.42,805.64,587.92Z" transform="translate(-759.9 -339.9)"/><path class="cls-79" d="M951,377.64c.34-2-1.34-5,2.89-4.68,3.43.25,5.93,1.55,6,5.16.08,3.34-2,4.92-5.42,5C950,383.28,951.27,380,951,377.64Z" transform="translate(-759.9 -339.9)"/><path class="cls-80" d="M950.68,366.37c0-2.17-.08-4.27,2.52-4.16,2.92.13,4.37,2.11,4.48,4.9.1,2.6-1.41,3.85-4,3.9C949.88,371.07,951.11,368.06,950.68,366.37Z" transform="translate(-759.9 -339.9)"/><path class="cls-78" d="M1103.8,615c5.69-.14,11.72,3.55,13.34,7.61a5.7,5.7,0,0,1-1.18,6.46c-1.87,2-3.36,0-4.83-.71a72.36,72.36,0,0,1-8.8-4.64c-1.75-1.12-5.2-1.19-4.38-4.47S1101.59,615.24,1103.8,615Z" transform="translate(-759.9 -339.9)"/><path class="cls-81" d="M1118.16,588.74a13.82,13.82,0,0,1,10.34,4.09c3.19,3.34,2.24,7.65-2.07,9a15.59,15.59,0,0,1-14.2-2.08c-2.25-1.56-4.09-3.67-3.19-6.69s3.38-3.86,6.15-4.18C1116.18,588.82,1117.17,588.8,1118.16,588.74Z" transform="translate(-759.9 -339.9)"/><path class="cls-82" d="M1009.83,381.78c-2.36-.54-4.3-.55-6-2.29l4.22-4.7C1009.59,377,1009.17,379.26,1009.83,381.78Z" transform="translate(-759.9 -339.9)"/><path class="cls-83" d="M829.66,648.91c-1.29-1-3.26-2.11-2.47-3.75s3-1.53,4.86-1A6.55,6.55,0,0,1,829.66,648.91Z" transform="translate(-759.9 -339.9)"/><path class="cls-84" d="M987.91,702.35c2,2.95,4.25,4.23,3.64,6.44-.27,1-3.11,1.76-3.92.93C985.87,707.91,988.18,705.85,987.91,702.35Z" transform="translate(-759.9 -339.9)"/><path class="cls-1" d="M857.15,486l101.2-.2c6.67,3.46-.15,6.85.17,10.69,3-1,6.92-3.68,7.56,2.5,4.36.29,5.16,3.9,5.69,7,.71,4.17,3.78,2.49,5.93,3s2.23-.66,2.52-2.65c.47-3.3,2.85-3,5.15-1.38,1.16.84,1.85,2.4,3.2-.36,1.24-2.52,3.55-1.36,4.14,1.06.52,2.18,1.61,4.4,3.54,4s4.48-2,3.81-5.2c-.29-1.38.74-2.55,1.57-3.53a8.84,8.84,0,0,0,2.15-8.24c-.6-2.57.46-4.81,2.09-6.79,4.35-2.28,8.77-1.88,13.22-.36,2.79,3.63,1.29,7.29-.06,10.86-1.82,4.79-2.79,9.58-1.07,14.6.76,2.21,1.95,3.59,4.54,3.92,6,.75,6.76,2.48,4,8.26a2.22,2.22,0,0,0-.39.72c.46,0,.91-.1,1.38-.07a6.3,6.3,0,0,0,7.67-1.51,19.89,19.89,0,0,1,4.42-3.2c1.63-.92,3.44-1.79,5.11-.45,1.84,1.48.74,3.3,0,5-.31.74-1,1.31-1,2.18,6.82.84,9.68,3.35,10.24,9.4.12,1.3.42.92,1.28,1,4.18.48,6.1,2.84,4.18,6.13-2.5,4.26-.26,5.19,3,6.13,1.43.89,4.28.54,4,2.91-.27,2-2.7,1.25-4.26,1.53-1.26.22-1.13.9-.28,1.61-1.83,3-4.92,5.77-2.41,9.86.93,1.53.34,2.77-.59,4.08-1.11,1.55-.24,2.69,1.07,3.62-.17,2.11-1.85,2.07-3.3,2.24a43.65,43.65,0,0,1-5,.1q-100.32,0-200.63,0c-2.77,0-5.71.64-8.16-1.4l-.4-.29c-3-2.27,1.88-4.48.32-6-1.87-1.85-3.94,2-6.32.78-1.87-1-1.1-2.1-.14-3.16,1.17-1.29,2.3-2.79,1.42-4.45-1.11-2.08-3,0-4.41-.35-1.67-.36-4.7,1.25-4.1-3.26.2-1.54.24-4.73-1.59-7s0-3.87,2.46-4.54c1.16-.88,2.53-.76,3.86-.79,3.4.4,6.76-.79,10.16-.44-3.14-.37-6.25.79-9.39.44-1.64-.06-3.34.24-4.75-.94-2.14.49-3.9-1-5.91-1.16l-1-4,1-.86,4.32-1.39c-1.35-2.06-4.91-3.56-3-5.87,3.15-3.84,7.31-.46,12.53.19-3.48-2.27.61-6.1-4.18-7.69-1.31-.44-1.18-5.82-1.25-8.94,0-1,1.65-.61,2.61-.37.69.59,1.76.31,2.36,1,0,0,.15.17.15.17a2.26,2.26,0,0,0-.14-.26,3.18,3.18,0,0,1-1.24-2.12c-.23-3,1.93-3.35,5.55-3.44a67.73,67.73,0,0,1-5.63-4.92c-1.56-1.73-2.32-3.75.24-5.41.53-.34,1.57-.45,1.31-1.18-2.21-6.32,1.88-4,5.93-2.72-2.72-3.13-3.93-5.51-1.63-8.08s4.61-.76,6.91.05a13.48,13.48,0,0,1,2.91,1.63C854.63,490.29,856.12,489,857.15,486Z" transform="translate(-759.9 -339.9)"/><path class="cls-1" d="M890,652c1.95-2.62,3.17-4,1.44-8.58-1.91-5-5.15-6.79-8.28-9.64-2.32-2.11-1.17-5.67.73-8.21,3.82-5.11,9.76-8.69,12-14.73,1.37-3.74.08-8.24.89-12.73-1.72,3-3.18,4.16-6.56,2.24-2.09-1.19-2.11,1.55-2,3.23.17,2,.3,3.82-2.84,2.64-2.42-.92-1.3,1.52-1.68,2.4-.73,1.68-1.06,3.79-3.24,4-2.47.24-3.75-1.89-3.94-3.76-.69-6.69-4.75-10.54-10.08-13.88-2.93-1.84-1.27-5.82-2.73-9.29-3.7,5.51-6.53,3.61-9.08-.67-.39-.67-1.27-1.54-1.89-1.51-4.15.19-6-3.38-8.84-5.24-1.56-4.59,1.08-4.79,4.61-4.78q98.84.09,197.68,0c3.83,0,7.66,0,11.49,0,1.09,0,2.5-.29,2.42,1.59l-1.06,1.52c6.4,4,.38,4.79-1.85,6.55,1.07,2.16,6.12.93,4.48,4.47s-5.31.31-8.43,1.05l8.8,6.44c1.63,2.69,3.31,5.33-1,7.27-2.92,1.33-3.72-1.2-5.19-2.59-.95-.89-1.94-2.23-3.37-1.41-1.12.64-.66,2.09-.59,3.23a8,8,0,0,0,1.81,4.54c2.88,3.64,2.53,4.55-2.14,5.57-1.52.33-3.79-.21-3.52,2.35.45,4.32-2.34,4.94-5.57,5.13,1.66,5.8.76,7-4.48,5.41-2.71-.8-2.72.38-2,2.12,1.39,3.27-.21,3.53-3,4.39-3.79,1.18-7,2.34-10.16-1.09-1-1-1.83-.38-2.32.63-.63,1.33-3.17,1.85-1.77,4.06.71,1.12,1.49,2.21,2.17,3.35,1.88,3.13-1.56,4.83-2.48,4-3.89-3.54-9.84,1.73-12.9-4.82-1.14,4.4-2.72,7.41-.5,10.61.82,5.82.36,6.47-5.17,6.57q-7.89.15-15.79,0c-5.49-.1-6-.75-5.16-6.6.93-1.94,1.88-3.87,2.76-5.83.44-1,1.76-1.92.68-3.09a3,3,0,0,0-4.1-.56c-2.31,2-6.16,1.69-7.48,5.27-.66,1.8-2,1.45-2.82-.18-.45-.88-.68-1.9-1.2-2.73-1.75-2.79-3.6-4.39-6.29-.73-.88,1.19-2.07,3.18-4,2.27-2-1-1.28-3.09-1-4.91.68-4.85-4.27-5.43-6.53-8-.75-.85-2.46-1.42-3-2.76-3.73-8.84-10.26-16.53-10.88-26.62a4.61,4.61,0,0,0,0-.74c-.49,0-.58.48-.84.77-.23,1.25-1.25,2.83-2.13,2.12-3.83-3.06-4.23.82-5.3,2.55-2.18,3.53-3.86,7.36-6,10.91-2.93,4.83-3.69,9.89-.16,14.37s2.31,9.67,3.91,14.37a24.63,24.63,0,0,0,3.58,7.57c.16,1.48-.89,1.55-1.9,1.55q-17.1,0-34.22,0C891,653.48,889.88,653.47,890,652Z" transform="translate(-759.9 -339.9)"/><path class="cls-2" d="M1025,524c.51-1.39,1-2.79,1.55-4.15a2.47,2.47,0,0,0-.49-3.15,2.28,2.28,0,0,0-3.18-.08c-3,2.63-5.11-.61-5.7-1.9-2.82-6.16-3.31-12.62.25-18.81,1.57-2.72,1.28-5.73,1.73-8.63.56-1.12-.39-2.09-.33-3.16.72-5.4,0-10.84.41-16.25.22-3,.1-6.41,3.91-7.71,27.92,22.27,40.86,51.38,39.66,86.94a7,7,0,0,1-.38,1.44,23.27,23.27,0,0,1-4.34.72,3.61,3.61,0,0,1-3.39-1.75c-.58-1.28.9-1.93,1.59-2.78s1.29-1.52,1.92-2.29c1.27-1.54,1.08-3-.21-4.43-1.5-1.71-2.61-.49-3.83.31s-1.91,1.94-4,1.4c1.26-3,5.27-6.83,1.33-9.13-2.62-1.53-6.44-7.38-10.66-.38-.29-3.75,1.27-5.81,2.86-7.91.55-.73,1.34-1.75.57-2.68-1-1.21-2.13-.43-3.07.25-1.61,1.17-3.17,2.4-4.73,3.63-2.91,2.3-5.57,6.26-9.45,1.27C1026.42,524.36,1025.48,524.76,1025,524Z" transform="translate(-759.9 -339.9)"/><path class="cls-1" d="M1023.14,460.16c-3.52,5.06-2.25,10.77-2,16.25a17.46,17.46,0,0,1-1.29,8.58,39.06,39.06,0,0,1-13.85,0c-1.16-3.65,0-7.21.82-10.65,1-4.25,2.15-8.36-.22-12.44-1.09-1.89.12-3.2,1-4.5a8.21,8.21,0,0,0,1.25-6.6c3.37-2.89,4.77-6.15,3.93-10.91-.92-5.16,5.16-13.16,9.28-13.42,2.37-.15,4.59.41,4.83,3.12.37,4.21,2.79,8.5-.17,12.68-.28.4-.74,1.06-.6,1.31C1029.78,450,1023.29,454.5,1023.14,460.16Z" transform="translate(-759.9 -339.9)"/><path class="cls-85" d="M1060.08,575.11c-1.48-1.56-3.4-1.09-5.18-1.09q-102.8,0-205.59-.06c-3.13,0-5.78.09-5.43,4.28-1.27-1.54-.74-3.44-1-5.17q105.39,0,210.79-.1c2.1,0,4.35.63,6.29-.82C1061.29,573.07,1060.92,574.07,1060.08,575.11Z" transform="translate(-759.9 -339.9)"/><path class="cls-86" d="M1059.44,564.45c-1-1.4-4.41-1-3.9-2.49,1-3.06,1.51-7.28,6.31-7.37C1061.49,558,1061.77,561.54,1059.44,564.45Z" transform="translate(-759.9 -339.9)"/><path class="cls-1" d="M1005.85,654c2.39,6.07,1.42,8.79-3.88,12.08-4.5,2.8-9.49,2.67-14.45,3-1.61.1-2.38-.87-3.1-2.05-.61-1-1.15-2.62-2-2.79-5.14-1.1-3.27-5-3.52-8.1-.8-1.73,0-2.63,1.66-2.58C989,653.78,997.45,652.83,1005.85,654Z" transform="translate(-759.9 -339.9)"/><path class="cls-87" d="M890,652a4,4,0,0,0,3.2,1h31.71a3.94,3.94,0,0,0,3.17-1.07c.89.46.89,1.26.8,2.09h-40.8A2.55,2.55,0,0,1,890,652Z" transform="translate(-759.9 -339.9)"/><path class="cls-87" d="M1005.85,654c-7.37,0-14.74,0-22.11,0-1.85,0-4.13-.66-4.81,2.11-1.22-2.75-1.57-5.51,0-8.27-.51,4.14,1.37,5.46,5.4,5.21a130.33,130.33,0,0,1,15.31,0c4,.24,6-1,5.41-5.18C1006.7,649.75,1005.63,652,1005.85,654Z" transform="translate(-759.9 -339.9)"/><path class="cls-88" d="M934.17,600c-.3-2.38-.42-4.6,3.58-3.55l-2.7,3.52Z" transform="translate(-759.9 -339.9)"/><path class="cls-89" d="M834.09,544.82l-4,0-.12-1.73h5C835.59,544.11,834.76,544.43,834.09,544.82Z" transform="translate(-759.9 -339.9)"/><path class="cls-90" d="M1006,485h13.85c.09.87.2,1.74-.73,2.29-4.2-2.64-8.88-.62-13.28-1.34A1.61,1.61,0,0,1,1006,485Z" transform="translate(-759.9 -339.9)"/><path class="cls-91" d="M848.88,486.05,842,486c-.79-1.15-2.21-2.46-.85-3.75s2.73,0,3.91.86S847.6,485.07,848.88,486.05Z" transform="translate(-759.9 -339.9)"/><path class="cls-92" d="M837.91,515.06,835.07,513l1.13-1.2L839,514C839.19,514.94,839,515.47,837.91,515.06Z" transform="translate(-759.9 -339.9)"/><path class="cls-93" d="M834.09,544.82c.31-.59.62-1.17.92-1.76,3.66-.25,7.31-.63,11,.37C842,543.61,838.25,546.05,834.09,544.82Z" transform="translate(-759.9 -339.9)"/><path class="cls-94" d="M837.91,515.06l1.09-1c1.23.29,3.33.73,2.52,2C840.57,517.59,839,516,837.91,515.06Z" transform="translate(-759.9 -339.9)"/><path class="cls-95" d="M1025,524l2.06.77c-1.11-.24-1.72,1.51-2.91.7A16.6,16.6,0,0,1,1025,524Z" transform="translate(-759.9 -339.9)"/></svg>