<svg id="Layer_1" data-name="Layer 1" xmlns="http://www.w3.org/2000/svg" viewBox="0 0 150.15 150.12"><defs><style>.cls-1{fill:#fefefe;}.cls-2{fill:#e21b23;}.cls-3{fill:#e3242b;}.cls-4{fill:#e11c22;}.cls-5{fill:#e22128;}.cls-6{fill:#e3232b;}.cls-7{fill:#e21921;}.cls-8{fill:#e00e16;}.cls-9{fill:#de1010;}.cls-10{fill:#df030a;}.cls-11{fill:#e1181e;}.cls-12{fill:#e11319;}.cls-13{fill:#e21c24;}.cls-14{fill:#e21e25;}.cls-15{fill:#e3272e;}.cls-16{fill:#e11a1b;}.cls-17{fill:#e42c33;}.cls-18{fill:#e00b12;}.cls-19{fill:#e3252d;}.cls-20{fill:#e32028;}.cls-21{fill:#fae5e6;}.cls-22{fill:#f7d2d3;}.cls-23{fill:#f7cdce;}.cls-24{fill:#f9e0e1;}.cls-25{fill:#e1121b;}.cls-26{fill:#e00911;}.cls-27{fill:#fbeaea;}.cls-28{fill:#f6c9ca;}.cls-29{fill:#fefcfc;}.cls-30{fill:#f9e3e4;}.cls-31{fill:#fae5e5;}.cls-32{fill:#fcf1f1;}.cls-33{fill:#e2161f;}.cls-34{fill:#e00c14;}.cls-35{fill:#e1121a;}.cls-36{fill:#eb696d;}.cls-37{fill:#fcf0f0;}.cls-38{fill:#f0a6a7;}.cls-39{fill:#df0f11;}.cls-40{fill:#e00a13;}.cls-41{fill:#e43239;}.cls-42{fill:#f8d1d2;}.cls-43{fill:#e00d16;}.cls-44{fill:#f9d8da;}.cls-45{fill:#fceeee;}.cls-46{fill:#fbebeb;}.cls-47{fill:#f9dfe0;}.cls-48{fill:#fdf8f8;}.cls-49{fill:#e00c15;}.cls-50{fill:#eb7174;}.cls-51{fill:#f7cccd;}.cls-52{fill:#f6c4c6;}.cls-53{fill:#f8d5d6;}.cls-54{fill:#ee9c9e;}.cls-55{fill:#ec6e73;}.cls-56{fill:#ea5a5f;}.cls-57{fill:#fcf0f1;}.cls-58{fill:#f7d0d1;}.cls-59{fill:#f1adae;}.cls-60{fill:#e21f26;}.cls-61{fill:#e1131c;}.cls-62{fill:#f5bfc1;}.cls-63{fill:#f8d2d3;}.cls-64{fill:#e3232a;}.cls-65{fill:#e31f28;}.cls-66{fill:#e00e17;}.cls-67{fill:#e11119;}.cls-68{fill:#e63f46;}.cls-69{fill:#e64d52;}.cls-70{fill:#e53c42;}.cls-71{fill:#e53d44;}.cls-72{fill:#e00810;}.cls-73{fill:#de090b;}.cls-74{fill:#e1141a;}.cls-75{fill:#df0f13;}.cls-76{fill:#e2292c;}.cls-77{fill:#f5bfc0;}.cls-78{fill:#eb787c;}.cls-79{fill:#e96469;}.cls-80{fill:#e86065;}.cls-81{fill:#ef8f91;}.cls-82{fill:#f9d4d6;}.cls-83{fill:#f9dbdc;}.cls-84{fill:#f0a2a3;}.cls-85{fill:#fdf5f6;}</style></defs><title>200px-TAFE_Queensland_Logo</title><path class="cls-1" d="M751.7,465.63q-36,0-72,0c-2,0-3,0-3-2.7q.17-72.37,0-144.75c0-2.37.63-2.64,2.74-2.64q72.38.1,144.75,0c2.37,0,2.63.64,2.63,2.75q-.1,72.38,0,144.75c0,2.36-.63,2.64-2.74,2.63C800,465.6,775.83,465.63,751.7,465.63Z" transform="translate(-676.67 -315.55)"/><path class="cls-2" d="M769.19,326.81c16.31,3.94,28.87,13.2,38.24,27a25.83,25.83,0,0,0,5.81,10.83c5.3,10,6.26,20.85,5.72,31.91a56.36,56.36,0,0,1-2.87,15.08c-8.74-10.57-17.17-11.93-29-4.58.38-2.9-.68-4.24-3.6-3.75-.92.16-2.48.58-2.56-1.21-.06-1.47.86-2.18,2.3-2.44s3.29.82,3.76-.58c.62-1.8.24-3.93.29-5.93a1.14,1.14,0,0,0-1.08-1.27c-4.88-.68-9.76-.93-14.06,2-1.9,1.32-2.22,3.75-3.07,5.78-.6,1.88-.8,4.16-3.83,3.38-1.17-.31-1.48,2.25-3.07,1.1-8.75-2.19-17.37-3.25-25.42,3.14.44-3.26-.9-4.58-4.1-4-2.27.43-2.22-1.17-2.27-2.79-.19-6.76-.22-6.79-6.89-6.75-5.72,0-4.79-.64-4.83,5.06,0,2.52.52,5.06-3.58,4.58-2.81-.33-1.69,2.19-1.75,3.53s-.89,3.74,1.91,3.41c3.42-.41,3.39,1.5,3.46,4,.17,5.57-.92,11.22.89,16.7a3,3,0,0,0,1.8,2.62c4.59,2.65,9.42,2.68,14.34,1.07.82-1.08,1.34-2.71,3.21-1.08a10.23,10.23,0,0,0,3,1.29,16.16,16.16,0,0,0,7.48-.11c4.83-3.52,10,.78,14.87-.57,1.11-.31,2.92.85,3-1.48,0-.21,0-.42.05-.64.09-6.36,0-12.72,0-19.08a3.46,3.46,0,0,0-.67-2.18c2.25-.13,2.31-.13,2.33,2,0,6.1.1,12.19,0,18.28-.05,2.37.56,3.21,3.11,3.21,8.82,0,8.67.13,8.88-8.6.12-5-.94-10.05.62-15,1.35.63.86,2.12,1.46,3.1l0,.76a3.8,3.8,0,0,0-.58.8,35.68,35.68,0,0,0,0,7.45,2.39,2.39,0,0,0,.66.72c4,8.87,9.33,11.94,19.38,11.47,4.62-.22,9.25,0,13.87-.14,2-.05,2.59.68,2.56,2.62-.09,6.12-.1,12.25,0,18.37,0,2.13-.68,2.82-2.8,2.8-23.36-.27-46.76.81-70.09-.48-30.78-1.71-56.8-26.8-60.71-57.11-1.87-14.57,0-28.52,7.23-41.35,9.41-16.77,23.09-28.42,42.18-33A80.63,80.63,0,0,1,769.19,326.81Z" transform="translate(-676.67 -315.55)"/><path class="cls-3" d="M803.3,421.54c1.87,0,3.75-.08,5.61,0,.89.05,2.38-.67,2.52.67s-.59,3-2.17,3c-2.53-.07-4.47,1.11-6.65,2a5.83,5.83,0,0,1-6-.87c-1.18-1-2.36-2.27-2-3.8.43-1.91,2.29-.85,3.5-1C799.79,421.41,801.55,421.54,803.3,421.54Z" transform="translate(-676.67 -315.55)"/><path class="cls-4" d="M754,413.82l-1.28.88c-1.71.89-3.78-.49-5.42.84l.08-.05c-1.22.64-2.7-.24-3.88.65-1.35,1.17-3.16,1-4.72,1.61-2.56.94-3.49,3.34-4.94,5.28a1.83,1.83,0,0,1-1.23-1.07c-1.08-3.28-.11-6.67-.52-10,.71-1.25,1.74-1.15,2.85-.7.54.26.66.83.93,1.28,3.37,1.23,6.82.56,10.24.41a4.73,4.73,0,0,1,1-.3c2.1-.2,4.2-1.33,6.32-.07C753.86,412.87,754.23,413.2,754,413.82Z" transform="translate(-676.67 -315.55)"/><path class="cls-5" d="M753.24,421.46c2.06-.44,2,1,1.74,2.21-.39,2.14-1.32,4-3.74,4.41-1.94.32-3.86,0-4.62-2.05-.53-1.44-.33-3,1.73-3.25A17.29,17.29,0,0,0,753.24,421.46Z" transform="translate(-676.67 -315.55)"/><path class="cls-6" d="M769.19,326.81c-5.82.51-11.34-1.77-17.21-1.59s-11.3,1.6-17,1.56A61.22,61.22,0,0,1,769.19,326.81Z" transform="translate(-676.67 -315.55)"/><path class="cls-7" d="M735.78,434.75c.5.41,1,1.31.21,1.33-5.18.14-10.61,1.7-15.25-2-.78-.62-2.83-1.31-1.1-3.06,1.71,2.12,4.11,3,6.6,3.77a11.49,11.49,0,0,0,6.77,0A4,4,0,0,1,735.78,434.75Z" transform="translate(-676.67 -315.55)"/><path class="cls-8" d="M805.08,413.09c1,1.57.49,2.26-1.27,2.25-2.22,0-4.44.06-6.65,0-.88,0-2.29.59-2.51-.72a2.13,2.13,0,0,1,2-2.57C799.27,413.83,802.38,411.87,805.08,413.09Z" transform="translate(-676.67 -315.55)"/><path class="cls-9" d="M766.82,410.9c.57.06,1.13.14,1.42.73-.87,5.3-.12,10.64-.38,15.95-.08,1.6.29,3.23-.28,4.8a1,1,0,0,0-.17.42c-1.59-3.94-.62-8.05-.77-12.08C766.51,417.46,766.75,414.17,766.82,410.9Z" transform="translate(-676.67 -315.55)"/><path class="cls-10" d="M733,422.15l.83.88c0,1.75,0,3.53-2.42,1.52-.57-4.49-.24-9-.18-13.49,1.3-.92,2.66-.64,4-.2h0c.22.2.26.36.15.49a.43.43,0,0,1-.3.15c-1,.28-2.15-.22-2.86.88C733.25,415.58,732,419,733,422.15Z" transform="translate(-676.67 -315.55)"/><path class="cls-3" d="M805.08,413.09a17.7,17.7,0,0,1-6.19.8c-1.31-.07-2.13-.49-2.24-1.87-.06-.5.24-.65.67-.67,1.8-.56,3.71-.08,5.52-.58A2.71,2.71,0,0,1,805.08,413.09Z" transform="translate(-676.67 -315.55)"/><path class="cls-11" d="M813.24,364.62c-.17.45-.33,1.61-.52,1.25-2-3.82-4.45-7.47-5.81-11.62,0-.09.34-.3.52-.46Q810.34,359.2,813.24,364.62Z" transform="translate(-676.67 -315.55)"/><path class="cls-12" d="M754,413.82l-.76-.69c-1.15-2.18-4.15,0-5.27-2.26,1.83-2.32,4.09-1.73,6.06-.5C755.31,411.17,755.74,412.68,754,413.82Z" transform="translate(-676.67 -315.55)"/><path class="cls-13" d="M748,410.87c1.48,1.41,4.68-1.23,5.27,2.26-2-1.37-4,1.19-6,0a1,1,0,0,1,0-1.43Z" transform="translate(-676.67 -315.55)"/><path class="cls-14" d="M747.25,411.7v1.43l-.86.06a38.87,38.87,0,0,1-11.09,0c-.07-.56-.13-1.12-.19-1.68,0-.21.09-.43.15-.64.72,1,1.38,1.87,2.89,1.64C741.16,412.05,744.33,413.28,747.25,411.7Z" transform="translate(-676.67 -315.55)"/><path class="cls-4" d="M731.63,411.06l-.21,13.49c-1.79-4.49-1-9.09-.52-13.67C731.23,410.58,731.47,410.66,731.63,411.06Z" transform="translate(-676.67 -315.55)"/><path class="cls-15" d="M762.22,404.14c2.17-1.7,6-.88,6.9-4.48C769.15,402.86,765,405.56,762.22,404.14Z" transform="translate(-676.67 -315.55)"/><path class="cls-16" d="M783.18,413.86a4.52,4.52,0,0,1-1.46-3.1c.92-.49,2.16-.76,2.72,0C785.38,412.15,782.89,412.51,783.18,413.86Z" transform="translate(-676.67 -315.55)"/><path class="cls-17" d="M782.49,414.63h.73c0,3,.07,6,.11,9l-.83,0A23.24,23.24,0,0,1,782.49,414.63Z" transform="translate(-676.67 -315.55)"/><path class="cls-18" d="M802.84,410.77l.15,1.1c-1.87-.45-3.88.69-5.67-.52a.36.36,0,0,1,.29-.46,9.08,9.08,0,0,1,5.24-.1Z" transform="translate(-676.67 -315.55)"/><path class="cls-19" d="M749.5,434.85A8.41,8.41,0,0,1,742,435Z" transform="translate(-676.67 -315.55)"/><path class="cls-2" d="M733,434.82a6.45,6.45,0,0,1-6.77,0Z" transform="translate(-676.67 -315.55)"/><path class="cls-20" d="M753.24,421.46c-1.36,1.46-3.08,1.52-4.89,1.32A8.7,8.7,0,0,1,753.24,421.46Z" transform="translate(-676.67 -315.55)"/><path class="cls-13" d="M747.3,415.54c1.58-1.75,3.6-.62,5.42-.84C751,415.7,749.13,415.45,747.3,415.54Z" transform="translate(-676.67 -315.55)"/><path class="cls-3" d="M802.85,410.79l-5.25.1A4.49,4.49,0,0,1,802.85,410.79Z" transform="translate(-676.67 -315.55)"/><path class="cls-14" d="M731.63,411.06l-.73-.18a4.4,4.4,0,0,1,4.37,0Z" transform="translate(-676.67 -315.55)"/><path class="cls-14" d="M743.5,416.14c1.11-1.27,2.55-.64,3.88-.66C746.19,416.32,744.83,416.16,743.5,416.14Z" transform="translate(-676.67 -315.55)"/><path class="cls-21" d="M756.11,452.05a1.5,1.5,0,0,0-.6.07c-1.63-1-3.63.3-5.24-.81-2.75-3-3.27-6.11-1-8,2.4-2.07,4.88-2,6.95.7,1.16,1.52,1.12,3.28,1,5C756.9,450.06,756.87,451.19,756.11,452.05Z" transform="translate(-676.67 -315.55)"/><path class="cls-22" d="M809.5,444.64c2.09.76.82-3.3,2.82-2.12,1.77,1.05.92,3.17.95,4.81.07,4.11-1.27,4.9-5.48,3.44a3.74,3.74,0,0,1,1.22-1.45c1.18-1.08.49-2.2.07-3.32A1.41,1.41,0,0,1,809.5,444.64Z" transform="translate(-676.67 -315.55)"/><path class="cls-23" d="M778,444.71c1.84-.29,3.72-.89,5.25.8,1,1.05,1,2.41,1.06,3.74-.38,1.26-1,2.15-2.47,1.37-.06-.48-.1-1-.18-1.45-.14-.74.46-1.92-.81-2.06-1.63-.18-1.12,1.19-1.24,2.06-.07.49-.15,1-.22,1.45-2.19.63-2.11-1.12-2.27-2.34A6.62,6.62,0,0,1,778,444.71Z" transform="translate(-676.67 -315.55)"/><path class="cls-24" d="M757.77,445.19c.91.05,1.74,0,1.06,1.43a1.78,1.78,0,0,0,1.22,2.56c1.59.25,1.43-1.16,1.49-2.29.05-.94-.58-2.49,1.44-2.19a13,13,0,0,0,1.82,3,1.86,1.86,0,0,1-.18,1c-1.21,1.62-2.61,2.92-4.8,2.94-.71,0-1.46.25-2.05-.38a2.47,2.47,0,0,0-.19-.6,3.21,3.21,0,0,1-.5-1.19C757.13,448.05,756.56,446.48,757.77,445.19Z" transform="translate(-676.67 -315.55)"/><ellipse class="cls-25" cx="129.88" cy="120.64" rx="15.73" ry="0.48"/><path class="cls-26" d="M767.58,432.38q0-9-.07-18c0-1-.21-2,.73-2.77,0,5.75,0,11.5,0,17.25C768.2,430.05,768.78,431.4,767.58,432.38Z" transform="translate(-676.67 -315.55)"/><path class="cls-27" d="M796.78,444.43l2.13,1c1.38,1.48,1.24,3.15.58,4.87a1.82,1.82,0,0,1-2.55.55c-.59-.8-.69-2-1.85-2.37a1.91,1.91,0,0,1-.26-.9c.45-1,0-2.21.53-3.21A1.31,1.31,0,0,1,796.78,444.43Z" transform="translate(-676.67 -315.55)"/><path class="cls-28" d="M778,444.71c.59,1.94-1.35,4.47,1.39,5.91-1.1,2.09-2.42-.93-3.56.14a1.63,1.63,0,0,1-1.17-.87,2.1,2.1,0,0,1,0-1.44c.3-.54.73-1,1-1.54a1.91,1.91,0,0,1,.91-1Z" transform="translate(-676.67 -315.55)"/><path class="cls-29" d="M809.5,444.64l0,1.42a10.23,10.23,0,0,0,0,3.9l-1.69.81a.55.55,0,0,1-.48-.26c-1.51-1.23-2.11-2.63-.8-4.37C807.57,445.76,808,444.21,809.5,444.64Z" transform="translate(-676.67 -315.55)"/><path class="cls-30" d="M769.08,445.16c.85.09.83,2,2.18,1a2.17,2.17,0,0,1,.33,2.72c-1,1-2.21,0-3.28.32a3.45,3.45,0,0,1-2.15-.52c-.79-.87-.29-1.65.18-2.43C767.13,445.6,768.2,445.62,769.08,445.16Z" transform="translate(-676.67 -315.55)"/><path class="cls-31" d="M796.77,450c.56.78,1.39.61,2.17.64a.76.76,0,0,1,0,1c-1.24.39-2.59-.2-3.8.46-.57,0-1.2,0-1.33-.76a2.62,2.62,0,0,1-.58-2.56,2.33,2.33,0,0,1,1-1.26,1,1,0,0,1,1,.13l.1,1A5.78,5.78,0,0,1,796.77,450Z" transform="translate(-676.67 -315.55)"/><path class="cls-32" d="M766.76,446.12l-.66,2.44c.53.5,1,1,.82,1.82a1.11,1.11,0,0,1-1.78.3l-.7-.7a1.18,1.18,0,0,1,0-1.57v-.82a1.09,1.09,0,0,1,0-1.52c.37-.62.59-1.4,1.53-1.4A1.59,1.59,0,0,1,766.76,446.12Z" transform="translate(-676.67 -315.55)"/><path class="cls-33" d="M685.94,396.6V386.3h.32v10.3Z" transform="translate(-676.67 -315.55)"/><path class="cls-34" d="M719.7,392.31H730v.37h-10.3Z" transform="translate(-676.67 -315.55)"/><path class="cls-32" d="M805.81,450.7c-.26.77-.86.71-1.47.6-1.44-1.53-1.15-3.33-.83-5.13a2.2,2.2,0,0,1,.8-1.08l1.56.89C806.12,447.56,806.55,449.14,805.81,450.7Z" transform="translate(-676.67 -315.55)"/><path class="cls-35" d="M766.52,435.43h-10.2v-.37h10.3Z" transform="translate(-676.67 -315.55)"/><path class="cls-35" d="M769.94,435.1h10.28v.36h-10.3Z" transform="translate(-676.67 -315.55)"/><path class="cls-36" d="M794.53,447.63l-.76.89c-1,1.17-1.69.83-2.26-.39a6,6,0,0,1-.53-1.94,3.73,3.73,0,0,1,.09-1,3.85,3.85,0,0,1,1.19-2.13l.7-.68a9.08,9.08,0,0,1,1.3,2.74A6.27,6.27,0,0,1,794.53,447.63Z" transform="translate(-676.67 -315.55)"/><path class="cls-37" d="M776.6,445.94l-.1,1.68c-1.73.79-2.93-.41-4.26-1.13l-.29-.43C773.18,443.85,773.22,443.85,776.6,445.94Z" transform="translate(-676.67 -315.55)"/><path class="cls-38" d="M757.77,445.19l-.15,4.79c-.77.23-1-.45-1.35-.83l-.09-5.17Z" transform="translate(-676.67 -315.55)"/><path class="cls-39" d="M793.6,445.26c-1-.78-.49-1.9-.64-2.88,1.22.71,2.6.58,3.91.81,1.72.31-.17.8-.09,1.24l-1.49.29A1.73,1.73,0,0,1,793.6,445.26Z" transform="translate(-676.67 -315.55)"/><path class="cls-40" d="M814.21,450.42v-7.25h.37v7.32Z" transform="translate(-676.67 -315.55)"/><path class="cls-16" d="M782.49,414.63q0,4.5,0,9A11.9,11.9,0,0,1,782.49,414.63Z" transform="translate(-676.67 -315.55)"/><path class="cls-41" d="M795.11,452.06c1-1.26,2.48-.65,3.76-.75.44-.24.6-.74,1-1a2.35,2.35,0,0,1,1.43-.22,2,2,0,0,1,.87.46.68.68,0,0,1-.13.87C799.83,452.83,797.41,451.83,795.11,452.06Z" transform="translate(-676.67 -315.55)"/><path class="cls-42" d="M785.47,451.51l-.71-.34c-.69-.61-.48-1.32-.21-2,1.1-.66,2.13-.07,3.19.17a4.33,4.33,0,0,1,2.31,1.35,4.92,4.92,0,0,1-.14.55A3.67,3.67,0,0,1,785.47,451.51Z" transform="translate(-676.67 -315.55)"/><path class="cls-25" d="M788.63,398.72v-6.43H789v6.43Z" transform="translate(-676.67 -315.55)"/><path class="cls-43" d="M717.25,401.88v-7.34l.65,0v7.34C717.69,402.15,717.47,402.14,717.25,401.88Z" transform="translate(-676.67 -315.55)"/><path class="cls-44" d="M792.11,447.64c.11,1.12.81,1.14,1.66.88,0,.93,0,1.85,0,2.78-.76-.7-1.53-.32-2.29,0C790.91,449.93,789.86,448.51,792.11,447.64Z" transform="translate(-676.67 -315.55)"/><path class="cls-45" d="M784.77,445.41c1-1.29,2.37-1.17,3.76-.82.36.3.86.47,1,1a1.2,1.2,0,0,1-.38.85,2.91,2.91,0,0,1-1.87.37,3.19,3.19,0,0,1-.91-.27c-.38-1-1.21.07-1.72-.35A.53.53,0,0,1,784.77,445.41Z" transform="translate(-676.67 -315.55)"/><path class="cls-46" d="M790.05,450.65c-.85-.11-1.81.12-2.36-.84,0-.17,0-.34.07-.51a2.08,2.08,0,0,1,2-1.49,1.4,1.4,0,0,1,1.31.8c0,.72.24,1.47-.34,2.1l-.33-.08Z" transform="translate(-676.67 -315.55)"/><path class="cls-47" d="M766.76,446.12a1.51,1.51,0,0,1-.76-1.45,2.24,2.24,0,0,1,3.08.49C768.69,446.41,768,446.81,766.76,446.12Z" transform="translate(-676.67 -315.55)"/><path class="cls-48" d="M771.2,449.2l.06-3a1,1,0,0,1,.69-.13l.06.09a2.57,2.57,0,0,1,1.06,2c-.22.73.15,1.47-.06,2.21-.29.41-.62.71-1.15.37l-.75-.69A.55.55,0,0,1,771.2,449.2Z" transform="translate(-676.67 -315.55)"/><path class="cls-49" d="M712.13,409.25v-4.94l.34,0v4.91Z" transform="translate(-676.67 -315.55)"/><path class="cls-50" d="M804.09,446.35l.25,4.95-.37.05h-.38c-1.26-.92-.78-2.5-1.38-3.67a3.33,3.33,0,0,1-.33-1,1.13,1.13,0,0,1,1-1.05C803.42,445.62,803.91,445.71,804.09,446.35Z" transform="translate(-676.67 -315.55)"/><path class="cls-51" d="M784.77,445.41a5.54,5.54,0,0,1,.12.71,1.8,1.8,0,0,1,.42,1.49,2.31,2.31,0,0,1-.9,1.3l-.47.25c-1.12-1-.54-2.42-.69-3.65Z" transform="translate(-676.67 -315.55)"/><path class="cls-52" d="M764.48,448.41l0,1.57c-.7.11-.68.67-.74,1.19-1.2,1-2.45.71-3.71.14A12.45,12.45,0,0,0,764.48,448.41Z" transform="translate(-676.67 -315.55)"/><path class="cls-53" d="M771.86,450.71l.95-.94a1.53,1.53,0,0,1,2.11.07l.91.92a1.25,1.25,0,0,1-.12.54,2.54,2.54,0,0,1-3.66,0A1.43,1.43,0,0,1,771.86,450.71Z" transform="translate(-676.67 -315.55)"/><path class="cls-54" d="M771.2,449.2l-.09.82c-.58.06-1.19.67-1.72-.1a.94.94,0,0,1-1.09.16,1.18,1.18,0,0,1-.12-1.61A3.93,3.93,0,0,1,771.2,449.2Z" transform="translate(-676.67 -315.55)"/><path class="cls-55" d="M789.25,445.38l-.72-.79c1-.51,1-2,2.22-2.22a2.58,2.58,0,0,1,.21,3A1.2,1.2,0,0,1,789.25,445.38Z" transform="translate(-676.67 -315.55)"/><path class="cls-56" d="M799.75,450.64l-.88.67a1.25,1.25,0,0,0,.07-.69l0-5.18a1.81,1.81,0,0,1,.69-.14c1.43,1.19,1.16,2.71.86,4.25A5.51,5.51,0,0,1,799.75,450.64Z" transform="translate(-676.67 -315.55)"/><path class="cls-57" d="M790.72,450.71l0-2.36c-.4-.9-1.18-1.92.68-2.09l.69,1.38c-1,1.08-.44,2.42-.62,3.64C791,451.39,790.8,451.13,790.72,450.71Z" transform="translate(-676.67 -315.55)"/><path class="cls-58" d="M768.15,449.75l1.24.17c-.14.47-.27.94-.41,1.42a2.54,2.54,0,0,1-3.66-.1c-.05-.18-.11-.37-.18-.56l1.59-.74A1,1,0,0,1,768.15,449.75Z" transform="translate(-676.67 -315.55)"/><path class="cls-59" d="M805.81,450.7l.06-4.72a1.11,1.11,0,0,1,.64.16c-.29,1.56.41,2.93.8,4.37Z" transform="translate(-676.67 -315.55)"/><path class="cls-60" d="M760,451.31l3.71-.14c-1.94,1.53-3.93,1.33-5.93.14Z" transform="translate(-676.67 -315.55)"/><path class="cls-61" d="M786.48,402.28a5.77,5.77,0,0,1-4.21-.07A5.72,5.72,0,0,1,786.48,402.28Z" transform="translate(-676.67 -315.55)"/><path class="cls-51" d="M784.76,449.25v1.92c-.93-.43-2.21,1-2.92-.55a2.09,2.09,0,0,0,2.1-1.46l.08-.05C784.33,448.81,784.58,448.86,784.76,449.25Z" transform="translate(-676.67 -315.55)"/><path class="cls-62" d="M799.84,449.9l-.24-4.6.9-.66a4.07,4.07,0,0,1,.66,1.07C801.1,447.23,802.3,449.14,799.84,449.9Z" transform="translate(-676.67 -315.55)"/><path class="cls-63" d="M800.51,445.39c0-.25,0-.5,0-.75,1.25.3,2.68-.95,3.81.45-.08.42-.15.84-.22,1.26l-1.43-.35C802,445.78,801.06,446.17,800.51,445.39Z" transform="translate(-676.67 -315.55)"/><path class="cls-64" d="M750.27,451.31c1.7.58,3.68-.68,5.24.81C753.77,451.81,751.81,452.89,750.27,451.31Z" transform="translate(-676.67 -315.55)"/><path class="cls-57" d="M790.87,445.35l-.12-3,1.51.69c-.16.82.25,1.81-.74,2.38C791.26,445.73,791,445.71,790.87,445.35Z" transform="translate(-676.67 -315.55)"/><path class="cls-65" d="M802.08,446.93l.68,0a6.18,6.18,0,0,1,0,4.46H802c0-.28,0-.56,0-.84a2.83,2.83,0,0,1-.32-3.23Z" transform="translate(-676.67 -315.55)"/><path class="cls-66" d="M802.76,451.37v-4.46c1.42,1.27.38,3,.83,4.44Z" transform="translate(-676.67 -315.55)"/><path class="cls-67" d="M717.25,401.88l.65,0c-1.07,1.23-2.36.73-3.8.51C715.18,401.51,716.26,402,717.25,401.88Z" transform="translate(-676.67 -315.55)"/><path class="cls-68" d="M785.47,451.51l4.44-.31-.65.92a4.15,4.15,0,0,1-3.76,0A5.49,5.49,0,0,0,785.47,451.51Z" transform="translate(-676.67 -315.55)"/><path class="cls-52" d="M764.47,446.07v1.52c-1.34-.53-1.5-1.67-1.49-2.89Z" transform="translate(-676.67 -315.55)"/><path class="cls-69" d="M756.27,449.15l1.35.83a1.39,1.39,0,0,1,0,.73c-.55.39-.58,1.33-1.47,1.34C756.16,451.08,756.21,450.11,756.27,449.15Z" transform="translate(-676.67 -315.55)"/><path class="cls-70" d="M765.32,451.24l3.66.1c0,.24,0,.49,0,.73a4.24,4.24,0,0,1-3.74.09Z" transform="translate(-676.67 -315.55)"/><path class="cls-71" d="M772.05,451.28l3.66,0,0,.77a3.77,3.77,0,0,1-3.75,0Z" transform="translate(-676.67 -315.55)"/><path class="cls-26" d="M765.26,452.16l3.74-.09A2.49,2.49,0,0,1,765.26,452.16Z" transform="translate(-676.67 -315.55)"/><path class="cls-72" d="M772,452.05l3.75,0A2.4,2.4,0,0,1,772,452.05Z" transform="translate(-676.67 -315.55)"/><path class="cls-72" d="M785.5,452.09l3.76,0A2.48,2.48,0,0,1,785.5,452.09Z" transform="translate(-676.67 -315.55)"/><path class="cls-14" d="M733,422.15a1.44,1.44,0,0,1-.07.36c-.17.39-.64.49-.65.1-.07-3.41,0-6.82,0-10.23,1.79.21.73,1.43.74,2.22C733,417.11,733,419.63,733,422.15Z" transform="translate(-676.67 -315.55)"/><path class="cls-73" d="M735.3,413.18h11.09A16.62,16.62,0,0,1,735.3,413.18Z" transform="translate(-676.67 -315.55)"/><path class="cls-74" d="M751.75,444.69c.84.12,2-.73,2.32.87a2.4,2.4,0,0,1-2.22,3.1C750.72,447.37,751,446,751.75,444.69Z" transform="translate(-676.67 -315.55)"/><path class="cls-75" d="M751.75,444.69c0,1.32.07,2.65.1,4C749.69,447.64,749.67,446.61,751.75,444.69Z" transform="translate(-676.67 -315.55)"/><path class="cls-76" d="M809.48,450c-2.19-1.3-2-2.6,0-3.9C811.69,447.37,811.36,448.67,809.48,450Z" transform="translate(-676.67 -315.55)"/><path class="cls-77" d="M793.6,445.26a1.51,1.51,0,0,1,1.69-.54c1.52,1,1.39,1.95,0,2.89l-.36,0h-.36C793.52,447.11,793.66,446.15,793.6,445.26Z" transform="translate(-676.67 -315.55)"/><path class="cls-78" d="M796.77,450c-.95,0-1.5-.34-1.42-1.37.57-.21,1.24-.57,1.66,0C797.19,448.91,796.87,449.53,796.77,450Z" transform="translate(-676.67 -315.55)"/><path class="cls-22" d="M772.74,448.34l-.73-2.19c1.87-.65,2.81,1.53,4.49,1.47a1.77,1.77,0,0,1-1.59.8A1.49,1.49,0,0,1,772.74,448.34Z" transform="translate(-676.67 -315.55)"/><path class="cls-79" d="M772.74,448.34l2.18.08v1.42l-2.11-.07C772.83,449.29,771.67,448.88,772.74,448.34Z" transform="translate(-676.67 -315.55)"/><path class="cls-80" d="M768.15,449.75l-1.42.19-.63-1.38,2.08-.09Z" transform="translate(-676.67 -315.55)"/><path class="cls-81" d="M790.87,445.35a1.77,1.77,0,0,1,.65.09c0,.27-.06.55-.1.82-1,.46-.49,1.38-.68,2.09l-1.43,0a.69.69,0,0,1-.41-.64c.05-.53-.08-1.1.36-1.55v-.76Z" transform="translate(-676.67 -315.55)"/><path class="cls-29" d="M800.51,445.39c.77,0,1.59-.15,2.15.61l-.58.93-.14-.08c-.82,1.11.21,2.58-.72,3.66l-1.47.13.09-.74C801,448.54,800.21,446.88,800.51,445.39Z" transform="translate(-676.67 -315.55)"/><path class="cls-82" d="M801.22,450.51c.23-1.22-.44-2.62.72-3.66,0,1.23,0,2.46,0,3.69Z" transform="translate(-676.67 -315.55)"/><path class="cls-50" d="M784.76,449.25l-.74-.14.72-1.71a1.89,1.89,0,0,1,1.1-.14c1.15.49,2.74.66,1.86,2.6v-.05C786.62,450.1,785.72,449.49,784.76,449.25Z" transform="translate(-676.67 -315.55)"/><path class="cls-83" d="M787.7,449.86c.26-1.82-1.78-1.18-2.3-2.15a2.3,2.3,0,0,1,.83-1.61l.64,0c.55.75,1.73.69,2.13,1.64a5,5,0,0,1,.31.61Z" transform="translate(-676.67 -315.55)"/><path class="cls-84" d="M789,447.72c-1.06-.08-2-.37-2.13-1.64l2.39.06C789.41,446.71,789.94,447.34,789,447.72Z" transform="translate(-676.67 -315.55)"/><path class="cls-85" d="M786.23,446.1a1.59,1.59,0,0,1-.83,1.61,1.26,1.26,0,0,1-.66-.31l.15-1.28C785.34,446,785.78,445.31,786.23,446.1Z" transform="translate(-676.67 -315.55)"/></svg>